Merriweather-DisplaySemiWideBold.ufo
<glyph name="exclam" format="2">
  <advance width="498.76533451627216"/>
  <unicode hex="0021"/>
  <outline>
    <contour>
      <point x="417.5444610235109" y="1784.9723756906078" type="line"/>
      <point x="76.81614711457033" y="1784.9723756906078" type="line"/>
      <point x="208.45537766665322" y="467.6199540266968" type="line"/>
      <point x="289.0425857966689" y="467.6199540266968" type="line"/>
    </contour>
    <contour>
      <point x="85.09811670766625" y="121.34330765818446" type="curve" smooth="yes"/>
      <point x="85.09811670766625" y="39.080251643343956"/>
      <point x="154.1757873936363" y="-17.65745856353591"/>
      <point x="234.49788280840423" y="-17.65745856353591" type="curve" smooth="yes"/>
      <point x="340.9736661692947" y="-17.65745856353591"/>
      <point x="415.5320804936081" y="39.45428882526112"/>
      <point x="415.5320804936081" y="135.8427632374884" type="curve" smooth="yes"/>
      <point x="415.5320804936081" y="207.4090010888414"/>
      <point x="363.645239343469" y="275.0337137556963"/>
      <point x="261.8617171432028" y="275.0337137556963" type="curve" smooth="yes"/>
      <point x="163.78279630600474" y="275.0337137556963"/>
      <point x="85.09811670766625" y="211.9678186877445"/>
    </contour>
  </outline>
</glyph>
<glyph name="quotedbl" format="2">
  <advance width="1155.0403274589667"/>
  <unicode hex="0022"/>
  <outline>
    <contour>
      <point x="462.35847078275594" y="1671.5027624309391" type="line"/>
      <point x="210.41698592571677" y="1671.5027624309391" type="line"/>
      <point x="296.7154091220712" y="946.9006331411058" type="line"/>
      <point x="373.8563939186192" y="946.9006331411058" type="line"/>
    </contour>
    <contour>
      <point x="947.427713029802" y="1671.5027624309391" type="line"/>
      <point x="695.3599628987378" y="1671.5027624309391" type="line"/>
      <point x="781.2510787595274" y="946.9006331411058" type="line"/>
      <point x="859.33294350123" y="946.9006331411058" type="line"/>
    </contour>
  </outline>
</glyph>
<glyph name="numbersign" format="2">
  <advance width="1397.0046376577811"/>
  <unicode hex="0023"/>
  <outline>
    <contour>
      <point x="359.31455417994107" y="413.0" type="line"/>
      <point x="295.31455417994107" y="0.0" type="line"/>
      <point x="376.45324031132793" y="0.0" type="line"/>
      <point x="441.45324031132793" y="413.0" type="line"/>
      <point x="834.5513973464532" y="413.0" type="line"/>
      <point x="771.5513973464532" y="0.0" type="line"/>
      <point x="852.6900834778401" y="0.0" type="line"/>
      <point x="915.6900834778401" y="413.0" type="line"/>
      <point x="1178.1652215993868" y="413.0" type="line"/>
      <point x="1203.4027906601605" y="596.6629834254144" type="line"/>
      <point x="944.9276525386135" y="596.6629834254144" type="line"/>
      <point x="1000.7287575109892" y="926.3370165745856" type="line"/>
      <point x="1248.9276525386135" y="926.3370165745856" type="line"/>
      <point x="1274.1652215993868" y="1108.0" type="line"/>
      <point x="1026.69008347784" y="1108.0" type="line"/>
      <point x="1096.6900834778398" y="1539.0" type="line"/>
      <point x="1014.5513973464532" y="1539.0" type="line"/>
      <point x="944.5513973464532" y="1108.0" type="line"/>
      <point x="552.4532403113279" y="1108.0" type="line"/>
      <point x="620.4532403113279" y="1539.0" type="line"/>
      <point x="539.3145541799411" y="1539.0" type="line"/>
      <point x="471.31455417994107" y="1108.0" type="line"/>
      <point x="217.83941605839416" y="1108.0" type="line"/>
      <point x="192.6018469976207" y="926.3370165745856" type="line"/>
      <point x="443.0769851191676" y="926.3370165745856" type="line"/>
      <point x="389.72339395894664" y="596.6629834254144" type="line"/>
      <point x="148.07698511916763" y="596.6629834254144" type="line"/>
      <point x="122.83941605839416" y="413.0" type="line"/>
    </contour>
    <contour>
      <point x="863.7889664072267" y="596.6629834254144" type="line"/>
      <point x="469.8620800903335" y="596.6629834254144" type="line"/>
      <point x="525.2156712505545" y="926.3370165745856" type="line"/>
      <point x="918.5900713796024" y="926.3370165745856" type="line"/>
    </contour>
  </outline>
</glyph>
<glyph name="dollar" format="2">
  <advance width="1408.4622333346776"/>
  <unicode hex="0024"/>
  <outline>
    <contour>
      <point x="178.49929426946812" y="65.82872928176795" type="line"/>
      <point x="243.19103117312577" y="53.03972254708231"/>
      <point x="425.83739968544575" y="-13.553494374319474"/>
      <point x="651.5219583014073" y="-23.27402508367948" type="curve"/>
      <point x="651.1952655563173" y="-256.26858087671894" type="line"/>
      <point x="768.2396660886398" y="-256.26858087671894" type="line"/>
      <point x="769.4352945920876" y="-20.233818607089564" type="line"/>
      <point x="1077.533491954672" y="12.802476105980562"/>
      <point x="1261.0350445618421" y="179.2684195668831"/>
      <point x="1261.0350445618421" y="410.6685486147519" type="curve" smooth="yes"/>
      <point x="1261.0350445618421" y="650.040085494213"/>
      <point x="1066.5253054805019" y="742.650078638545"/>
      <point x="833.4540468605073" y="867.0380287938057" type="curve" smooth="yes"/>
      <point x="654.8089688268743" y="961.9539460418599"/>
      <point x="512.0102835020365" y="1038.9700770254467"/>
      <point x="512.0102835020365" y="1199.3520990442394" type="curve" smooth="yes"/>
      <point x="512.0102835020365" y="1326.4395693027382"/>
      <point x="602.1776021292899" y="1430.303827075856"/>
      <point x="748.4709440658144" y="1430.3764165019961" type="curve" smooth="yes"/>
      <point x="822.119127313788" y="1430.6526595959187"/>
      <point x="906.550469814897" y="1405.7923942412388"/>
      <point x="936.4689276928661" y="1375.442714844538" type="curve"/>
      <point x="979.726700810582" y="1097.4267048433278" type="line"/>
      <point x="1156.6894785659556" y="1097.4267048433278" type="line"/>
      <point x="1174.6124531193288" y="1430.342541436464" type="line"/>
      <point x="1114.606645965238" y="1441.940516998024"/>
      <point x="940.3807718675647" y="1498.8377626325762"/>
      <point x="782.3529862483365" y="1503.0671452191798" type="curve"/>
      <point x="782.3529862483365" y="1729.6043069726177" type="line"/>
      <point x="665.1714320280679" y="1729.4006533048353" type="line"/>
      <point x="665.1714320280679" y="1502.0032261967172" type="line"/>
      <point x="373.46763721417915" y="1473.6120901721984"/>
      <point x="197.40791224744927" y="1329.9293462918904"/>
      <point x="197.40791224744927" y="1101.3635520425858" type="curve" smooth="yes"/>
      <point x="197.40791224744927" y="840.5289349518087"/>
      <point x="422.21869580997696" y="724.9835060692826"/>
      <point x="594.7531152962051" y="638.6975843852078" type="curve" smooth="yes"/>
      <point x="796.3422994717104" y="537.3116909303544"/>
      <point x="934.6426180586361" y="457.53800863007626"/>
      <point x="934.6426180586361" y="296.52748316328586" type="curve" smooth="yes"/>
      <point x="934.6426180586361" y="159.98342541436466"/>
      <point x="836.5036899624955" y="53.67863047949349"/>
      <point x="668.6977053675847" y="53.67863047949349" type="curve" smooth="yes"/>
      <point x="579.6369318869218" y="53.67863047949349"/>
      <point x="464.08835746259626" y="82.00754123482679"/>
      <point x="424.45638585312736" y="124.99354760656531" type="curve"/>
      <point x="375.9632616848812" y="426.70589184175503" type="line"/>
      <point x="200.94237206113644" y="426.70589184175503" type="line"/>
    </contour>
  </outline>
</glyph>
<glyph name="percent" format="2">
  <advance width="2045.2243013267735"/>
  <unicode hex="0025"/>
  <outline>
    <contour>
      <point x="634.4383594789692" y="0.0" type="line"/>
      <point x="753.0356898011858" y="0.0" type="line"/>
      <point x="1405.9941121909908" y="1502.0" type="line"/>
      <point x="1287.1481227567854" y="1501.7963463322176" type="line"/>
    </contour>
    <contour>
      <point x="475.2824131951446" y="630.6298342541436" type="curve" smooth="yes"/>
      <point x="706.9719320885591" y="630.6298342541436"/>
      <point x="905.1893777473082" y="783.6772190184297"/>
      <point x="905.1893777473082" y="1062.7048433278221" type="curve" smooth="yes"/>
      <point x="905.1893777473082" y="1298.82397064161"/>
      <point x="796.8841795378473" y="1486.9700366979878"/>
      <point x="513.2365608742994" y="1486.9700366979878" type="curve" smooth="yes"/>
      <point x="276.47989676170505" y="1486.9700366979878"/>
      <point x="84.24353752470056" y="1329.7324676372143"/>
      <point x="84.24353752470056" y="1050.704843327822" type="curve" smooth="yes"/>
      <point x="84.24353752470056" y="818.5262330120579"/>
      <point x="223.5668024357785" y="630.6298342541436"/>
    </contour>
    <contour>
      <point x="491.88772835423646" y="700.8182441424365" type="curve" smooth="yes"/>
      <point x="378.8927692866072" y="700.8182441424365"/>
      <point x="327.57490825503083" y="838.9237407750937"/>
      <point x="327.57490825503083" y="1062.133443561721" type="curve" smooth="yes"/>
      <point x="327.57490825503083" y="1295.3143525426462"/>
      <point x="383.9495100213735" y="1417.4684034358993"/>
      <point x="500.2365608742994" y="1417.4684034358993" type="curve" smooth="yes"/>
      <point x="612.047425091745" y="1417.4684034358993"/>
      <point x="663.1933701657458" y="1288.6808484897367"/>
      <point x="663.1933701657458" y="1054.704843327822" type="curve" smooth="yes"/>
      <point x="663.1933701657458" y="822.0394402548696"/>
      <point x="606.9174496914949" y="700.8182441424365"/>
    </contour>
    <contour>
      <point x="1530.5402266403194" y="28.128644594104127" type="curve" smooth="yes"/>
      <point x="1762.6181392910432" y="28.128644594104127"/>
      <point x="1960.980763802073" y="181.17602935839014"/>
      <point x="1960.980763802073" y="460.20365366778236" type="curve" smooth="yes"/>
      <point x="1960.980763802073" y="696.1776021292897"/>
      <point x="1852.5303867403316" y="884.4688470379482"/>
      <point x="1568.494374319474" y="884.4688470379482" type="curve" smooth="yes"/>
      <point x="1331.1671573174171" y="884.4688470379482"/>
      <point x="1139.5013509698756" y="727.2312779771747"/>
      <point x="1139.5013509698756" y="448.2036536677824" type="curve" smooth="yes"/>
      <point x="1139.5013509698756" y="221.36076944791708"/>
      <point x="1278.6794370286727" y="28.128644594104127"/>
    </contour>
    <contour>
      <point x="1547.0003629471307" y="98.31705448239708" type="curve" smooth="yes"/>
      <point x="1434.1505827317822" y="98.31705448239708"/>
      <point x="1382.614953421785" y="236.42255111505423"/>
      <point x="1382.614953421785" y="459.77743275396216" type="curve" smooth="yes"/>
      <point x="1382.614953421785" y="692.8131628826068"/>
      <point x="1439.062144614268" y="814.9672137758599"/>
      <point x="1555.4943743194742" y="814.9672137758599" type="curve" smooth="yes"/>
      <point x="1667.3052385369197" y="814.9672137758599"/>
      <point x="1718.4511836109207" y="685.8442956809291"/>
      <point x="1718.4511836109207" y="452.2036536677824" type="curve" smooth="yes"/>
      <point x="1718.4511836109207" y="219.7284348913175"/>
      <point x="1662.0300842843894" y="98.31705448239708"/>
    </contour>
  </outline>
</glyph>
<glyph name="ampersand" format="2">
  <advance width="1594.9536234221882"/>
  <unicode hex="0026"/>
  <outline>
    <contour>
      <point x="1559.7159737064967" y="814.8814775980966" type="line"/>
      <point x="1117.1917973948462" y="814.8814775980966" type="line"/>
      <point x="1117.1917973948462" y="743.6630237528733" type="line"/>
      <point x="1260.7064564261805" y="711.251401379199" type="line"/>
      <point x="1264.8277614227527" y="586.550308505061"/>
      <point x="1248.4782030084284" y="423.58204621526795"/>
      <point x="1158.8615558333668" y="330.94426745170784" type="curve"/>
      <point x="1042.9885470016536" y="440.0415372827359"/>
      <point x="908.8294551760293" y="592.1090857765051"/>
      <point x="757.7000443602049" y="789.1920393596" type="curve"/>
      <point x="968.5678106222526" y="888.7844497318225"/>
      <point x="1131.41686494334" y="1004.6538694196879"/>
      <point x="1131.41686494334" y="1203.9336210025406" type="curve" smooth="yes"/>
      <point x="1131.41686494334" y="1380.5262733395168"/>
      <point x="985.7965882969712" y="1504.7237569060774"/>
      <point x="723.7484776384238" y="1504.7237569060774" type="curve" smooth="yes"/>
      <point x="408.67786425777314" y="1504.7237569060774"/>
      <point x="239.32883010041536" y="1339.1436464088397"/>
      <point x="239.32883010041536" y="1141.1946606444328" type="curve" smooth="yes"/>
      <point x="239.32883010041536" y="1001.7012138565148"/>
      <point x="319.1974432391015" y="868.7110134290439"/>
      <point x="440.13856514900993" y="712.5695043755293" type="curve"/>
      <point x="217.7081501794572" y="643.5094164616687"/>
      <point x="77.59398314312216" y="518.0872686212042"/>
      <point x="77.59398314312216" y="345.0600475864016" type="curve" smooth="yes"/>
      <point x="77.59398314312216" y="131.061983304432"/>
      <point x="269.71516715731735" y="-20.34254143646409"/>
      <point x="615.1211033592773" y="-20.34254143646409" type="curve" smooth="yes"/>
      <point x="778.2914062184941" y="-20.34254143646409"/>
      <point x="910.6148727668672" y="23.00201637294834"/>
      <point x="1001.6797999758037" y="97.34669516473765" type="curve"/>
      <point x="1105.2194620316975" y="18.443077791668344"/>
      <point x="1225.5020365366777" y="-13.65116747993709"/>
      <point x="1334.0708553454047" y="-13.65116747993709" type="curve" smooth="yes"/>
      <point x="1408.284389240634" y="-13.65116747993709"/>
      <point x="1515.1672379723354" y="0.034117030285921945"/>
      <point x="1533.912771706255" y="15.408839779005525" type="curve"/>
      <point x="1533.912771706255" y="76.44440859781425" type="line"/>
      <point x="1446.7889260797679" y="86.5077630358511"/>
      <point x="1292.1600596846395" y="213.27612211154573"/>
      <point x="1216.6792757188368" y="284.7759406379804" type="curve"/>
      <point x="1331.5598257853771" y="362.281969593096"/>
      <point x="1437.951486066863" y="540.3318546598377"/>
      <point x="1438.4001693753278" y="711.251401379199" type="curve"/>
      <point x="1559.7159737064967" y="743.6630237528733" type="line"/>
    </contour>
    <contour>
      <point x="535.9097874742913" y="1210.2899141025125" type="curve" smooth="yes"/>
      <point x="535.9097874742913" y="1351.4843327821916"/>
      <point x="595.8985361132395" y="1437.508932532161"/>
      <point x="708.6514497721498" y="1437.508932532161" type="curve" smooth="yes"/>
      <point x="830.3233052385369" y="1437.508932532161"/>
      <point x="875.9666088639754" y="1327.1826027342017"/>
      <point x="875.9666088639754" y="1201.5690607734807" type="curve" smooth="yes"/>
      <point x="875.9666088639754" y="1051.726741138041"/>
      <point x="831.2916481832481" y="927.9189014800178"/>
      <point x="714.6789934266243" y="839.1246118482075" type="curve"/>
      <point x="613.2919304754607" y="965.0127434770336"/>
      <point x="535.9097874742913" y="1089.5239343468968"/>
    </contour>
    <contour>
      <point x="714.083760132274" y="91.83356857684399" type="curve" smooth="yes"/>
      <point x="500.2516030164939" y="93.46279791910312"/>
      <point x="368.4106545146591" y="223.67588821228375"/>
      <point x="368.4106545146591" y="401.6227769488245" type="curve" smooth="yes"/>
      <point x="368.4106545146591" y="506.0012904786868"/>
      <point x="411.74267048433273" y="601.9131346533856"/>
      <point x="483.28947050046384" y="654.8342541436465" type="curve"/>
      <point x="637.1004557002864" y="454.74601766342704"/>
      <point x="801.0724281163044" y="272.01653425817636"/>
      <point x="944.3164495705124" y="144.45803927894502" type="curve"/>
      <point x="884.9382989877809" y="108.18030406904062"/>
      <point x="795.7194015405089" y="91.0189539057144"/>
    </contour>
  </outline>
</glyph>
<glyph name="quotesingle" format="2">
  <advance width="672.7754567084728"/>
  <unicode hex="0027"/>
  <outline>
    <contour>
      <point x="462.358470782756" y="1671.5027624309391" type="line"/>
      <point x="210.41698592571677" y="1671.5027624309391" type="line"/>
      <point x="296.71540912207126" y="946.9006331411058" type="line"/>
      <point x="373.8563939186192" y="946.9006331411058" type="line"/>
    </contour>
  </outline>
</glyph>
<glyph name="parenleft" format="2">
  <advance width="909.8480864620722"/>
  <unicode hex="0028"/>
  <outline>
    <contour>
      <point x="128.596564100496" y="668.0" type="curve" smooth="yes"/>
      <point x="128.596564100496" y="-27.87615437351293"/>
      <point x="622.3020123402023" y="-320.8933338710328"/>
      <point x="737.2536597169013" y="-377.02762430939225" type="curve"/>
      <point x="794.5523248780094" y="-333.50409323708516" type="line"/>
      <point x="665.3641972819294" y="-243.98991813525834"/>
      <point x="404.67915473646" y="84.05230471427994"/>
      <point x="420.3303222163972" y="697.4861878453039" type="curve"/>
      <point x="434.1796991571561" y="1259.0139936282615"/>
      <point x="677.1938137677945" y="1547.0498850667418"/>
      <point x="794.1198128805904" y="1622.3927894503365" type="curve"/>
      <point x="739.3879501552608" y="1665.0276243093922" type="line"/>
      <point x="607.4954228334072" y="1595.9758035246198"/>
      <point x="128.596564100496" y="1264.2960438762752"/>
    </contour>
  </outline>
</glyph>
<glyph name="parenright" format="2">
  <advance width="909.8480864620722"/>
  <unicode hex="0029"/>
  <outline>
    <contour>
      <point x="781.2515223615759" y="620.5255474452555" type="curve" smooth="yes"/>
      <point x="781.2515223615759" y="1316.4017018187683"/>
      <point x="287.54607412186954" y="1609.418881316288"/>
      <point x="172.59442674517078" y="1665.5531717546476" type="curve"/>
      <point x="115.29576158406259" y="1622.0296406823404" type="line"/>
      <point x="244.48388918014274" y="1532.5154655805138"/>
      <point x="505.168931725612" y="1204.4732427309755"/>
      <point x="489.70794854216234" y="591.0393595999516" type="curve"/>
      <point x="475.85857160140336" y="29.511553816993995"/>
      <point x="232.65427269427755" y="-258.52433762148644"/>
      <point x="115.7282735814816" y="-333.86724200508127" type="curve"/>
      <point x="170.4601363068113" y="-376.50207686413677" type="line"/>
      <point x="302.3526636286648" y="-307.4502560793644"/>
      <point x="781.2515223615759" y="24.229503568980117"/>
    </contour>
  </outline>
</glyph>
<glyph name="asterisk" format="2">
  <advance width="1022.6389079324113"/>
  <unicode hex="002A"/>
  <outline>
    <contour>
      <point x="257.86752429729404" y="1170.9712061942978" type="line"/>
      <point x="84.03637536798806" y="1089.3325805540992" type="line"/>
      <point x="175.36875428479252" y="933.4162600314554" type="line"/>
      <point x="332.35076823809334" y="1047.5290962616446" type="line"/>
      <point x="487.3326612090172" y="1196.56244707021" type="line"/>
      <point x="442.19494293664553" y="987.4538048957535" type="line"/>
      <point x="426.05694237206103" y="795.1822397870709" type="line"/>
      <point x="608.600032261967" y="795.3274186393515" type="line"/>
      <point x="587.2388192120013" y="989.2581763923056" type="line"/>
      <point x="534.4588055006653" y="1195.9918941807477" type="line"/>
      <point x="695.7167399282171" y="1052.3286687905795" type="line"/>
      <point x="851.4313828285682" y="942.2743073758922" type="line"/>
      <point x="943.5244989313223" y="1100.002459974997" type="line"/>
      <point x="766.2773722627736" y="1178.1772391821592" type="line"/>
      <point x="558.0403677864257" y="1236.9817316610881" type="line"/>
      <point x="765.0065733758115" y="1302.223494777594" type="line"/>
      <point x="938.1219905633747" y="1383.9071258619995" type="line"/>
      <point x="846.7446062023635" y="1539.4880832358754" type="line"/>
      <point x="688.8566762108319" y="1425.5654313021737" type="line"/>
      <point x="534.255151832883" y="1277.247812235351" type="line"/>
      <point x="579.7282332540227" y="1485.7859015203453" type="line"/>
      <point x="596.3917812638624" y="1677.3867403314916" type="line"/>
      <point x="413.32314392870103" y="1677.3867403314916" type="line"/>
      <point x="434.5391781263863" y="1482.8854296890752" type="line"/>
      <point x="487.2741863935153" y="1276.1517119006332" type="line"/>
      <point x="327.15735774488854" y="1420.1953058837762" type="line"/>
      <point x="169.58587732386982" y="1530.439851594951" type="line"/>
      <point x="79.11440900108886" y="1374.3333467758196" type="line"/>
      <point x="256.5967254103319" y="1295.678025567609" type="line"/>
      <point x="463.6926241077549" y="1236.4481590514981" type="line"/>
    </contour>
  </outline>
</glyph>
<glyph name="plus" format="2">
  <advance width="1241.5189337419847"/>
  <unicode hex="002B"/>
  <outline>
    <contour>
      <point x="341.9978223172158" y="640.5769649554381" type="line"/>
      <point x="159.3375811590112" y="640.5769649554381" type="line"/>
      <point x="159.3375811590112" y="527.4198088478446" type="line"/>
      <point x="341.9978223172158" y="527.4198088478446" type="line"/>
      <point x="565.4840101625197" y="529.3768197765859" type="line"/>
      <point x="563.9073678267532" y="339.8009436625398" type="line"/>
      <point x="563.9073678267532" y="112.641529217244" type="line"/>
      <point x="676.6841553413718" y="112.641529217244" type="line"/>
      <point x="676.6841553413718" y="339.8009436625398" type="line"/>
      <point x="674.3917812638625" y="529.3768197765859" type="line"/>
      <point x="869.8114691293301" y="527.4198088478446" type="line"/>
      <point x="1082.181352582974" y="527.4198088478446" type="line"/>
      <point x="1082.181352582974" y="640.5769649554381" type="line"/>
      <point x="869.8114691293301" y="640.5769649554381" type="line"/>
      <point x="674.3917812638625" y="637.5688591361859" type="line"/>
      <point x="676.6841553413718" y="833.7132717667461" type="line"/>
      <point x="676.6841553413718" y="1055.641529217244" type="line"/>
      <point x="563.9073678267532" y="1055.641529217244" type="line"/>
      <point x="563.9073678267532" y="833.7132717667461" type="line"/>
      <point x="565.4840101625197" y="637.5688591361859" type="line"/>
    </contour>
  </outline>
</glyph>
<glyph name="comma" format="2">
  <advance width="575.7788442150261"/>
  <unicode hex="002C"/>
  <outline>
    <contour>
      <point x="275.55607533169336" y="303.2793079808041" type="curve"/>
      <point x="265.0683550429487" y="303.2793079808041" type="line" smooth="yes"/>
      <point x="181.98721619550759" y="303.2793079808041"/>
      <point x="127.30898899060371" y="250.9858853893616"/>
      <point x="127.30898899060371" y="175.18703875468807" type="curve" smooth="yes"/>
      <point x="127.30898899060371" y="44.58015082469653"/>
      <point x="272.8767996128564" y="48.72218413517764"/>
      <point x="272.8767996128564" y="-63.01701818768399" type="curve" smooth="yes"/>
      <point x="272.8767996128564" y="-178.18804694116224"/>
      <point x="208.50506109610032" y="-304.2352703956124"/>
      <point x="129.53691978868412" y="-378.08295358309465" type="curve"/>
      <point x="129.53691978868412" y="-391.5634552566842" type="line"/>
      <point x="174.3606484655402" y="-422.64068234060574" type="line"/>
      <point x="176.15699479775782" y="-422.10710973101584" type="line"/>
      <point x="307.15695447029884" y="-352.34701778440933"/>
      <point x="461.4425535347018" y="-163.08037262572086"/>
      <point x="461.4425535347018" y="62.490220591200554" type="curve" smooth="yes"/>
      <point x="461.4425535347018" y="203.45678912771706"/>
      <point x="380.1830060087915" y="303.2793079808041"/>
    </contour>
  </outline>
</glyph>
<glyph name="period" format="2">
  <advance width="505.46529822155907"/>
  <unicode hex="002E"/>
  <outline>
    <contour>
      <point x="237.34588861555838" y="-17.65745856353591" type="curve" smooth="yes"/>
      <point x="344.1557446465298" y="-17.65745856353591"/>
      <point x="417.75436544743314" y="39.78965197402912"/>
      <point x="417.75436544743314" y="136.17812638625642" type="curve" smooth="yes"/>
      <point x="417.75436544743314" y="207.93454853409688"/>
      <point x="366.82731782070414" y="275.89462434971966"/>
      <point x="264.7097229503569" y="275.89462434971966" type="curve" smooth="yes"/>
      <point x="165.67100858974877" y="275.89462434971966"/>
      <point x="87.9011170706134" y="212.63854498528048"/>
      <point x="87.9011170706134" y="121.86885510343993" type="curve" smooth="yes"/>
      <point x="87.9011170706134" y="39.60579908859943"/>
      <point x="155.68363108440536" y="-17.65745856353591"/>
    </contour>
  </outline>
</glyph>
<glyph name="slash" format="2">
  <advance width="755.3600838811146"/>
  <unicode hex="002F"/>
  <outline>
    <contour>
      <point x="709.6568939791104" y="1562.0" type="line"/>
      <point x="586.6373351615116" y="1562.0" type="line"/>
      <point x="45.703189902004276" y="-354.0" type="line"/>
      <point x="170.17026253175786" y="-354.0" type="line"/>
    </contour>
  </outline>
</glyph>
<glyph name="zero" format="2">
  <advance width="1428.593015284107"/>
  <unicode hex="0030"/>
  <outline>
    <contour>
      <point x="686.7546477396459" y="-20.171270718232044" type="curve" smooth="yes"/>
      <point x="1082.1622373674234" y="-20.171270718232044"/>
      <point x="1360.5773682300278" y="256.6174537242408"/>
      <point x="1361.523692382143" y="767.5097390813404" type="curve" smooth="yes"/>
      <point x="1362.470016534258" y="1240.307254909868"/>
      <point x="1126.3239101504214" y="1504.7237569060774"/>
      <point x="743.8446586280598" y="1504.7237569060774" type="curve" smooth="yes"/>
      <point x="369.35274428358275" y="1504.7237569060774"/>
      <point x="68.549219663669" y="1237.4977214985684"/>
      <point x="67.06932290196394" y="722.7767068597008" type="curve" smooth="yes"/>
      <point x="65.58942614025891" y="256.18913578255433"/>
      <point x="301.54510626285435" y="-20.171270718232044"/>
    </contour>
    <contour>
      <point x="715.8107432350687" y="52.20760575876113" type="curve" smooth="yes"/>
      <point x="521.2443037464209" y="52.20760575876113"/>
      <point x="424.3418558696617" y="249.13166915352662"/>
      <point x="424.3418558696617" y="739.2716054361415" type="curve" smooth="yes"/>
      <point x="424.3418558696617" y="1252.8594991329596"/>
      <point x="531.7456143888373" y="1430.0573859741096"/>
      <point x="715.5194983264104" y="1430.0573859741096" type="curve" smooth="yes"/>
      <point x="906.5049804411824" y="1430.0573859741096"/>
      <point x="1004.2511594144453" y="1270.9242247046016"/>
      <point x="1004.2511594144453" y="737.643827882405" type="curve" smooth="yes"/>
      <point x="1004.2511594144453" y="252.24293261281608"/>
      <point x="919.2545469209985" y="52.20760575876113"/>
    </contour>
  </outline>
</glyph>
<glyph name="one" format="2">
  <advance width="890.7957010928741"/>
  <unicode hex="0031"/>
  <outline>
    <contour>
      <point x="316.64241642134135" y="88.37415816429407" type="line"/>
      <point x="98.79566076541519" y="58.57394039601565" type="line"/>
      <point x="98.79566076541519" y="0.0" type="line"/>
      <point x="854.8752671694157" y="0.0" type="line"/>
      <point x="854.8752671694157" y="58.57394039601565" type="line"/>
      <point x="645.6170101221923" y="88.24640077428721" type="line"/>
      <point x="645.9973787151672" y="1484.939387829173" type="line"/>
      <point x="469.6179376537485" y="1505.4475138121547" type="line"/>
      <point x="460.14792111949026" y="1505.4475138121547" type="line"/>
      <point x="377.2650723877889" y="1403.0293180626688"/>
      <point x="222.87139573335483" y="1304.864056135823"/>
      <point x="40.04440053232246" y="1269.5283300399242" type="curve"/>
      <point x="54.515505907972745" y="1194.9883050368994" type="line"/>
      <point x="141.4390047183127" y="1201.22833407267"/>
      <point x="266.3832721700206" y="1229.2009517280314"/>
      <point x="315.6241480824294" y="1248.0487962253499" type="curve"/>
    </contour>
  </outline>
</glyph>
<glyph name="two" format="2">
  <advance width="1211.9313223373795"/>
  <unicode hex="0032"/>
  <outline>
    <contour>
      <point x="23.07577529539864" y="139.5167560592007" type="curve"/>
      <point x="75.94757430334316" y="0.0" type="line"/>
      <point x="1080.4252933822638" y="0.0" type="line"/>
      <point x="1160.662136548776" y="392.2698713554059" type="line"/>
      <point x="1074.5506714521916" y="413.9475743033432" type="line"/>
      <point x="983.9401540508933" y="259.1828850264145" type="line"/>
      <point x="259.1006573375811" y="197.4594507400089" type="line"/>
      <point x="668.7811832076461" y="436.90652095011495"/>
      <point x="1062.7528733314514" y="724.0070169778601"/>
      <point x="1062.7528733314514" y="1106.695205065129" type="curve" smooth="yes"/>
      <point x="1062.7528733314514" y="1324.7641246925032"/>
      <point x="890.3829898778077" y="1503.4475138121547"/>
      <point x="589.1257813445176" y="1503.4475138121547" type="curve" smooth="yes"/>
      <point x="344.84336814937296" y="1503.4475138121547"/>
      <point x="149.45057869903619" y="1364.4903819010367"/>
      <point x="50.389038996652815" y="1234.996572165988" type="curve"/>
      <point x="102.65403072952375" y="1173.409726983103" type="line"/>
      <point x="201.48066298342542" y="1270.5387748517965"/>
      <point x="339.6288663951285" y="1323.7504940113722"/>
      <point x="439.8995039722547" y="1323.7504940113722" type="curve" smooth="yes"/>
      <point x="594.6305198209459" y="1323.7504940113722"/>
      <point x="721.7351695769651" y="1237.805984594911"/>
      <point x="724.9366052345042" y="1048.198128805904" type="curve" smooth="yes"/>
      <point x="730.8059039399928" y="694.6708876073719"/>
      <point x="399.9028914788079" y="347.02568859136187"/>
    </contour>
  </outline>
</glyph>
<glyph name="three" format="2">
  <advance width="1139.05113521797"/>
  <unicode hex="0033"/>
  <outline>
    <contour>
      <point x="355.7091583659314" y="-30.03613340323426" type="curve" smooth="yes"/>
      <point x="724.0338347380732" y="-31.25805540992862"/>
      <point x="1071.392628140501" y="144.62797919103116"/>
      <point x="1070.9570915836593" y="449.0441585675687" type="curve" smooth="yes"/>
      <point x="1070.7393233052385" y="693.8589345485341"/>
      <point x="837.0922288986571" y="824.0487558978908"/>
      <point x="498.969714078316" y="765.191999032141" type="curve"/>
      <point x="763.3506069282574" y="831.2097834415453"/>
      <point x="993.7753760535549" y="970.9299108763158"/>
      <point x="993.7753760535549" y="1196.2045005444206" type="curve" smooth="yes"/>
      <point x="993.7753760535549" y="1399.69399524136"/>
      <point x="781.8755897890875" y="1503.2573295156672"/>
      <point x="546.9418478041698" y="1503.2573295156672" type="curve" smooth="yes"/>
      <point x="337.1935314755818" y="1503.2573295156672"/>
      <point x="149.9707222647901" y="1413.0694438843407"/>
      <point x="33.46356414082348" y="1311.1665927329916" type="curve"/>
      <point x="83.81977658587732" y="1242.074242851958" type="line"/>
      <point x="170.77711013429044" y="1308.7450901318707"/>
      <point x="275.03847239585434" y="1357.008428438924"/>
      <point x="395.8617171432028" y="1357.415735774489" type="curve" smooth="yes"/>
      <point x="545.3503246360447" y="1358.026696777836"/>
      <point x="648.8138081219503" y="1293.9614469492278"/>
      <point x="648.6686292696697" y="1145.6069685849097" type="curve" smooth="yes"/>
      <point x="648.5234504173891" y="1002.3725853933944"/>
      <point x="546.6103964189217" y="887.4869943944833"/>
      <point x="394.02476105980566" y="826.2638625640199" type="curve" smooth="yes"/>
      <point x="348.1965963624632" y="807.3848852683793"/>
      <point x="285.83191515102635" y="788.0397628745412"/>
      <point x="235.54296890752914" y="777.4153324998994" type="curve"/>
      <point x="255.9438641771182" y="689.9661652619268" type="line"/>
      <point x="289.14324313425016" y="698.2228495382506"/>
      <point x="363.86369318869214" y="720.2814453361294"/>
      <point x="402.11150542404323" y="729.8143727063758" type="curve"/>
      <point x="619.2629753599224" y="732.279267653345"/>
      <point x="713.190789208372" y="605.3142315602695"/>
      <point x="713.5980965439367" y="444.95947090373835" type="curve" smooth="yes"/>
      <point x="714.2090575472838" y="237.1147316207606"/>
      <point x="558.0258499011976" y="71.85252248255837"/>
      <point x="287.1319917731984" y="72.87079082147034" type="curve" smooth="yes"/>
      <point x="200.432552324878" y="73.07444448925273"/>
      <point x="127.48691373956525" y="83.56192281324353"/>
      <point x="53.77178690970684" y="109.2562406742751" type="curve"/>
      <point x="41.49961688913983" y="22.690002822922125" type="line"/>
      <point x="102.30293987175868" y="-3.2584183570593233"/>
      <point x="226.98290115739806" y="-29.832479735451876"/>
    </contour>
  </outline>
</glyph>
<glyph name="four" format="2">
  <advance width="1319.7647296043874"/>
  <unicode hex="0034"/>
  <outline>
    <contour>
      <point x="748.5021978465136" y="0.0" type="line"/>
      <point x="1055.8232850748072" y="0.0" type="line"/>
      <point x="1055.8232850748072" y="302.9974190426261" type="line"/>
      <point x="1270.202927773521" y="302.9974190426261" type="line"/>
      <point x="1269.9992741057386" y="472.95043755292977" type="line"/>
      <point x="1055.0860587974348" y="455.13804089204336" type="line"/>
      <point x="1055.2897124652172" y="868.9749969754406" type="line"/>
      <point x="769.1477598096544" y="844.0952937855386" type="line"/>
      <point x="749.746057990886" y="427.77283542363995" type="line"/>
      <point x="235.2141791345728" y="385.2122434165423" type="line"/>
      <point x="438.0834375126023" y="658.6288663951285" type="line"/>
      <point x="872.6289067225874" y="1367.3514941323547" type="line"/>
      <point x="601.494575956769" y="1496.8563535911603" type="line"/>
      <point x="519.3783522200266" y="1496.8563535911603" type="line"/>
      <point x="386.9047062144614" y="1199.0441988950276"/>
      <point x="210.09944751381218" y="753.4403355244585"/>
      <point x="34.33076581844578" y="432.6830664999798" type="curve"/>
      <point x="103.22664031939348" y="302.9974190426261" type="line"/>
      <point x="748.5021978465136" y="302.9974190426261" type="line"/>
    </contour>
  </outline>
</glyph>
<glyph name="five" format="2">
  <advance width="1182.607533169335"/>
  <unicode hex="0035"/>
  <outline>
    <contour>
      <point x="85.26277372262776" y="76.49727789651976" type="curve"/>
      <point x="86.20365366778238" y="-3.397064160987215" type="line"/>
      <point x="155.23877888454246" y="-26.741823607694478"/>
      <point x="278.1686494333992" y="-33.200588780900915"/>
      <point x="344.3891599790297" y="-31.599870952131308" type="curve" smooth="yes"/>
      <point x="774.5722466427391" y="-24.663427027462998"/>
      <point x="1111.0928338105416" y="211.43202806791143"/>
      <point x="1111.0928338105416" y="542.539621728435" type="curve" smooth="yes"/>
      <point x="1111.0928338105416" y="794.0540791224745"/>
      <point x="954.771544944953" y="935.4756220510545"/>
      <point x="661.5130459329758" y="935.4756220510545" type="curve" smooth="yes"/>
      <point x="502.21131588498605" y="935.4756220510545"/>
      <point x="297.28551840948506" y="860.6466508045329"/>
      <point x="199.2419244263419" y="771.3704480380691" type="curve"/>
      <point x="321.7702544662661" y="1245.0735169576965" type="line"/>
      <point x="1026.3397588417954" y="1245.0735169576965" type="line"/>
      <point x="1070.4029922974553" y="1522.9817316610881" type="line"/>
      <point x="967.2628140500867" y="1522.9817316610881" type="line"/>
      <point x="941.5197806186231" y="1485.7963463322176" type="line"/>
      <point x="190.3409283381054" y="1485.7963463322176" type="line"/>
      <point x="85.59253135459934" y="741.4818324797354" type="line"/>
      <point x="160.32959632213573" y="697.9855627696899" type="line"/>
      <point x="249.7636810904545" y="746.9919345082068"/>
      <point x="367.95745453078996" y="772.4602572891883"/>
      <point x="482.4400532322458" y="772.4602572891883" type="curve" smooth="yes"/>
      <point x="673.0928338105415" y="772.4602572891883"/>
      <point x="770.0647255716416" y="652.5507521071098"/>
      <point x="770.0647255716416" y="483.3680283905311" type="curve" smooth="yes"/>
      <point x="770.0647255716416" y="231.37064967536398"/>
      <point x="558.8002177682783" y="69.74658224785256"/>
      <point x="285.03750453683915" y="64.94442876154373" type="curve" smooth="yes"/>
      <point x="211.7173851675606" y="62.81013832318424"/>
      <point x="135.80158890188332" y="67.681655038916"/>
    </contour>
  </outline>
</glyph>
<glyph name="six" format="2">
  <advance width="1283.8676452796708"/>
  <unicode hex="0036"/>
  <outline>
    <contour>
      <point x="644.7306932290195" y="-33.92434568697826" type="curve" smooth="yes"/>
      <point x="978.4898173166108" y="-34.127999354760654"/>
      <point x="1226.3323385893455" y="186.86167681574383"/>
      <point x="1226.3323385893455" y="507.77711013429047" type="curve" smooth="yes"/>
      <point x="1226.3323385893455" y="798.5324031132799"/>
      <point x="1032.4509819736259" y="949.9367262168811"/>
      <point x="790.5673266927452" y="949.9367262168811" type="curve" smooth="yes"/>
      <point x="647.7222647900956" y="949.9367262168811"/>
      <point x="501.23010848086466" y="889.2833810541598"/>
      <point x="419.04081138847437" y="770.9301931685285" type="curve"/>
      <point x="466.82634996168895" y="1057.1069484211798"/>
      <point x="625.8487720288746" y="1359.4071056982698"/>
      <point x="997.9998386901641" y="1461.0762995523653" type="curve"/>
      <point x="960.5046981489696" y="1531.6122514820338" type="line"/>
      <point x="473.14417066580637" y="1481.0346009597934"/>
      <point x="67.8060652498286" y="1072.984514255757"/>
      <point x="67.8060652498286" y="590.6765334516272" type="curve" smooth="yes"/>
      <point x="67.8060652498286" y="260.77739242650324"/>
      <point x="277.17288381659074" y="-33.72069201919587"/>
    </contour>
    <contour>
      <point x="654.2793886357222" y="812.8675646247531" type="curve" smooth="yes"/>
      <point x="808.6627011332017" y="812.6639109569707"/>
      <point x="889.9459208775255" y="642.3977094003305"/>
      <point x="889.9459208775255" y="428.06666128967214" type="curve" smooth="yes"/>
      <point x="889.9459208775255" y="226.4686857281123"/>
      <point x="809.6725410331894" y="41.940033068516364"/>
      <point x="647.5202242206718" y="41.940033068516364" type="curve" smooth="yes"/>
      <point x="479.68875267169415" y="41.940033068516364"/>
      <point x="402.77799733838765" y="247.77634391257007"/>
      <point x="402.77799733838765" y="524.5230471427997" type="curve" smooth="yes"/>
      <point x="402.77799733838765" y="600.5674476751219"/>
      <point x="406.02185748275997" y="657.2510787595273"/>
      <point x="409.12598298181223" y="694.2219623341533" type="curve"/>
      <point x="449.67665443400415" y="744.8364318264306"/>
      <point x="544.2761221115459" y="813.0712182925354"/>
    </contour>
  </outline>
</glyph>
<glyph name="seven" format="2">
  <advance width="1174.6594749364842"/>
  <unicode hex="0037"/>
  <outline>
    <contour>
      <point x="663.8347380731541" y="-0.5524861878453038" type="line"/>
      <point x="1130.1157801346935" y="1432.1790942452715" type="line"/>
      <point x="1082.760091946606" y="1486.0" type="line"/>
      <point x="101.26462878574021" y="1486.0" type="line"/>
      <point x="43.59809654393677" y="1028.8248578457071" type="line"/>
      <point x="138.0494414646933" y="1010.1248538129613" type="line"/>
      <point x="224.5304673952494" y="1234.4185586966166" type="line"/>
      <point x="960.82747913054" y="1238.7385974109773" type="line"/>
      <point x="761.9948380852521" y="852.6385853127395"/>
      <point x="570.1978465136912" y="451.2305924103722"/>
      <point x="312.43392345848287" y="0.0" type="curve"/>
    </contour>
  </outline>
</glyph>
<glyph name="eight" format="2">
  <advance width="1295.2339799169256"/>
  <unicode hex="0038"/>
  <outline>
    <contour>
      <point x="62.73339516877041" y="353.34818728071946" type="curve" smooth="yes"/>
      <point x="62.73339516877041" y="96.10311731257814"/>
      <point x="345.2968504254547" y="-21.098681292091783"/>
      <point x="635.4213816187441" y="-21.098681292091783" type="curve" smooth="yes"/>
      <point x="967.2353510505302" y="-21.098681292091783"/>
      <point x="1232.500584748155" y="128.94971165866838"/>
      <point x="1232.500584748155" y="412.91224744928826" type="curve" smooth="yes"/>
      <point x="1232.500584748155" y="618.6352381336451"/>
      <point x="1071.8133241924427" y="731.7890470621446"/>
      <point x="839.3963382667258" y="837.9585433721822" type="curve"/>
      <point x="1040.1434044440857" y="906.4188409888294"/>
      <point x="1156.641488889785" y="1022.8412711215068"/>
      <point x="1156.641488889785" y="1180.1296931080374" type="curve" smooth="yes"/>
      <point x="1156.641488889785" y="1385.9132959632211"/>
      <point x="947.4438843408477" y="1505.4475138121547"/>
      <point x="672.701213856515" y="1505.4475138121547" type="curve" smooth="yes"/>
      <point x="388.4394886478203" y="1505.4475138121547"/>
      <point x="128.84445699076502" y="1370.6528612332136"/>
      <point x="128.84445699076502" y="1106.4406984715893" type="curve" smooth="yes"/>
      <point x="128.84445699076502" y="950.9194257369841"/>
      <point x="234.6246320119369" y="798.4455780941242"/>
      <point x="412.1790942452716" y="709.5560753316934" type="curve"/>
      <point x="181.71597370649673" y="654.4012985441788"/>
      <point x="62.73339516877041" y="512.7038351413478"/>
    </contour>
    <contour>
      <point x="412.3517360971086" y="1208.1036415695446" type="curve" smooth="yes"/>
      <point x="412.3517360971086" y="1352.431060208896"/>
      <point x="526.3469371294914" y="1434.149534217849"/>
      <point x="667.7223051175545" y="1434.149534217849" type="curve" smooth="yes"/>
      <point x="835.8703472194215" y="1434.149534217849"/>
      <point x="917.3730289954431" y="1316.2228092107914"/>
      <point x="917.3730289954431" y="1160.9420091140055" type="curve" smooth="yes"/>
      <point x="917.3730289954431" y="1041.4412630560148"/>
      <point x="865.939307174255" y="926.3308464733636"/>
      <point x="770.1708271161834" y="869.0758156228576" type="curve"/>
      <point x="576.834778400613" y="955.5089728596203"/>
      <point x="412.3517360971086" y="1028.9083356857684"/>
    </contour>
    <contour>
      <point x="922.065774085575" y="293.28434891317494" type="curve" smooth="yes"/>
      <point x="922.065774085575" y="141.51361051740133"/>
      <point x="796.9470500463766" y="52.641004960277435"/>
      <point x="646.9926200750091" y="52.641004960277435" type="curve" smooth="yes"/>
      <point x="442.090010888414" y="52.641004960277435"/>
      <point x="325.64044037585194" y="202.9012380529903"/>
      <point x="325.64044037585194" y="390.5932169214018" type="curve" smooth="yes"/>
      <point x="325.64044037585194" y="507.39101504214227"/>
      <point x="378.9576964955438" y="624.424164213413"/>
      <point x="480.5175222809211" y="675.8071944186795" type="curve"/>
      <point x="718.1286445941041" y="578.2430132677339"/>
      <point x="922.065774085575" y="489.49344678791795"/>
    </contour>
  </outline>
</glyph>
<glyph name="nine" format="2">
  <advance width="1276.4663064080332"/>
  <unicode hex="0039"/>
  <outline>
    <contour>
      <point x="640.7621889744728" y="1505.4475138121547" type="curve" smooth="yes"/>
      <point x="313.9743114086381" y="1505.4475138121547"/>
      <point x="57.53530669032544" y="1301.372867685607"/>
      <point x="57.53530669032544" y="974.1261442916482" type="curve" smooth="yes"/>
      <point x="57.53530669032544" y="661.394886478203"/>
      <point x="271.34484010162515" y="495.8899060370206"/>
      <point x="507.89115618824854" y="495.8899060370206" type="curve" smooth="yes"/>
      <point x="652.6781868774449" y="495.8899060370206"/>
      <point x="794.5025607936444" y="557.0506109610033"/>
      <point x="856.1587692059522" y="679.6563293946849" type="curve"/>
      <point x="808.2893091906279" y="369.8415534137194"/>
      <point x="644.4708634108965" y="95.82203492357947"/>
      <point x="292.7596080170989" y="-3.454611444932853" type="curve"/>
      <point x="328.2736621365488" y="-72.92341815542203" type="line"/>
      <point x="814.8260273420173" y="-22.51127152478123"/>
      <point x="1208.6602411582048" y="364.44715086502396"/>
      <point x="1208.6602411582048" y="876.8866798403031" type="curve" smooth="yes"/>
      <point x="1208.6602411582048" y="1269.8020325039317"/>
      <point x="966.0482316409242" y="1505.4475138121547"/>
    </contour>
    <contour>
      <point x="622.2045811993387" y="630.1380005645843" type="curve" smooth="yes"/>
      <point x="464.6385046578215" y="630.3416542323669"/>
      <point x="394.46469330967454" y="827.8524418276405"/>
      <point x="394.46469330967454" y="1038.7251280396822" type="curve" smooth="yes"/>
      <point x="394.46469330967454" y="1257.8441343710933"/>
      <point x="478.27708997056095" y="1432.2509981046094"/>
      <point x="628.1322337379522" y="1432.2509981046094" type="curve" smooth="yes"/>
      <point x="808.8508287292817" y="1432.2509981046094"/>
      <point x="873.0277452917691" y="1222.0563777876353"/>
      <point x="873.0277452917691" y="924.2646287857401" type="curve" smooth="yes"/>
      <point x="873.0277452917691" y="851.5796668951888"/>
      <point x="869.7838851473969" y="796.4758236883495"/>
      <point x="865.9425333709723" y="758.8422389805219" type="curve"/>
      <point x="814.720409726983" y="686.9459208775254"/>
      <point x="722.0250836794773" y="629.9343468968019"/>
    </contour>
  </outline>
</glyph>
<glyph name="colon" format="2">
  <advance width="599.9351131185224"/>
  <unicode hex="003A"/>
  <outline>
    <contour>
      <point x="284.3906117675525" y="748.7528330039925" type="curve" smooth="yes"/>
      <point x="391.3906520950115" y="748.7528330039925"/>
      <point x="464.7990885994273" y="806.1999435415573"/>
      <point x="464.7990885994273" y="902.5884179537848" type="curve" smooth="yes"/>
      <point x="464.7990885994273" y="974.3448401016251"/>
      <point x="414.0622252691857" y="1042.304915917248"/>
      <point x="311.7544461023511" y="1042.304915917248" type="curve" smooth="yes"/>
      <point x="212.7157317417429" y="1042.304915917248"/>
      <point x="134.9458402226076" y="979.0488365528088"/>
      <point x="134.9458402226076" y="888.0889623744806" type="curve" smooth="yes"/>
      <point x="134.9458402226076" y="806.0160906561277"/>
      <point x="202.72835423639953" y="748.7528330039925"/>
    </contour>
    <contour>
      <point x="284.3906117675525" y="-17.65745856353591" type="curve" smooth="yes"/>
      <point x="391.3906520950115" y="-17.65745856353591"/>
      <point x="464.7990885994273" y="39.78965197402912"/>
      <point x="464.7990885994273" y="136.17812638625642" type="curve" smooth="yes"/>
      <point x="464.7990885994273" y="207.93454853409688"/>
      <point x="414.0622252691857" y="275.89462434971966"/>
      <point x="311.7544461023511" y="275.89462434971966" type="curve" smooth="yes"/>
      <point x="212.7157317417429" y="275.89462434971966"/>
      <point x="134.9458402226076" y="212.63854498528048"/>
      <point x="134.9458402226076" y="121.86885510343993" type="curve" smooth="yes"/>
      <point x="134.9458402226076" y="39.60579908859943"/>
      <point x="202.72835423639953" y="-17.65745856353591"/>
    </contour>
  </outline>
</glyph>
<glyph name="semicolon" format="2">
  <advance width="561.6655643827883"/>
  <unicode hex="003B"/>
  <outline>
    <contour>
      <point x="274.4474734846957" y="748.7528330039925" type="curve" smooth="yes"/>
      <point x="381.2573295156672" y="748.7528330039925"/>
      <point x="454.8559503165706" y="806.1999435415573"/>
      <point x="454.8559503165706" y="902.5884179537848" type="curve" smooth="yes"/>
      <point x="454.8559503165706" y="974.3448401016251"/>
      <point x="404.119086986329" y="1042.304915917248"/>
      <point x="301.8113078194943" y="1042.304915917248" type="curve" smooth="yes"/>
      <point x="202.7725934588862" y="1042.304915917248"/>
      <point x="125.00270193975079" y="979.0488365528088"/>
      <point x="125.00270193975079" y="888.0889623744806" type="curve" smooth="yes"/>
      <point x="125.00270193975079" y="806.0160906561277"/>
      <point x="192.7852159535428" y="748.7528330039925"/>
    </contour>
    <contour>
      <point x="275.55607533169336" y="303.2793079808041" type="curve"/>
      <point x="265.0683550429487" y="303.2793079808041" type="line" smooth="yes"/>
      <point x="181.98721619550759" y="303.2793079808041"/>
      <point x="127.30898899060371" y="250.9858853893616"/>
      <point x="127.30898899060371" y="175.18703875468807" type="curve" smooth="yes"/>
      <point x="127.30898899060371" y="44.58015082469653"/>
      <point x="272.8767996128564" y="48.72218413517764"/>
      <point x="272.8767996128564" y="-63.01701818768399" type="curve" smooth="yes"/>
      <point x="272.8767996128564" y="-178.18804694116224"/>
      <point x="208.50506109610032" y="-304.2352703956124"/>
      <point x="129.53691978868412" y="-378.08295358309465" type="curve"/>
      <point x="129.53691978868412" y="-391.5634552566842" type="line"/>
      <point x="174.3606484655402" y="-422.64068234060574" type="line"/>
      <point x="176.15699479775782" y="-422.10710973101584" type="line"/>
      <point x="307.15695447029884" y="-352.34701778440933"/>
      <point x="461.4425535347018" y="-163.08037262572086"/>
      <point x="461.4425535347018" y="62.490220591200554" type="curve" smooth="yes"/>
      <point x="461.4425535347018" y="203.45678912771706"/>
      <point x="380.1830060087915" y="303.2793079808041"/>
    </contour>
  </outline>
</glyph>
<glyph name="less" format="2">
  <advance width="1463.4937290801306"/>
  <unicode hex="003C"/>
  <outline>
    <contour>
      <point x="1224.3944025486956" y="1067.029197080292" type="line"/>
      <point x="174.59120054845346" y="603.7043593983143" type="line"/>
      <point x="174.59120054845346" y="520.0839617695689" type="line"/>
      <point x="1224.3944025486956" y="60.97080291970803" type="line"/>
      <point x="1224.3944025486956" y="185.37597289994758" type="line"/>
      <point x="326.4019841109811" y="562.5255474452554" type="line"/>
      <point x="1224.3944025486956" y="942.4238012662822" type="line"/>
    </contour>
  </outline>
</glyph>
<glyph name="equal" format="2">
  <advance width="1304.6078557890069"/>
  <unicode hex="003D"/>
  <outline>
    <contour>
      <point x="1145.2702746299958" y="898.211436867363" type="line"/>
      <point x="159.3375811590112" y="898.211436867363" type="line"/>
      <point x="159.3375811590112" y="788.5597048030003" type="line"/>
      <point x="1145.2702746299958" y="788.5597048030003" type="line"/>
    </contour>
    <contour>
      <point x="1145.2702746299958" y="378.1943783522201" type="line"/>
      <point x="159.3375811590112" y="378.1943783522201" type="line"/>
      <point x="159.3375811590112" y="268.5426462878574" type="line"/>
      <point x="1145.2702746299958" y="268.5426462878574" type="line"/>
    </contour>
  </outline>
</glyph>
<glyph name="greater" format="2">
  <advance width="1462.9856030971491"/>
  <unicode hex="003E"/>
  <outline>
    <contour>
      <point x="1256.9136185828932" y="530.069363229423" type="line"/>
      <point x="1256.9136185828932" y="613.6897608581683" type="line"/>
      <point x="233.25547445255475" y="1077.014598540146" type="line"/>
      <point x="233.25547445255475" y="954.0099205549058" type="line"/>
      <point x="1104.5692624107755" y="572.5109489051094" type="line"/>
      <point x="233.25547445255475" y="194.29422914062187" type="line"/>
      <point x="233.25547445255475" y="70.95620437956204" type="line"/>
    </contour>
  </outline>
</glyph>
<glyph name="question" format="2">
  <advance width="955.631890954551"/>
  <unicode hex="003F"/>
  <outline>
    <contour>
      <point x="337.2464007742872" y="469.5319595112312" type="curve"/>
      <point x="431.79473323385895" y="469.5319595112312" type="line"/>
      <point x="420.0804936080978" y="560.1532443440739"/>
      <point x="413.33524216639114" y="637.3941202564827"/>
      <point x="413.33524216639114" y="716.5377666653225" type="curve" smooth="yes"/>
      <point x="412.9548735734161" y="744.2899947574303"/>
      <point x="416.8008226801629" y="781.3237488405855"/>
      <point x="426.8918417550511" y="797.9735451869177" type="curve"/>
      <point x="514.1878856313264" y="930.9184982054281"/>
      <point x="917.3794410614187" y="990.3449610840021"/>
      <point x="917.3794410614187" y="1332.4971972416017" type="curve" smooth="yes"/>
      <point x="917.3794410614187" y="1593.2487397669072"/>
      <point x="719.0848893011251" y="1784.8534903415734"/>
      <point x="359.3024156147921" y="1784.8534903415734" type="curve" smooth="yes"/>
      <point x="221.16207605758757" y="1784.8534903415734"/>
      <point x="120.63253619389444" y="1753.862846312054"/>
      <point x="71.05157882001856" y="1727.6915755938219" type="curve"/>
      <point x="97.16913336290682" y="1633.3150784369077" type="line"/>
      <point x="135.71702222042987" y="1651.3150784369077"/>
      <point x="207.97080291970804" y="1666.4768318748236"/>
      <point x="280.80654917933623" y="1666.4768318748236" type="curve" smooth="yes"/>
      <point x="514.6156793160462" y="1666.4768318748236"/>
      <point x="628.2681776021293" y="1506.9143041496957"/>
      <point x="628.2681776021293" y="1303.5279267653343" type="curve" smooth="yes"/>
      <point x="628.2681776021293" y="1143.284469895552"/>
      <point x="565.5035286526596" y="1028.5392184538453"/>
      <point x="489.10251240069357" y="990.106706456426" type="curve" smooth="yes"/>
      <point x="321.6351978061862" y="904.8391740936404"/>
      <point x="243.5672057103681" y="853.0848086462073"/>
      <point x="243.5672057103681" y="760.6645561963142" type="curve"/>
      <point x="246.0169375327661" y="675.507924345687"/>
      <point x="302.1670766624994" y="542.0678711134411"/>
    </contour>
    <contour>
      <point x="359.12541839738674" y="-17.65745856353591" type="curve" smooth="yes"/>
      <point x="466.2121627616244" y="-17.65745856353591"/>
      <point x="540.1596160825907" y="39.45428882526112"/>
      <point x="540.1596160825907" y="135.8427632374884" type="curve" smooth="yes"/>
      <point x="540.1596160825907" y="207.4090010888414"/>
      <point x="488.8837359357987" y="275.0337137556963"/>
      <point x="386.4892527321853" y="275.0337137556963" type="curve" smooth="yes"/>
      <point x="287.79937089164014" y="275.0337137556963"/>
      <point x="209.72565229664878" y="211.9678186877445"/>
      <point x="209.72565229664878" y="121.34330765818446" type="curve" smooth="yes"/>
      <point x="209.72565229664878" y="39.080251643343956"/>
      <point x="278.0021776827842" y="-17.65745856353591"/>
    </contour>
  </outline>
</glyph>
<glyph name="at" format="2">
  <advance width="2211.0785578900673"/>
  <unicode hex="0040"/>
  <outline>
    <contour>
      <point x="141.78545791829657" y="348.68201798604673" type="curve" smooth="yes"/>
      <point x="141.78545791829657" y="-192.50740008872043"/>
      <point x="495.21151752228093" y="-515.9226519337017"/>
      <point x="966.5544219058758" y="-515.9226519337017" type="curve" smooth="yes"/>
      <point x="1166.0239141831676" y="-515.9226519337017"/>
      <point x="1367.18111061822" y="-458.5414364640884"/>
      <point x="1477.2474089607615" y="-368.8563535911602" type="curve"/>
      <point x="1451.2427309755215" y="-311.2115981771988" type="line"/>
      <point x="1341.8160261321937" y="-382.26208815582527"/>
      <point x="1176.6699197483565" y="-423.4925999112796"/>
      <point x="1025.8046537887649" y="-423.4925999112796" type="curve" smooth="yes"/>
      <point x="617.7268621204178" y="-423.4925999112796"/>
      <point x="305.489656006775" y="-120.10884381175143"/>
      <point x="305.489656006775" y="388.1160220994475" type="curve" smooth="yes"/>
      <point x="305.489656006775" y="966.365931362665"/>
      <point x="695.5022785014316" y="1425.2368028390529"/>
      <point x="1234.2230108480867" y="1425.2368028390529" type="curve" smooth="yes"/>
      <point x="1598.9974593700852" y="1425.2368028390529"/>
      <point x="1946.29664878816" y="1205.9056740734768"/>
      <point x="1946.29664878816" y="738.756906077348" type="curve" smooth="yes"/>
      <point x="1946.29664878816" y="350.21643747227483"/>
      <point x="1704.7529943138281" y="119.87317014154938"/>
      <point x="1559.1351776424572" y="119.87317014154938" type="curve" smooth="yes"/>
      <point x="1516.082590635964" y="119.87317014154938"/>
      <point x="1497.388595394604" y="162.13445174819535"/>
      <point x="1502.8904706214462" y="292.95628503447995" type="curve" smooth="yes"/>
      <point x="1508.9044239222487" y="513.085211920797"/>
      <point x="1571.7083921442113" y="816.3882324474736"/>
      <point x="1608.5525265153042" y="951.1669153526636" type="curve"/>
      <point x="1486.5826107996934" y="989.557688430052"/>
      <point x="1453.2460781546156" y="1000.3802879380569"/>
      <point x="1432.8533693591967" y="1001.6350364963503" type="curve" smooth="yes"/>
      <point x="1407.263015687381" y="1003.4146872605558"/>
      <point x="1390.155139734645" y="995.7626325765214"/>
      <point x="1374.4832036133407" y="954.575916441505" type="curve"/>
      <point x="1304.09718917611" y="987.5550671452193"/>
      <point x="1222.1236439891925" y="1004.4294471105376"/>
      <point x="1149.633060450861" y="1004.4294471105376" type="curve" smooth="yes"/>
      <point x="814.0841230794047" y="1004.4294471105376"/>
      <point x="595.6284227930797" y="675.8237690043151"/>
      <point x="595.6284227930797" y="366.26281405008666" type="curve" smooth="yes"/>
      <point x="595.6284227930797" y="122.90789208371979"/>
      <point x="733.9520506512885" y="-17.259507198451427"/>
      <point x="889.9945154655804" y="-17.259507198451427" type="curve" smooth="yes"/>
      <point x="1070.727910634351" y="-17.259507198451427"/>
      <point x="1204.545751502198" y="178.14598540145985"/>
      <point x="1290.3236681856677" y="435.1843368149373" type="curve"/>
      <point x="1267.1880872686213" y="293.6935919667702"/>
      <point x="1255.8107835625276" y="198.27333951687706"/>
      <point x="1258.7523087470256" y="146.3214098479655" type="curve" smooth="yes"/>
      <point x="1265.2999959672538" y="35.2963664959471"/>
      <point x="1341.3712142597897" y="-6.862765657135945"/>
      <point x="1434.4247691252974" y="-6.862765657135945" type="curve" smooth="yes"/>
      <point x="1683.9628987377505" y="-6.862765657135945"/>
      <point x="2083.9764487639636" y="281.81235633342743"/>
      <point x="2083.9764487639636" y="795.4121466306408" type="curve" smooth="yes"/>
      <point x="2083.9764487639636" y="1240.531031979675"/>
      <point x="1784.750735976126" y="1530.50429487438"/>
      <point x="1308.193370165746" y="1530.50429487438" type="curve" smooth="yes"/>
      <point x="690.2679759648346" y="1530.50429487438"/>
      <point x="141.78545791829657" y="1036.6161229180948"/>
    </contour>
    <contour>
      <point x="867.9997580352463" y="445.74170262531754" type="curve" smooth="yes"/>
      <point x="867.9997580352463" y="705.9389038996652"/>
      <point x="986.9647941283221" y="922.3857724724766"/>
      <point x="1140.5725692624105" y="922.3857724724766" type="curve" smooth="yes"/>
      <point x="1200.0252046618543" y="922.3857724724766"/>
      <point x="1281.820341170303" y="884.4377948945436"/>
      <point x="1330.2703956123726" y="839.1744565874905" type="curve"/>
      <point x="1325.1442916481833" y="779.9680606524984"/>
      <point x="1296.32201475985" y="661.0177037544864"/>
      <point x="1271.1241682461587" y="582.3408073557285" type="curve" smooth="yes"/>
      <point x="1192.8330846473361" y="341.34395289752797"/>
      <point x="1081.397467435577" y="169.76759285397426"/>
      <point x="988.8013872645885" y="169.76759285397426" type="curve" smooth="yes"/>
      <point x="908.2643868209865" y="169.76759285397426"/>
      <point x="867.9997580352463" y="300.3600435536556"/>
    </contour>
  </outline>
</glyph>
<glyph name="A" format="2">
  <advance width="1379.969391458644"/>
  <unicode hex="0041"/>
  <anchor x="642.3496793967013" y="0.0" name="bottom"/>
  <anchor x="1255.1346130580312" y="20.0" name="ogonek"/>
  <anchor x="691.1261039641893" y="1486.0" name="top"/>
  <outline>
    <contour>
      <point x="20.82586603218131" y="88.89970560954951" type="line"/>
      <point x="-113.11198935355083" y="58.954308988990604" type="line"/>
      <point x="-112.73162076057588" y="0.0" type="line"/>
      <point x="340.5481711497358" y="0.0" type="line"/>
      <point x="340.5481711497358" y="58.954308988990604" type="line"/>
      <point x="161.0103641569545" y="88.69145461144493" type="line"/>
      <point x="272.7440012904787" y="430.9697544057749" type="line"/>
      <point x="839.8253014477558" y="430.9697544057749" type="line"/>
      <point x="956.6153970238335" y="88.70952131306206" type="line"/>
      <point x="800.5641811509458" y="58.954308988990604" type="line"/>
      <point x="800.5641811509458" y="0.0" type="line"/>
      <point x="1446.839779005525" y="0.0" type="line"/>
      <point x="1446.839779005525" y="58.954308988990604" type="line"/>
      <point x="1322.4193249183368" y="87.10880348429245" type="line"/>
      <point x="837.6844376335847" y="1491.7322659999195" type="line"/>
      <point x="545.05347421059" y="1491.7322659999195" type="line"/>
    </contour>
    <contour>
      <point x="811.3589950397225" y="515.2070411743355" type="line"/>
      <point x="300.36831068274387" y="515.2070411743355" type="line"/>
      <point x="521.6727829979434" y="1145.2631769972172" type="line"/>
      <point x="566.521272734605" y="1274.7775537363389" type="line"/>
      <point x="608.553978303827" y="1145.8888978505463" type="line"/>
    </contour>
  </outline>
</glyph>
<glyph name="B" format="2">
  <advance width="1401.7848126789531"/>
  <unicode hex="0042"/>
  <anchor x="692.9373714562244" y="0.0" name="bottom"/>
  <anchor x="692.9373714562244" y="1486.0" name="top"/>
  <outline>
    <contour>
      <point x="168.44815905149818" y="88.89970560954953" type="line"/>
      <point x="29.813929104327137" y="58.95430898899061" type="line"/>
      <point x="29.813929104327137" y="0.0" type="line"/>
      <point x="324.1719159575755" y="0.0" type="line" smooth="yes"/>
      <point x="475.4810259305561" y="0.0"/>
      <point x="544.2869298705488" y="-12.0"/>
      <point x="694.6256401984111" y="-12.0" type="curve" smooth="yes"/>
      <point x="1206.3720611364276" y="-12.0"/>
      <point x="1373.8483687542848" y="197.35117151268298"/>
      <point x="1373.0337540831551" y="445.97608581683266" type="curve" smooth="yes"/>
      <point x="1372.4227930798081" y="661.0917046416905"/>
      <point x="1195.7570673871837" y="792.728918820825"/>
      <point x="938.0288744606203" y="791.4109771343309" type="curve"/>
      <point x="1125.8531677219019" y="821.2594668709925"/>
      <point x="1262.4163406863734" y="963.625882163165"/>
      <point x="1261.6017260152437" y="1161.3764165019961" type="curve" smooth="yes"/>
      <point x="1260.5834576763316" y="1370.9471710287535"/>
      <point x="1113.9117635197808" y="1500.5524861878453"/>
      <point x="682.1508246965358" y="1500.5524861878453" type="curve" smooth="yes"/>
      <point x="570.7440012904786" y="1500.5524861878453"/>
      <point x="465.41682461588096" y="1486.0"/>
      <point x="324.5539783038271" y="1486.0" type="curve" smooth="yes"/>
      <point x="31.565269992337782" y="1486.0" type="line"/>
      <point x="31.565269992337782" y="1426.5913618582892" type="line"/>
      <point x="168.44815905149818" y="1393.2838649836676" type="line"/>
    </contour>
    <contour>
      <point x="490.8471186030568" y="812.1860708956729" type="curve"/>
      <point x="491.0507722708392" y="1412.4116627011333" type="line"/>
      <point x="534.7869903617373" y="1416.9359196677017"/>
      <point x="590.428882526112" y="1424.6422551115056"/>
      <point x="659.5816026132195" y="1424.6422551115056" type="curve" smooth="yes"/>
      <point x="854.6265274025084" y="1424.6422551115056"/>
      <point x="929.3312900754122" y="1328.788321167883"/>
      <point x="930.3495584143242" y="1137.9204339234582" type="curve" smooth="yes"/>
      <point x="931.5714804210186" y="947.1064644916723"/>
      <point x="861.3293543573818" y="807.6714118643384"/>
      <point x="678.924708634109" y="807.6714118643384" type="curve" smooth="yes"/>
      <point x="621.5485744243256" y="807.6714118643384"/>
      <point x="539.1126345928943" y="808.1860708956727"/>
    </contour>
    <contour>
      <point x="490.6434649352744" y="85.51252167600917" type="curve"/>
      <point x="490.8471186030568" y="718.3739968544583" type="line"/>
      <point x="536.629511634472" y="721.1301367100859"/>
      <point x="630.7210549663264" y="723.8295358309473"/>
      <point x="703.4381981691332" y="723.8295358309473" type="curve" smooth="yes"/>
      <point x="918.9959269266444" y="723.8295358309473"/>
      <point x="1011.0339960479091" y="634.3588740573457"/>
      <point x="1012.052264386821" y="420.44803806912125" type="curve" smooth="yes"/>
      <point x="1013.0705327257328" y="209.93555672057107"/>
      <point x="924.5490986812921" y="66.40883977900553"/>
      <point x="677.1659878211074" y="66.40883977900553" type="curve" smooth="yes"/>
      <point x="606.4004113400815" y="66.40883977900553"/>
      <point x="539.7465015929347" y="69.22647900955761"/>
    </contour>
  </outline>
</glyph>
<glyph name="C" format="2">
  <advance width="1351.4929225309515"/>
  <unicode hex="0043"/>
  <anchor x="739.2543049562447" y="0.0" name="bottom"/>
  <anchor x="744.9598338508691" y="1486.0" name="top"/>
  <outline>
    <contour>
      <point x="761.7533975884179" y="-22.65983788361495" type="curve" smooth="yes"/>
      <point x="1065.7608984957856" y="-22.65983788361495"/>
      <point x="1133.0242368028391" y="50.80300036294713"/>
      <point x="1245.0542404323105" y="54.0" type="curve"/>
      <point x="1287.050933580675" y="415.05557123845625" type="line"/>
      <point x="1130.413114489656" y="427.96306004758645" type="line"/>
      <point x="1044.5002218010243" y="173.86506432229706" type="line"/>
      <point x="1011.930717425495" y="114.99943541557445"/>
      <point x="914.0980763802073" y="53.3352421663911"/>
      <point x="780.9402750332702" y="53.3352421663911" type="curve" smooth="yes"/>
      <point x="513.603863370569" y="53.3352421663911"/>
      <point x="392.24994959067635" y="346.1459854014598"/>
      <point x="392.24994959067635" y="746.6777432753962" type="curve" smooth="yes"/>
      <point x="392.24994959067635" y="1204.4144856232606"/>
      <point x="547.8816389079324" y="1431.6552405532927"/>
      <point x="796.9762067992095" y="1431.6552405532927" type="curve" smooth="yes"/>
      <point x="904.1750211719159" y="1431.6552405532927"/>
      <point x="990.6443521393719" y="1380.041335645441"/>
      <point x="1026.6073718594992" y="1332.3775456708472" type="curve"/>
      <point x="1084.9932249868937" y="1037.135016332621" type="line"/>
      <point x="1257.5903536718151" y="1037.135016332621" type="line"/>
      <point x="1295.0441988950276" y="1443.0979957252894" type="line"/>
      <point x="1148.9229342259146" y="1443.858732911239"/>
      <point x="1096.2305924103723" y="1506.4957454530793"/>
      <point x="794.91373956527" y="1506.4957454530793" type="curve" smooth="yes"/>
      <point x="319.2311973222567" y="1506.4957454530793"/>
      <point x="24.50199620921886" y="1186.8890591603824"/>
      <point x="24.50199620921886" y="726.5222405936202" type="curve" smooth="yes"/>
      <point x="24.50199620921886" y="273.43710932774127"/>
      <point x="283.0375045368391" y="-22.65983788361495"/>
    </contour>
  </outline>
</glyph>
<glyph name="D" format="2">
  <advance width="1499.2278501431622"/>
  <unicode hex="0044"/>
  <anchor x="717.797072226479" y="0.0" name="bottom"/>
  <anchor x="810.4815905149817" y="763.5926926644353" name="center"/>
  <anchor x="336.1269911682865" y="763.0" name="lstem"/>
  <anchor x="717.797072226479" y="1486.0" name="top"/>
  <outline>
    <contour>
      <point x="169.38968423599627" y="90.50042343831915" type="line"/>
      <point x="29.813929104327137" y="58.954308988990604" type="line"/>
      <point x="29.813929104327137" y="0.0" type="line"/>
      <point x="303.3515747872727" y="0.0" type="line" smooth="yes"/>
      <point x="380.6074525144171" y="0.0"/>
      <point x="577.6518530467395" y="-14.610961003347178"/>
      <point x="703.081421139654" y="-16.203653667782394" type="curve" smooth="yes"/>
      <point x="1151.0712586199945" y="-23.02738234463847"/>
      <point x="1468.064362624511" y="305.8297777957011"/>
      <point x="1468.064362624511" y="792.4553373391943" type="curve" smooth="yes"/>
      <point x="1468.064362624511" y="1231.4871557043186"/>
      <point x="1220.789692301488" y="1498.810460942856"/>
      <point x="728.9354357381942" y="1498.810460942856" type="curve" smooth="yes"/>
      <point x="590.0538774851797" y="1498.810460942856"/>
      <point x="421.37585191757074" y="1486.0"/>
      <point x="295.82566439488653" y="1486.0" type="curve" smooth="yes"/>
      <point x="32.76698794208977" y="1486.0" type="line"/>
      <point x="32.76698794208977" y="1426.7815461547768" type="line"/>
      <point x="169.38968423599627" y="1393.4740492801545" type="line"/>
    </contour>
    <contour>
      <point x="498.85425656329386" y="86.78949066419322" type="curve"/>
      <point x="498.85425656329403" y="1403.9262410775498" type="line"/>
      <point x="523.2045005444206" y="1408.0605315159094"/>
      <point x="594.0010888413922" y="1424.8099366858894"/>
      <point x="692.0231076339879" y="1424.8099366858894" type="curve" smooth="yes"/>
      <point x="988.3843610114126" y="1424.8099366858894"/>
      <point x="1117.8338911965157" y="1174.0454087187968"/>
      <point x="1117.8338911965157" y="748.8305036899625" type="curve" smooth="yes"/>
      <point x="1117.8338911965157" y="278.3320159696738"/>
      <point x="961.9449126910512" y="58.83994031536073"/>
      <point x="708.7219018429649" y="56.94886478203009" type="curve" smooth="yes"/>
      <point x="629.5374440456507" y="56.34270274629996"/>
      <point x="547.3761745372424" y="69.89361616324554"/>
    </contour>
  </outline>
</glyph>
<glyph name="E" format="2">
  <advance width="1325.916320522644"/>
  <unicode hex="0045"/>
  <anchor x="650.7978384481995" y="-4.440892098500626e-16" name="bottom"/>
  <anchor x="1118.3721014638868" y="20.0" name="ogonek"/>
  <anchor x="679.9608823648022" y="1486.0" name="top"/>
  <anchor x="17.10710973101585" y="1486.0" name="topleft"/>
  <outline>
    <contour>
      <point x="172.93833931523972" y="89.24309392265192" type="line"/>
      <point x="29.813929104327137" y="58.42073637940074" type="line"/>
      <point x="29.813929104327137" y="0.0" type="line"/>
      <point x="1235.1942573698432" y="0.0" type="line"/>
      <point x="1303.3613340323425" y="390.0471024720732" type="line"/>
      <point x="1158.327015364762" y="427.58422389805224" type="line"/>
      <point x="1024.6766544340041" y="123.1099729806025" type="line"/>
      <point x="497.258740976731" y="74.90571440093561" type="line"/>
      <point x="497.258740976731" y="726.4296084203735" type="line"/>
      <point x="802.1587692059524" y="717.4387224261001" type="line"/>
      <point x="877.7087147638828" y="493.2282937452111" type="line"/>
      <point x="954.3681493729077" y="493.2282937452111" type="line"/>
      <point x="954.3681493729077" y="1020.6157599709643" type="line"/>
      <point x="877.7087147638828" y="1020.6157599709643" type="line"/>
      <point x="801.7784006129773" y="808.8632495866434" type="line"/>
      <point x="497.258740976731" y="799.6047909021252" type="line"/>
      <point x="497.258740976731" y="1412.8838972456344" type="line"/>
      <point x="973.7548090494817" y="1384.3639149897165" type="line"/>
      <point x="1079.0122192200674" y="1138.6268903496393" type="line"/>
      <point x="1210.2855587369438" y="1138.6268903496393" type="line"/>
      <point x="1182.11279590273" y="1486.0" type="line"/>
      <point x="30.986691938540943" y="1486.0" type="line"/>
      <point x="30.986691938540943" y="1426.7815461547766" type="line"/>
      <point x="172.93833931523972" y="1393.4740492801552" type="line"/>
    </contour>
  </outline>
</glyph>
<glyph name="F" format="2">
  <advance width="1241.9363632697502"/>
  <unicode hex="0046"/>
  <anchor x="583.0043956930275" y="0.0" name="bottom"/>
  <anchor x="632.1480421018671" y="1486.0" name="top"/>
  <outline>
    <contour>
      <point x="172.79316046295924" y="88.89970560954953" type="line"/>
      <point x="30.685002218010236" y="58.954308988990604" type="line"/>
      <point x="30.685002218010236" y="0.0" type="line"/>
      <point x="712.2084526353996" y="0.0" type="line"/>
      <point x="712.2084526353996" y="58.954308988990604" type="line"/>
      <point x="489.905270798887" y="88.89970560954953" type="line"/>
      <point x="489.905270798887" y="701.0707343630278" type="line"/>
      <point x="815.0248820421824" y="692.5860386337057" type="line"/>
      <point x="886.8427632374885" y="466.6639512844296" type="line"/>
      <point x="961.8958341734885" y="466.6639512844296" type="line"/>
      <point x="961.8958341734885" y="1000.1373149977821" type="line"/>
      <point x="887.1861515505907" y="1000.1373149977821" type="line"/>
      <point x="815.0248820421825" y="785.6322135742228" type="line"/>
      <point x="489.905270798887" y="777.0621042868089" type="line"/>
      <point x="489.905270798887" y="1411.4094446908903" type="line"/>
      <point x="963.4755010686777" y="1383.9465661168688" type="line"/>
      <point x="1072.7474291244907" y="1115.021978465137" type="line"/>
      <point x="1200.452353107231" y="1115.021978465137" type="line"/>
      <point x="1172.5129652780577" y="1486.0" type="line"/>
      <point x="30.551155381699406" y="1486.0" type="line"/>
      <point x="30.551155381699406" y="1426.7815461547768" type="line"/>
      <point x="172.79316046295924" y="1393.4740492801548" type="line"/>
    </contour>
  </outline>
</glyph>
<glyph name="G" format="2">
  <advance width="1462.195870468202"/>
  <unicode hex="0047"/>
  <anchor x="720.8325603903698" y="0.0" name="bottom"/>
  <anchor x="1231.1445160704925" y="349.0" name="rstem"/>
  <anchor x="780.8325603903697" y="1486.0" name="top"/>
  <outline>
    <contour>
      <point x="756.234625156269" y="-21.592692664435212" type="curve" smooth="yes"/>
      <point x="1086.6391095697059" y="-21.592692664435212"/>
      <point x="1200.3112070008467" y="78.13429043835949"/>
      <point x="1351.7103278622415" y="80.0" type="curve"/>
      <point x="1351.7103278622415" y="626.9769326934709" type="line"/>
      <point x="1442.7874742912447" y="646.610033471791" type="line"/>
      <point x="1442.7874742912447" y="722.8005807154091" type="line"/>
      <point x="844.4867927571885" y="722.8005807154091" type="line"/>
      <point x="844.4867927571885" y="646.610033471791" type="line"/>
      <point x="1049.0408113884741" y="626.0260112110336" type="line"/>
      <point x="1049.0408113884741" y="169.86320925918454" type="line"/>
      <point x="1009.8538936161631" y="97.58632092591849"/>
      <point x="892.1428398596604" y="52.92728959148284"/>
      <point x="787.8161471145704" y="52.92728959148284" type="curve" smooth="yes"/>
      <point x="503.6324958664354" y="52.92728959148284"/>
      <point x="389.5093358067509" y="390.246602411582"/>
      <point x="390.57648102593066" y="757.4454974392064" type="curve" smooth="yes"/>
      <point x="391.64362624511034" y="1211.152115175223"/>
      <point x="546.2335363148767" y="1433.255958382062"/>
      <point x="793.692624107755" y="1433.255958382062" type="curve" smooth="yes"/>
      <point x="965.0214138807114" y="1433.255958382062"/>
      <point x="1037.6340283098762" y="1380.193410493205"/>
      <point x="1051.6120901721981" y="1334.8740170181877" type="curve"/>
      <point x="1103.7517038351416" y="1043.6860104044845" type="line"/>
      <point x="1308.3050772270842" y="1043.6860104044845" type="line"/>
      <point x="1346.088841392104" y="1441.6376981086419" type="line"/>
      <point x="1191.1957494858245" y="1445.842077670686"/>
      <point x="1113.6025325644232" y="1507.9062789853613"/>
      <point x="808.091059402347" y="1507.9062789853613" type="curve" smooth="yes"/>
      <point x="341.1342501109004" y="1507.9062789853613"/>
      <point x="30.473444368270346" y="1210.6047102472073"/>
      <point x="30.473444368270346" y="730.041295317982" type="curve" smooth="yes"/>
      <point x="30.473444368270346" y="300.2011936927854"/>
      <point x="281.671976448764" y="-21.592692664435212"/>
    </contour>
  </outline>
</glyph>
<glyph name="H" format="2">
  <advance width="1619.0427067790458"/>
  <unicode hex="0048"/>
  <anchor x="762.6212848328425" y="0.0" name="bottom"/>
  <anchor x="1600.9255151832883" y="0.0" name="bottomright"/>
  <anchor x="761.3625841835704" y="743.0" name="center"/>
  <anchor x="810.3359680606525" y="1486.0" name="top"/>
  <anchor x="0.5973303222163864" y="1486.0" name="topleft"/>
  <outline>
    <contour>
      <point x="167.47904988506673" y="88.70952131306206" type="line"/>
      <point x="29.813929104327137" y="58.42073637940074" type="line"/>
      <point x="29.813929104327137" y="0.0" type="line"/>
      <point x="643.7099649151106" y="0.0" type="line"/>
      <point x="643.7099649151106" y="58.42073637940074" type="line"/>
      <point x="495.3824252933822" y="88.70952131306206" type="line"/>
      <point x="495.3824252933822" y="718.9919748356655" type="line"/>
      <point x="1124.1260636367306" y="718.9919748356655" type="line"/>
      <point x="1124.1260636367306" y="88.89970560954953" type="line"/>
      <point x="979.338065088519" y="58.42073637940074" type="line"/>
      <point x="979.338065088519" y="0.0" type="line"/>
      <point x="1589.839738678066" y="0.0" type="line"/>
      <point x="1589.839738678066" y="58.42073637940074" type="line"/>
      <point x="1452.1746178973265" y="88.70952131306206" type="line"/>
      <point x="1452.1746178973265" y="1393.6642335766421" type="line"/>
      <point x="1587.6078557890064" y="1426.7815461547766" type="line"/>
      <point x="1587.6078557890064" y="1486.0" type="line"/>
      <point x="979.3380650885189" y="1486.0" type="line"/>
      <point x="979.3380650885189" y="1426.7815461547766" type="line"/>
      <point x="1124.1260636367306" y="1392.9404766705647" type="line"/>
      <point x="1124.1260636367306" y="806.6699197483566" type="line"/>
      <point x="495.3824252933822" y="806.6699197483566" type="line"/>
      <point x="495.3824252933822" y="1393.6642335766421" type="line"/>
      <point x="642.9862080090334" y="1426.7815461547766" type="line"/>
      <point x="642.9862080090334" y="1486.0" type="line"/>
      <point x="31.176876235028445" y="1486.0" type="line"/>
      <point x="31.176876235028445" y="1426.7815461547766" type="line"/>
      <point x="167.47904988506673" y="1393.6642335766421" type="line"/>
    </contour>
  </outline>
</glyph>
<glyph name="I" format="2">
  <advance width="695.9737064967536"/>
  <unicode hex="0049"/>
  <anchor x="345.8382868895431" y="-76.30088317135136" name="bottom"/>
  <anchor x="436.89946364479573" y="20.0" name="ogonek"/>
  <anchor x="345.4798564342461" y="1485.3890389966527" name="top"/>
  <anchor x="2.5304270677904626" y="1486.0" name="topleft"/>
  <outline>
    <contour>
      <point x="182.41997015768038" y="88.89970560954953" type="line"/>
      <point x="37.32306327378313" y="59.48788159858048" type="line"/>
      <point x="37.32306327378313" y="0.0" type="line"/>
      <point x="659.0310118159455" y="0.0" type="line"/>
      <point x="659.0310118159455" y="58.42876154373513" type="line"/>
      <point x="511.07468645400655" y="88.70952131306206" type="line"/>
      <point x="511.07468645400655" y="1393.4740492801552" type="line"/>
      <point x="658.4974392063557" y="1426.7815461547766" type="line"/>
      <point x="658.4974392063557" y="1486.0" type="line"/>
      <point x="37.679920958180425" y="1486.0" type="line"/>
      <point x="37.679920958180425" y="1426.7815461547766" type="line"/>
      <point x="182.41997015768038" y="1393.4740492801552" type="line"/>
    </contour>
  </outline>
</glyph>
<glyph name="J" format="2">
  <advance width="695.9737064967536"/>
  <unicode hex="004A"/>
  <anchor x="344.3405653909747" y="1486.0" name="top"/>
  <outline>
    <contour>
      <point x="-65.66516110819856" y="-308.80816227769486" type="curve"/>
      <point x="-21.79195063919023" y="-375.6740331491713" type="line"/>
      <point x="227.68701859095862" y="-342.2687825140138"/>
      <point x="421.9092632173247" y="-187.3085050610961"/>
      <point x="479.41521151752227" y="31.7765455498649" type="curve" smooth="yes"/>
      <point x="505.3962979392668" y="133.34008146146712"/>
      <point x="510.7198451425575" y="307.3055611565916"/>
      <point x="510.7198451425575" y="534.9296285841029" type="curve" smooth="yes"/>
      <point x="510.7198451425575" y="1393.5190547243617" type="line"/>
      <point x="654.4668709924588" y="1426.7815461547768" type="line"/>
      <point x="654.4668709924588" y="1486.0" type="line"/>
      <point x="34.98717586804857" y="1486.0" type="line"/>
      <point x="34.98717586804857" y="1426.7815461547768" type="line"/>
      <point x="185.03274589668104" y="1393.1386861313867" type="line"/>
      <point x="185.03274589668104" y="382.10549663265715" type="line" smooth="yes"/>
      <point x="185.03274589668104" y="147.07234746138647"/>
      <point x="173.0714199298302" y="29.313989595515586"/>
      <point x="144.8071540912207" y="-60.07827559785458" type="curve" smooth="yes"/>
      <point x="99.27922732588618" y="-203.03593176593944"/>
      <point x="37.44235189740695" y="-270.40529096261645"/>
    </contour>
  </outline>
</glyph>
<glyph name="K" format="2">
  <advance width="1430.6324555389763"/>
  <unicode hex="004B"/>
  <anchor x="811.6784691696578" y="0.0" name="bottom"/>
  <anchor x="791.8497398878897" y="1483.828729281768" name="top"/>
  <outline>
    <contour>
      <point x="1052.6445941041256" y="0.0" type="curve"/>
      <point x="1456.1119490260915" y="0.5335726095898697" type="line"/>
      <point x="1456.1119490260915" y="59.152518449812476" type="line"/>
      <point x="1381.1588901883292" y="85.85691817558578" type="line"/>
      <point x="1273.2351090857762" y="162.03968221962333"/>
      <point x="952.4431987740451" y="875.7919103117314"/>
      <point x="818.1944186796788" y="965.188490543211" type="curve"/>
      <point x="755.4486026535469" y="827.3271363471388" type="line"/>
      <point x="1215.383957736823" y="1392.4708230834374" type="line"/>
      <point x="1378.946203169738" y="1425.3710126224946" type="line"/>
      <point x="1378.946203169738" y="1486.5335726095898" type="line"/>
      <point x="909.8705085292576" y="1486.0" type="line"/>
      <point x="909.8705085292576" y="1426.247973545187" type="line"/>
      <point x="1077.56168084849" y="1393.474049280155" type="line"/>
      <point x="423.74900189539056" y="545.7859418478042" type="line"/>
      <point x="498.5953946041859" y="590.5084082751946" type="line"/>
      <point x="498.5953946041859" y="1393.474049280155" type="line"/>
      <point x="647.7196838327218" y="1426.7815461547768" type="line"/>
      <point x="647.7196838327218" y="1486.0" type="line"/>
      <point x="31.0316973827479" y="1486.0" type="line"/>
      <point x="31.0316973827479" y="1426.7815461547768" type="line"/>
      <point x="171.5979352341009" y="1393.474049280155" type="line"/>
      <point x="171.5979352341009" y="88.36613299995966" type="line"/>
      <point x="29.813929104327137" y="58.95430898899062" type="line"/>
      <point x="29.813929104327137" y="0.0" type="line"/>
      <point x="652.3044319877406" y="0.0" type="line"/>
      <point x="652.3044319877406" y="58.61894584022261" type="line"/>
      <point x="498.5953946041859" y="88.17594870347219" type="line"/>
      <point x="498.5953946041859" y="576.8588135661572" type="line"/>
      <point x="424.1747792071622" y="424.5130056055168" type="line"/>
      <point x="723.0763398798243" y="788.5853933943623" type="line"/>
      <point x="625.6364882848732" y="720.1584869137397" type="line"/>
      <point x="734.9638262693068" y="627.4579182965682"/>
      <point x="969.6236641529217" y="0.0"/>
    </contour>
  </outline>
</glyph>
<glyph name="L" format="2">
  <advance width="1261.6679840303261"/>
  <unicode hex="004C"/>
  <anchor x="662.5923297173044" y="0.0" name="bottom"/>
  <anchor x="637.9739081340482" y="744.0" name="center"/>
  <anchor x="394.7529136589104" y="1486.0" name="top"/>
  <anchor x="933.9196273742791" y="1110.7237569060774" name="topright"/>
  <outline>
    <contour>
      <point x="169.8205024801387" y="89.24309392265192" type="line"/>
      <point x="29.813929104327137" y="58.420736379400736" type="line"/>
      <point x="29.813929104327137" y="0.0" type="line"/>
      <point x="1172.7750534338832" y="0.0" type="line"/>
      <point x="1247.234665483728" y="445.3729080130661" type="line"/>
      <point x="1107.3482679356373" y="474.63297979594313" type="line"/>
      <point x="962.4377142396258" y="127.41222728555873" type="line"/>
      <point x="496.7640843650442" y="81.52901560672662" type="line"/>
      <point x="496.96773803282656" y="1397.742630156874" type="line"/>
      <point x="676.2113158849861" y="1426.7815461547768" type="line"/>
      <point x="676.2113158849861" y="1486.0" type="line"/>
      <point x="31.221881679235388" y="1486.0" type="line"/>
      <point x="31.221881679235388" y="1426.7815461547768" type="line"/>
      <point x="169.8205024801387" y="1393.474049280155" type="line"/>
    </contour>
  </outline>
</glyph>
<glyph name="M" format="2">
  <advance width="1976.233455659959"/>
  <unicode hex="004D"/>
  <anchor x="934.2633383070536" y="0.0" name="bottom"/>
  <anchor x="2018.0808162277694" y="0.0" name="bottomright"/>
  <anchor x="987.6552808807519" y="1485.7822317215794" name="top"/>
  <outline>
    <contour>
      <point x="127.68750252046618" y="86.75037302899544" type="line"/>
      <point x="-35.30108480864621" y="57.88716376981087" type="line"/>
      <point x="-35.30108480864621" y="0.0" type="line"/>
      <point x="443.6260838004597" y="0.0" type="line"/>
      <point x="443.6260838004597" y="57.88716376981087" type="line"/>
      <point x="256.33076581844574" y="86.94055732548291" type="line"/>
      <point x="368.8746219300721" y="1032.0071782876962" type="line"/>
      <point x="407.84615074404155" y="1377.9824172278904" type="line"/>
      <point x="501.7346453199984" y="1034.3627454934065" type="line"/>
      <point x="761.3735935798685" y="61.14364640883978" type="line"/>
      <point x="1037.9514860668628" y="61.14364640883978" type="line"/>
      <point x="1299.523773037061" y="1051.9818526434651" type="line"/>
      <point x="1378.381901036416" y="1377.7922329314029" type="line"/>
      <point x="1417.1136831068272" y="1030.9400330685164" type="line"/>
      <point x="1515.979110376255" y="87.47412993507278" type="line"/>
      <point x="1349.3652457958622" y="58.954308988990604" type="line"/>
      <point x="1349.3652457958622" y="0.0" type="line"/>
      <point x="2011.534540468605" y="0.0" type="line"/>
      <point x="2011.534540468605" y="57.88716376981087" type="line"/>
      <point x="1853.6917369036578" y="88.21680041940557" type="line"/>
      <point x="1689.6137435980158" y="1393.193007218615" type="line"/>
      <point x="1876.093438722426" y="1427.518772432149" type="line"/>
      <point x="1876.093438722426" y="1486.0" type="line"/>
      <point x="1298.6956889946364" y="1486.0" type="line"/>
      <point x="1061.234383191515" y="556.1359841916361" type="line"/>
      <point x="1003.5936201959914" y="293.12376497156913" type="line"/>
      <point x="943.9501955881759" y="554.0016937532766" type="line"/>
      <point x="715.1401379199098" y="1486.0" type="line"/>
      <point x="130.40133887163768" y="1486.0" type="line"/>
      <point x="130.40133887163768" y="1427.518772432149" type="line"/>
      <point x="315.5756744767512" y="1393.193007218615" type="line"/>
    </contour>
  </outline>
</glyph>
<glyph name="N" format="2">
  <advance width="1501.1499374924385"/>
  <unicode hex="004E"/>
  <anchor x="750.2091382022019" y="0.0" name="bottom"/>
  <anchor x="754.3078194942935" y="1486.0" name="top"/>
  <outline>
    <contour>
      <point x="173.19091019074887" y="101.12687018590961" type="line"/>
      <point x="13.930112513610515" y="57.887163769810876" type="line"/>
      <point x="13.930112513610515" y="0.0" type="line"/>
      <point x="448.9634633221761" y="0.0" type="line"/>
      <point x="448.9634633221761" y="57.887163769810876" type="line"/>
      <point x="278.79638665967667" y="101.17187563011653" type="line"/>
      <point x="276.60507319433805" y="1228.3729886679841" type="line"/>
      <point x="405.32503931927255" y="1025.366979876598" type="line"/>
      <point x="1100.050812598298" y="0.0" type="line"/>
      <point x="1335.6787917893294" y="0.0" type="line"/>
      <point x="1339.5482114771949" y="1382.7891277170627" type="line"/>
      <point x="1495.5266766141062" y="1426.7815461547766" type="line"/>
      <point x="1495.5266766141062" y="1486.0" type="line"/>
      <point x="1065.3968625236926" y="1486.0" type="line"/>
      <point x="1065.3968625236926" y="1426.7815461547766" type="line"/>
      <point x="1234.5623664152924" y="1382.7891277170627" type="line"/>
      <point x="1238.8879703189903" y="328.04048876880273" type="line"/>
      <point x="1111.390168165504" y="549.4686050731943" type="line"/>
      <point x="476.86820986409646" y="1485.9274105738598" type="line"/>
      <point x="3.9689075291365867" y="1486.0" type="line"/>
      <point x="3.9689075291365867" y="1417.177239182159" type="line"/>
      <point x="62.71407831592532" y="1412.920917852966"/>
      <point x="148.2352300681534" y="1355.6053958140099"/>
      <point x="177.31286042666449" y="1294.480824293261" type="curve"/>
    </contour>
  </outline>
</glyph>
<glyph name="O" format="2">
  <advance width="1521.6511674799374"/>
  <unicode hex="004F"/>
  <anchor x="759.6254385611162" y="0.0" name="bottom"/>
  <anchor x="762.6126144291649" y="741.0" name="center"/>
  <anchor x="833.9107956607654" y="20.0" name="ogonek"/>
  <anchor x="918.0374893737145" y="0.0" name="qq"/>
  <anchor x="765.805460337944" y="1486.0" name="top"/>
  <anchor x="39.111586078961174" y="1486.0" name="topleft"/>
  <anchor x="1309.4879622534984" y="1486.0" name="topright"/>
  <outline>
    <contour>
      <point x="745.9008347784006" y="-23.06714521917974" type="curve" smooth="yes"/>
      <point x="1212.122716457636" y="-21.988466346735493"/>
      <point x="1490.6541113844414" y="298.32120821067065"/>
      <point x="1490.6541113844414" y="764.9172480542001" type="curve" smooth="yes"/>
      <point x="1490.6541113844414" y="1212.860346009598"/>
      <point x="1256.7526313666976" y="1503.2573295156672"/>
      <point x="780.528612332137" y="1503.6376981086423" type="curve" smooth="yes"/>
      <point x="311.167641246925" y="1503.8278824051297"/>
      <point x="30.997056095495427" y="1190.2903577045608"/>
      <point x="30.997056095495427" y="727.8138484494091" type="curve" smooth="yes"/>
      <point x="30.997056095495427" y="274.4844940920273"/>
      <point x="265.85683752066785" y="-24.336008388111466"/>
    </contour>
    <contour>
      <point x="761.3713352421664" y="1431.7734806629833" type="curve" smooth="yes"/>
      <point x="1001.5593015284106" y="1431.7734806629833"/>
      <point x="1128.2970520627496" y="1194.3408073557284"/>
      <point x="1128.2970520627496" y="764.6094688873653" type="curve" smooth="yes"/>
      <point x="1128.2970520627496" y="286.1978061862322"/>
      <point x="979.5861596160827" y="48.2365608742993"/>
      <point x="757.0090333508085" y="48.2365608742993" type="curve" smooth="yes"/>
      <point x="520.7124248901076" y="48.2365608742993"/>
      <point x="392.6303585111102" y="289.67927571883695"/>
      <point x="392.6303585111102" y="728.0040327458966" type="curve" smooth="yes"/>
      <point x="392.6303585111102" y="1206.8195749485826"/>
      <point x="538.9843932733799" y="1431.7734806629833"/>
    </contour>
  </outline>
</glyph>
<glyph name="P" format="2">
  <advance width="1332.8425212727345"/>
  <unicode hex="0050"/>
  <anchor x="446.6144694922773" y="0.0" name="bottom"/>
  <anchor x="694.3868613138685" y="1486.0" name="top"/>
  <outline>
    <contour>
      <point x="173.3518570794854" y="89.44674759043431" type="line"/>
      <point x="29.813929104327137" y="58.420736379400736" type="line"/>
      <point x="29.813929104327137" y="0.0" type="line"/>
      <point x="698.0335927733192" y="0.0" type="line"/>
      <point x="698.0335927733192" y="58.954308988990604" type="line"/>
      <point x="495.73734725974913" y="89.05835383312498" type="line"/>
      <point x="496.27091986933897" y="545.3778279630601" type="line"/>
      <point x="517.6202363189095" y="542.2143807718676"/>
      <point x="633.4546920998508" y="537.273500826713"/>
      <point x="694.2192603944027" y="537.273500826713" type="curve" smooth="yes"/>
      <point x="1072.4695729322095" y="537.273500826713"/>
      <point x="1299.5242166391097" y="723.583215711578"/>
      <point x="1299.5242166391097" y="1043.9801588901885" type="curve" smooth="yes"/>
      <point x="1299.5242166391097" y="1322.9754002500304"/>
      <point x="1149.951647376699" y="1499.8367544461023"/>
      <point x="743.4930838407872" y="1498.2360366173327" type="curve" smooth="yes"/>
      <point x="581.646570149615" y="1497.702464007743"/>
      <point x="470.60188732507964" y="1486.0"/>
      <point x="359.7183933540348" y="1486.0" type="curve" smooth="yes"/>
      <point x="32.56333427430737" y="1486.0" type="line"/>
      <point x="32.56333427430737" y="1426.7815461547768" type="line"/>
      <point x="173.3518570794854" y="1393.474049280155" type="line"/>
    </contour>
    <contour>
      <point x="495.54716296326166" y="627.3654474331572" type="curve"/>
      <point x="495.54716296326166" y="1413.018187683994" type="line"/>
      <point x="529.8648626850022" y="1416.6369722143806"/>
      <point x="591.2885026414485" y="1426.4437633584707"/>
      <point x="669.9048675242974" y="1426.4437633584707" type="curve" smooth="yes"/>
      <point x="875.0805742630156" y="1426.4437633584707"/>
      <point x="959.9313626648385" y="1266.373956526999"/>
      <point x="959.9313626648385" y="1036.8773238698232" type="curve" smooth="yes"/>
      <point x="959.9313626648385" y="744.6558454651773"/>
      <point x="832.2583780296004" y="616.1978465136913"/>
      <point x="658.2380529902811" y="616.1978465136913" type="curve" smooth="yes"/>
      <point x="587.5501875226842" y="616.1978465136913"/>
      <point x="525.3383070532726" y="619.7362180908981"/>
    </contour>
  </outline>
</glyph>
<glyph name="R" format="2">
  <advance width="1455.8370770657743"/>
  <unicode hex="0052"/>
  <anchor x="748.5328467153284" y="0.0" name="bottom"/>
  <anchor x="671.1626809694723" y="1486.0" name="top"/>
  <outline>
    <contour>
      <point x="29.813929104327137" y="0.0" type="line"/>
      <point x="675.4615477678753" y="0.0" type="line"/>
      <point x="675.4615477678753" y="58.954308988990604" type="line"/>
      <point x="502.14021857482766" y="88.91317498084445" type="line"/>
      <point x="502.14021857482766" y="650.1522764850587" type="line"/>
      <point x="547.3408073557285" y="649.5997902972133"/>
      <point x="655.8480864620719" y="648.2516030164938"/>
      <point x="713.2783804492478" y="648.8625640198411" type="curve"/>
      <point x="873.4013388716376" y="604.2952776545551"/>
      <point x="976.1828043714966" y="0.0"/>
      <point x="1076.061862322055" y="0.0" type="curve" smooth="yes"/>
      <point x="1453.8383675444609" y="0.0" type="line"/>
      <point x="1453.8383675444609" y="58.61894584022261" type="line"/>
      <point x="1392.2647900955762" y="82.52074847763842" type="line"/>
      <point x="1308.7652538613543" y="114.05738597410978"/>
      <point x="1211.3867000040325" y="629.5059483001978"/>
      <point x="956.3348792192604" y="694.2900754123484" type="curve"/>
      <point x="1168.5137314997783" y="751.6686695971289"/>
      <point x="1276.3249989918138" y="938.9963302012341"/>
      <point x="1276.3249989918138" y="1104.504456184216" type="curve" smooth="yes"/>
      <point x="1276.3249989918138" y="1360.8900673468563"/>
      <point x="1130.8912771706255" y="1499.828729281768"/>
      <point x="705.2043392345851" y="1499.828729281768" type="curve" smooth="yes"/>
      <point x="559.1168286486269" y="1499.828729281768"/>
      <point x="458.0010081864742" y="1486.0"/>
      <point x="336.7918296568133" y="1486.0" type="curve" smooth="yes"/>
      <point x="32.56333427430737" y="1486.0" type="line"/>
      <point x="32.56333427430737" y="1427.262088155825" type="line"/>
      <point x="177.27704964310195" y="1393.6192281324354" type="line"/>
      <point x="177.27704964310195" y="89.44674759043431" type="line"/>
      <point x="29.813929104327137" y="58.420736379400736" type="line"/>
    </contour>
    <contour>
      <point x="681.2306730652901" y="724.4980441182402" type="curve" smooth="yes"/>
      <point x="645.1911521555027" y="724.4980441182402"/>
      <point x="543.4424728797838" y="724.3309271282817"/>
      <point x="502.14021857482766" y="731.7241198532081" type="curve"/>
      <point x="502.14021857482766" y="1413.5618018308667" type="line"/>
      <point x="533.0341976852038" y="1417.358148163084"/>
      <point x="574.4669919748359" y="1426.824131951446"/>
      <point x="663.8371577206921" y="1426.824131951446" type="curve" smooth="yes"/>
      <point x="864.116627011332" y="1426.824131951446"/>
      <point x="939.7711819978223" y="1297.5101020284712"/>
      <point x="939.7711819978223" y="1093.5811993386299" type="curve" smooth="yes"/>
      <point x="939.7711819978223" y="876.1918780497641"/>
      <point x="856.0636367302496" y="724.4980441182402"/>
    </contour>
  </outline>
</glyph>
<glyph name="S" format="2">
  <advance width="1217.3151187643664"/>
  <unicode hex="0053"/>
  <anchor x="596.7831995805946" y="0.0" name="bottom"/>
  <anchor x="634.2933822639836" y="1486.0" name="top"/>
  <outline>
    <contour>
      <point x="575.7451304593299" y="-22.0" type="curve" smooth="yes"/>
      <point x="1042.56244707021" y="-22.0"/>
      <point x="1173.0047586401581" y="206.39266846795985"/>
      <point x="1173.0047586401581" y="416.74690486752434" type="curve" smooth="yes"/>
      <point x="1173.0047586401581" y="681.7395652699923"/>
      <point x="938.2298261886518" y="776.1862322055088"/>
      <point x="733.0978747429125" y="869.8476428600235" type="curve" smooth="yes"/>
      <point x="528.263620599266" y="964.8590958583699"/>
      <point x="355.0149614872767" y="1030.5487760616204"/>
      <point x="355.0149614872767" y="1207.2972940275033" type="curve" smooth="yes"/>
      <point x="355.0149614872767" y="1327.48086462072"/>
      <point x="444.6948824454571" y="1433.653667782393"/>
      <point x="633.318465943461" y="1433.653667782393" type="curve" smooth="yes"/>
      <point x="756.0833971851433" y="1433.653667782393"/>
      <point x="817.910190748881" y="1387.8507480743638"/>
      <point x="838.8903899665281" y="1361.2198653062871" type="curve"/>
      <point x="897.6290680324232" y="1090.9227325886197" type="line"/>
      <point x="1068.8169536637495" y="1090.9227325886197" type="line"/>
      <point x="1091.6705649877" y="1431.29430979554" type="line"/>
      <point x="993.1901036415697" y="1432.9711255393797"/>
      <point x="892.4007742872121" y="1506.8391337661815"/>
      <point x="639.6729443077792" y="1506.8391337661815" type="curve" smooth="yes"/>
      <point x="262.08013066096703" y="1506.8391337661815"/>
      <point x="73.63189095455095" y="1313.5767633181433"/>
      <point x="73.63189095455095" y="1103.1851030366577" type="curve" smooth="yes"/>
      <point x="73.63189095455095" y="821.0128644594104"/>
      <point x="300.94596120498454" y="708.309795539783"/>
      <point x="479.53462112352304" y="630.862846312054" type="curve" smooth="yes"/>
      <point x="705.7804573133848" y="532.3699641085616"/>
      <point x="882.409485018349" y="449.68713957333557"/>
      <point x="882.409485018349" y="295.55635762390614" type="curve" smooth="yes"/>
      <point x="882.409485018349" y="168.1609872161955"/>
      <point x="802.7738436101141" y="51.51280396822195"/>
      <point x="568.1612291809492" y="52.579949187401695" type="curve" smooth="yes"/>
      <point x="447.8960358107836" y="53.11352179699156"/>
      <point x="360.47501713917006" y="100.77456950437553"/>
      <point x="315.6879864499738" y="151.9989111586079" type="curve"/>
      <point x="267.91519135379275" y="433.1034802597088" type="line"/>
      <point x="90.02568859136186" y="433.1034802597088" type="line"/>
      <point x="59.78045731338468" y="58.03423801266281" type="line"/>
      <point x="174.98685324837683" y="55.42585796668952"/>
      <point x="318.9503972254708" y="-22.0"/>
    </contour>
  </outline>
</glyph>
<glyph name="T" format="2">
  <advance width="1488.6811711094085"/>
  <unicode hex="0054"/>
  <anchor x="741.4372706375772" y="0.0" name="bottom"/>
  <anchor x="1153.2095414767916" y="0.0" name="bottomright"/>
  <anchor x="740.9726176553615" y="681.0504496511676" name="center"/>
  <anchor x="743.2701536476187" y="1486.0" name="top"/>
  <outline>
    <contour>
      <point x="583.1427592047424" y="86.77888454248497" type="line"/>
      <point x="336.06395934992133" y="58.954308988990604" type="line"/>
      <point x="336.06395934992133" y="0.0" type="line"/>
      <point x="1153.6502399483809" y="0.0" type="line"/>
      <point x="1153.6502399483809" y="58.954308988990604" type="line"/>
      <point x="910.8741380005646" y="85.71173932330522" type="line"/>
      <point x="910.8741380005646" y="1414.3809735048594" type="line"/>
      <point x="1168.369802798726" y="1397.7270234302537" type="line"/>
      <point x="1304.810138323184" y="919.5113521796992" type="line"/>
      <point x="1452.775214743719" y="919.5113521796992" type="line"/>
      <point x="1419.000806549179" y="1486.0" type="line"/>
      <point x="70.99423317336776" y="1486.0" type="line"/>
      <point x="35.9059563656894" y="919.5113521796992" type="line"/>
      <point x="182.80388756704437" y="919.5113521796992" type="line"/>
      <point x="322.3624632011937" y="1397.7270234302537" type="line"/>
      <point x="583.1427592047424" y="1414.3809735048594" type="line"/>
    </contour>
  </outline>
</glyph>
<glyph name="U" format="2">
  <advance width="1448.7626325765216"/>
  <unicode hex="0055"/>
  <anchor x="788.0806145904746" y="0.0" name="bottom"/>
  <anchor x="902.3261684881235" y="20.0" name="ogonek"/>
  <anchor x="786.3447594467073" y="1486.0" name="top"/>
  <anchor x="1446.6130177037544" y="1486.0" name="topright"/>
  <outline>
    <contour>
      <point x="781.4832842682583" y="-16.814614671129572" type="curve" smooth="yes"/>
      <point x="1072.0122192200668" y="-16.814614671129572"/>
      <point x="1296.0961003347181" y="143.90349639069245"/>
      <point x="1297.3180223414124" y="582.6160422631771" type="curve" smooth="yes"/>
      <point x="1299.150905351454" y="1393.6777029479374" type="line"/>
      <point x="1430.5541799411221" y="1426.7815461547768" type="line"/>
      <point x="1430.5541799411221" y="1486.0" type="line"/>
      <point x="1038.9728192926566" y="1486.0" type="line"/>
      <point x="1038.9728192926566" y="1426.7815461547768" type="line"/>
      <point x="1193.3487518651452" y="1392.9350324636046" type="line"/>
      <point x="1194.367020204057" y="576.7925958785338" type="line" smooth="yes"/>
      <point x="1194.7743275396217" y="231.37407750937612"/>
      <point x="1042.7211356212442" y="54.53696011614308"/>
      <point x="806.6044682824535" y="54.53696011614308" type="curve" smooth="yes"/>
      <point x="593.6891962737427" y="54.53696011614308"/>
      <point x="484.22591442513203" y="171.6453199983869"/>
      <point x="484.22591442513203" y="510.0863007621889" type="curve" smooth="yes"/>
      <point x="484.22591442513203" y="1393.1071500584749" type="line"/>
      <point x="640.9156752833004" y="1426.7815461547768" type="line"/>
      <point x="640.9156752833004" y="1486.0" type="line"/>
      <point x="25.954429971367503" y="1486.0" type="line"/>
      <point x="25.954429971367503" y="1426.7815461547768" type="line"/>
      <point x="162.6372141791346" y="1393.6777029479374" type="line"/>
      <point x="162.6372141791346" y="562.8374803403639" type="line" smooth="yes"/>
      <point x="162.6372141791346" y="146.26914546114452"/>
      <point x="365.0376255192161" y="-16.814614671129572"/>
    </contour>
  </outline>
</glyph>
<glyph name="V" format="2">
  <advance width="1423.247650925515"/>
  <unicode hex="0056"/>
  <outline>
    <contour>
      <point x="-38.76783481872807" y="1428.2559987095215" type="line"/>
      <point x="82.5926926644352" y="1395.530951324757" type="line"/>
      <point x="616.6867766262047" y="-7.272653950074606" type="line"/>
      <point x="842.3352018389321" y="-7.272653950074606" type="line"/>
      <point x="1351.9084163406865" y="1395.530951324757" type="line"/>
      <point x="1485.332822518853" y="1428.2559987095215" type="line"/>
      <point x="1485.332822518853" y="1486.0" type="line"/>
      <point x="1069.31499778199" y="1486.0" type="line"/>
      <point x="1069.31499778199" y="1428.2559987095215" type="line"/>
      <point x="1233.5866435455903" y="1395.530951324757" type="line"/>
      <point x="879.60616203573" y="397.4085978142517" type="line"/>
      <point x="837.7329918941807" y="255.6583860950921" type="line"/>
      <point x="796.4805420010485" y="396.52074847763845" type="line"/>
      <point x="448.5056256805259" y="1395.7211356212447" type="line"/>
      <point x="609.0028632495867" y="1428.2559987095215" type="line"/>
      <point x="609.0028632495867" y="1486.0" type="line"/>
      <point x="-38.76783481872807" y="1486.0" type="line"/>
    </contour>
  </outline>
</glyph>
<glyph name="W" format="2">
  <advance width="2028.0960196797998"/>
  <unicode hex="0057"/>
  <anchor x="1007.3471790942451" y="0.0" name="bottom"/>
  <anchor x="1040.0931967576726" y="1486.0" name="top"/>
  <outline>
    <contour>
      <point x="-48.5797072226479" y="1428.4596523773037" type="line"/>
      <point x="80.25119974190427" y="1395.5444206960517" type="line"/>
      <point x="505.46880671048905" y="-5.886195910795662" type="line"/>
      <point x="758.788522805178" y="-5.886195910795662" type="line"/>
      <point x="1018.4058555470419" y="909.4804613461307" type="line"/>
      <point x="1274.8552647497681" y="-5.886195910795662" type="line"/>
      <point x="1528.4444892527322" y="-5.886195910795662" type="line"/>
      <point x="1942.3991208613945" y="1396.064523934347" type="line"/>
      <point x="2071.149816510062" y="1428.052345041739" type="line"/>
      <point x="2071.149816510062" y="1486.0" type="line"/>
      <point x="1649.5608742993106" y="1486.0" type="line"/>
      <point x="1649.5608742993106" y="1428.052345041739" type="line"/>
      <point x="1823.4331169093034" y="1396.064523934347" type="line"/>
      <point x="1547.5728515546234" y="392.04794934871154" type="line"/>
      <point x="1505.6556438278826" y="195.07779166834698" type="line"/>
      <point x="1460.0449247892889" y="390.62237367423484" type="line"/>
      <point x="1205.0138726458845" y="1398.5083679477357" type="line"/>
      <point x="1360.8126386256404" y="1428.052345041739" type="line"/>
      <point x="1360.8126386256404" y="1486.0" type="line"/>
      <point x="762.0372222446264" y="1486.0" type="line"/>
      <point x="762.0372222446264" y="1428.052345041739" type="line"/>
      <point x="882.4068637335162" y="1398.5083679477357" type="line"/>
      <point x="966.8258660321812" y="1079.5925313545995" type="line"/>
      <point x="773.8242126063635" y="392.04794934871154" type="line"/>
      <point x="729.6436665725693" y="200.05307093600035" type="line"/>
      <point x="684.707182320442" y="390.8260273420172" type="line"/>
      <point x="408.36677823930313" y="1396.2681776021295" type="line"/>
      <point x="554.2812436988346" y="1428.2559987095212" type="line"/>
      <point x="554.2812436988346" y="1486.0" type="line"/>
      <point x="-48.5797072226479" y="1486.2036536677824" type="line"/>
    </contour>
  </outline>
</glyph>
<glyph name="X" format="2">
  <advance width="1513.5465983788363"/>
  <unicode hex="0058"/>
  <anchor x="1519.478485300641" y="0.0" name="bottomright"/>
  <outline>
    <contour>
      <point x="204.8004194055733" y="87.15768036456022" type="line"/>
      <point x="12.424567488002577" y="58.954308988990604" type="line"/>
      <point x="12.424567488002573" y="0.0" type="line"/>
      <point x="539.4609831834495" y="0.0" type="line"/>
      <point x="539.4609831834498" y="58.954308988990604" type="line"/>
      <point x="338.1236439891922" y="87.7686413679074" type="line"/>
      <point x="665.8573214501754" y="612.6592732991895" type="line"/>
      <point x="982.1731257813444" y="87.88143727063756" type="line"/>
      <point x="823.6455216356817" y="58.954308988990604" type="line"/>
      <point x="823.6455216356817" y="0.0" type="line"/>
      <point x="1501.1220308908335" y="0.0" type="line"/>
      <point x="1501.1220308908337" y="58.954308988990604" type="line"/>
      <point x="1366.296527805783" y="88.49239827398475" type="line"/>
      <point x="894.5642214784045" y="817.8278017502116" type="line"/>
      <point x="1304.9880630721457" y="1394.0984796547968" type="line"/>
      <point x="1479.7406944388435" y="1426.7815461547768" type="line"/>
      <point x="1479.7406944388435" y="1486.0" type="line"/>
      <point x="973.4443682703553" y="1486.0" type="line"/>
      <point x="973.4443682703553" y="1426.7815461547768" type="line"/>
      <point x="1175.6702826954872" y="1394.2112755575274" type="line"/>
      <point x="846.8872847521877" y="886.1636488284873" type="line"/>
      <point x="540.6675001008186" y="1393.3747227487195" type="line"/>
      <point x="701.425414364641" y="1426.7815461547768" type="line"/>
      <point x="701.425414364641" y="1486.0" type="line"/>
      <point x="23.722869701980073" y="1486.0" type="line"/>
      <point x="23.722869701980073" y="1426.7815461547768" type="line"/>
      <point x="157.62471266685483" y="1393.48751865145" type="line"/>
      <point x="615.6683066499979" y="684.9138605476469" type="line"/>
    </contour>
  </outline>
</glyph>
<glyph name="Y" format="2">
  <advance width="1323.9699560430697"/>
  <unicode hex="0059"/>
  <anchor x="684.0511352179699" y="0.0" name="bottom"/>
  <anchor x="676.5519832237769" y="547.0" name="center"/>
  <anchor x="715.403556881881" y="1486.0" name="top"/>
  <anchor x="63.510263338307055" y="1486.0" name="topleft"/>
  <outline>
    <contour>
      <point x="520.5403476226963" y="89.30701294511432" type="line"/>
      <point x="326.3050772270838" y="58.954308988990604" type="line"/>
      <point x="326.3050772270838" y="0.0" type="line"/>
      <point x="1041.8777271444126" y="0.0" type="line"/>
      <point x="1041.8777271444126" y="58.954308988990604" type="line"/>
      <point x="837.2122030890835" y="88.7284348913175" type="line"/>
      <point x="837.2122030890835" y="600.0507319433802" type="line"/>
      <point x="1231.1425978949067" y="1398.812920917853" type="line"/>
      <point x="1392.63543977094" y="1426.9851998225593" type="line"/>
      <point x="1392.63543977094" y="1486.0" type="line"/>
      <point x="915.3383070532725" y="1486.0" type="line"/>
      <point x="915.3383070532725" y="1426.9851998225593" type="line"/>
      <point x="1100.1770375448643" y="1395.510585957979" type="line"/>
      <point x="830.2948743799654" y="796.3983143122152" type="line"/>
      <point x="776.4429568092914" y="668.6997620679921" type="line"/>
      <point x="721.5875307496875" y="795.8647417026253" type="line"/>
      <point x="416.1878856313263" y="1395.510585957979" type="line"/>
      <point x="565.248981731661" y="1426.9851998225593" type="line"/>
      <point x="565.248981731661" y="1486.0" type="line"/>
      <point x="-45.721861515505914" y="1485.7963463322176" type="line"/>
      <point x="-45.721861515505914" y="1426.7815461547768" type="line"/>
      <point x="71.45106262854378" y="1396.234342864056" type="line"/>
      <point x="520.5403476226963" y="579.9092632173247" type="line"/>
    </contour>
  </outline>
</glyph>
<glyph name="Z" format="2">
  <advance width="1316.3650441585676"/>
  <unicode hex="005A"/>
  <anchor x="637.9426946808081" y="0.0" name="bottom"/>
  <anchor x="664.5338549018027" y="1486.0" name="top"/>
  <outline>
    <contour>
      <point x="799.9801588901882" y="1259.3573416139047" type="line"/>
      <point x="38.364802193813766" y="51.81937331128765" type="line"/>
      <point x="68.27906601605032" y="0.0" type="line"/>
      <point x="1223.26228979312" y="0.0" type="line"/>
      <point x="1271.6074525144172" y="439.0690809372101" type="line"/>
      <point x="1119.6637496471346" y="466.3356051135218" type="line"/>
      <point x="987.3534298503849" y="118.91531233616969" type="line"/>
      <point x="381.09977013348384" y="74.20373432270033" type="line"/>
      <point x="508.55127636407633" y="235.4728797838448" type="line"/>
      <point x="1260.8138484494093" y="1434.5496632657175" type="line"/>
      <point x="1232.7552123240714" y="1487.3864580392788" type="line"/>
      <point x="155.91926442714845" y="1487.3864580392788" type="line"/>
      <point x="124.78755494616286" y="1095.4852603137474" type="line"/>
      <point x="278.23022946324147" y="1074.6289067225873" type="line"/>
      <point x="388.50070573053193" y="1387.8778077993304" type="line"/>
      <point x="926.9373714562246" y="1414.7989272895913" type="line"/>
    </contour>
  </outline>
</glyph>
<glyph name="bracketleft" format="2">
  <advance width="864.0818647417026"/>
  <unicode hex="005B"/>
  <outline>
    <contour>
      <point x="188.88413921038838" y="1402.7759406379805" type="curve"/>
      <point x="188.88413921038838" y="-68.7759406379804" type="line" smooth="yes"/>
      <point x="188.88413921038838" y="-234.09815703512524"/>
      <point x="255.02153486308828" y="-274.0"/>
      <point x="407.83235875307497" y="-274.0" type="curve" smooth="yes"/>
      <point x="513.9993547606565" y="-274.0"/>
      <point x="608.509013187079" y="-255.82872928176795"/>
      <point x="694.466588700246" y="-235.1049723756906" type="curve"/>
      <point x="694.466588700246" y="-180.3541960721055" type="line"/>
      <point x="451.07952574908256" y="-180.3541960721055" type="line"/>
      <point x="451.07952574908256" y="1516.3541960721054" type="line"/>
      <point x="694.466588700246" y="1516.3541960721054" type="line"/>
      <point x="694.466588700246" y="1569.657458563536" type="line"/>
      <point x="610.026737105295" y="1587.828729281768"/>
      <point x="518.1849417268219" y="1608.0"/>
      <point x="407.83235875307497" y="1608.0" type="curve" smooth="yes"/>
      <point x="255.02153486308828" y="1608.0"/>
      <point x="188.88413921038838" y="1568.0981570351253"/>
    </contour>
  </outline>
</glyph>
<glyph name="backslash" format="2">
  <advance width="744.5814413033836"/>
  <unicode hex="005C"/>
  <outline>
    <contour>
      <point x="682.2092188571198" y="-354.0" type="line"/>
      <point x="158.95100213735532" y="1562.0" type="line"/>
      <point x="36.5424043231036" y="1562.0" type="line"/>
      <point x="558.3531072307134" y="-354.0" type="line"/>
    </contour>
  </outline>
</glyph>
<glyph name="asciicircum" format="2">
  <advance width="1385.2991894180745"/>
  <unicode hex="005E"/>
  <outline>
    <contour>
      <point x="756.5336129370489" y="1496.0" type="line"/>
      <point x="636.1334032342621" y="1496.0" type="line"/>
      <point x="179.86954067024234" y="266.92741057385973" type="line"/>
      <point x="299.2961648586523" y="266.92741057385973" type="line"/>
      <point x="696.7222244626366" y="1322.2750332701535" type="line"/>
      <point x="1075.7860225027216" y="266.92741057385973" type="line"/>
      <point x="1204.8771625599873" y="266.92741057385973" type="line"/>
    </contour>
  </outline>
</glyph>
<glyph name="a" format="2">
  <advance width="1080.2322861636485"/>
  <unicode hex="0061"/>
  <anchor x="510.72105496632656" y="0.0" name="bottom"/>
  <anchor x="874.6226559664476" y="20.0" name="ogonek"/>
  <anchor x="536.8745816026133" y="1110.1901842964876" name="top"/>
  <outline>
    <contour>
      <point x="26.030285921684076" y="271.8725249022059" type="curve" smooth="yes"/>
      <point x="26.030285921684076" y="85.46735492196638"/>
      <point x="165.4000887204097" y="-20.904343267330727"/>
      <point x="356.46009597935233" y="-20.904343267330727" type="curve" smooth="yes"/>
      <point x="526.7895713191112" y="-20.904343267330727"/>
      <point x="629.9726579828206" y="78.80465378876477"/>
      <point x="672.3822236560876" y="153.04948179215225" type="curve"/>
      <point x="672.3822236560876" y="71.59458805500667" type="line" smooth="yes"/>
      <point x="672.3822236560876" y="4.0067346856474595"/>
      <point x="711.8347784006129" y="-19.26737105294995"/>
      <point x="813.5712787837239" y="-19.26737105294995" type="curve" smooth="yes"/>
      <point x="919.3979916925433" y="-19.26737105294995"/>
      <point x="995.2681776021294" y="0.839980642819695"/>
      <point x="1039.9110376255192" y="11.266201556639915" type="curve"/>
      <point x="1039.9110376255192" y="79.3359680606525" type="line"/>
      <point x="959.7846916965763" y="79.3359680606525" type="line"/>
      <point x="959.7846916965763" y="691.9537040771061" type="line" smooth="yes"/>
      <point x="959.7846916965763" y="926.3352824938502"/>
      <point x="849.7119409606" y="1061.426503206033"/>
      <point x="567.7500907367826" y="1061.426503206033" type="curve" smooth="yes"/>
      <point x="350.0138726458846" y="1061.426503206033"/>
      <point x="154.33302415614793" y="970.9406783078598"/>
      <point x="89.3901681655039" y="909.9958059442673" type="curve"/>
      <point x="125.55889825382103" y="838.8315118764367" type="line"/>
      <point x="216.91817558575633" y="879.4913094325926"/>
      <point x="347.4706617736016" y="911.4986893575835"/>
      <point x="463.7845303867403" y="910.9651167479936" type="curve" smooth="yes"/>
      <point x="617.0661370327053" y="909.897971528814"/>
      <point x="663.6416905270798" y="835.9675363955316"/>
      <point x="663.6416905270801" y="700.976892366012" type="curve" smooth="yes"/>
      <point x="663.6416905270798" y="618.0784772351493" type="line"/>
      <point x="292.2751945799895" y="617.0723877888454"/>
      <point x="26.030285921684076" y="526.343791587692"/>
    </contour>
    <contour>
      <point x="478.3892406339476" y="121.7420252449893" type="curve" smooth="yes"/>
      <point x="391.9687462193007" y="121.7420252449893"/>
      <point x="336.5248215509941" y="192.5827317820704"/>
      <point x="336.5248215509941" y="307.1356212445054" type="curve" smooth="yes"/>
      <point x="336.5248215509941" y="440.8968826874219"/>
      <point x="444.35064725571647" y="544.8386901641328"/>
      <point x="663.6416905270798" y="545.1740533129007" type="curve"/>
      <point x="663.6416905270798" y="200.22704359398315" type="line"/>
      <point x="617.4649756018873" y="156.00137113360483"/>
      <point x="563.2461184820744" y="121.7420252449893"/>
    </contour>
  </outline>
</glyph>
<glyph name="b" format="2">
  <advance width="1188.3043916602815"/>
  <unicode hex="0062"/>
  <anchor x="555.594184780417" y="-2.1712707182320443" name="bottom"/>
  <anchor x="796.1847400895269" y="1110.7237569060774" name="top"/>
  <outline>
    <contour>
      <point x="-18.438117514215428" y="1502.9302738234462" type="line"/>
      <point x="106.16215671250552" y="1467.5413558091705" type="line"/>
      <point x="106.16215671250552" y="54.0" type="line"/>
      <point x="135.93656490704524" y="38.36129370488365"/>
      <point x="301.2647497681171" y="-21.809815703512523"/>
      <point x="567.6722184135178" y="-21.80981570351252" type="curve" smooth="yes"/>
      <point x="911.3064080332298" y="-21.809815703512523"/>
      <point x="1147.6360446828244" y="200.86579021655848"/>
      <point x="1147.6360446828246" y="575.1223535105055" type="curve" smooth="yes"/>
      <point x="1147.6360446828246" y="904.488365528088"/>
      <point x="966.7466225753114" y="1068.0043553655685"/>
      <point x="720.9643101988145" y="1068.0043553655685" type="curve" smooth="yes"/>
      <point x="559.7852562810017" y="1068.0043553655685"/>
      <point x="440.4339234584829" y="974.7645682945517"/>
      <point x="397.09569706012826" y="917.1920796870589" type="curve"/>
      <point x="397.09569706012826" y="1600.4815098600639" type="line"/>
      <point x="349.0989232568456" y="1636.055893858128" type="line"/>
      <point x="319.14602572891886" y="1636.055893858128" type="line"/>
      <point x="-18.438117514215428" y="1556.7714239625761" type="line"/>
    </contour>
    <contour>
      <point x="597.4147275880147" y="935.2308343751259" type="curve" smooth="yes"/>
      <point x="724.8144130338349" y="935.2308343751259"/>
      <point x="824.9854821147719" y="829.7891277170627"/>
      <point x="823.8813566157196" y="523.5508327620277" type="curve" smooth="yes"/>
      <point x="823.6541920393596" y="203.4721538895834"/>
      <point x="735.402226075735" y="50.95822075251037"/>
      <point x="549.6844376335848" y="50.9582207525104" type="curve" smooth="yes"/>
      <point x="490.5862402710006" y="50.95822075251038"/>
      <point x="419.16711698995846" y="81.0664596523773"/>
      <point x="397.0956970601282" y="122.95322014759849" type="curve"/>
      <point x="397.09569706012826" y="846.0781142880187" type="line"/>
      <point x="430.2839053111263" y="885.4119449933461"/>
      <point x="500.9988305036901" y="935.2308343751259"/>
    </contour>
  </outline>
</glyph>
<glyph name="c" format="2">
  <advance width="971.1846594346089"/>
  <unicode hex="0063"/>
  <anchor x="513.8485300641207" y="0.0" name="bottom"/>
  <anchor x="626.7971125539381" y="1110.7237569060774" name="top"/>
  <outline>
    <contour>
      <point x="34.29092228898657" y="513.146993587934" type="curve" smooth="yes"/>
      <point x="33.91055369601161" y="187.2893898455458"/>
      <point x="206.13070129451143" y="-22.0"/>
      <point x="567.1153365326451" y="-22.0" type="curve" smooth="yes"/>
      <point x="733.5687784812678" y="-22.0"/>
      <point x="868.8825261120296" y="53.78465136911723"/>
      <point x="938.4411824010969" y="123.08896237448079" type="curve"/>
      <point x="903.5825301447754" y="189.28870427874338" type="line"/>
      <point x="837.8380852522483" y="149.77799733838773"/>
      <point x="756.931886921805" y="112.23164092430535"/>
      <point x="665.2162761624388" y="112.23164092430535" type="curve" smooth="yes"/>
      <point x="475.60600072589426" y="112.23164092430535"/>
      <point x="358.03564947372666" y="270.8913578255434"/>
      <point x="358.25341775214747" y="573.1641327579948" type="curve" smooth="yes"/>
      <point x="358.3985966044279" y="838.9724563455258"/>
      <point x="435.43767391216676" y="993.5313142718876"/>
      <point x="587.6114046053958" y="993.5313142718876" type="curve" smooth="yes"/>
      <point x="652.2457958624028" y="993.5313142718876"/>
      <point x="695.3600032261968" y="961.7412993507278"/>
      <point x="708.3751260233092" y="894.3684316651209" type="curve" smooth="yes"/>
      <point x="748.9010364156954" y="698.529741500988" type="line"/>
      <point x="932.5389361616325" y="698.529741500988" type="line"/>
      <point x="943.886921805057" y="1002.2124450538372" type="line"/>
      <point x="886.5615598661128" y="1012.6896802032504"/>
      <point x="757.4866717748115" y="1067.6744364237607"/>
      <point x="599.251643343953" y="1067.6744364237607" type="curve" smooth="yes"/>
      <point x="267.3473807315401" y="1067.6744364237607"/>
      <point x="34.67129088196152" y="851.8678872444245"/>
    </contour>
  </outline>
</glyph>
<glyph name="e" format="2">
  <advance width="1068.0840020970275"/>
  <unicode hex="0065"/>
  <anchor x="575.1568738153809" y="0.0" name="bottom"/>
  <anchor x="703.5387345243377" y="20.0" name="ogonek"/>
  <anchor x="589.3618179618503" y="1110.0" name="top"/>
  <outline>
    <contour>
      <point x="575.1341694559825" y="-23.06714521917974" type="curve" smooth="yes"/>
      <point x="757.2959228938984" y="-23.06714521917974"/>
      <point x="929.2363995644633" y="58.919022462394636"/>
      <point x="994.000967859015" y="123.93684719925795" type="curve"/>
      <point x="960.9420897689236" y="190.34697745695044" type="line"/>
      <point x="899.913860547647" y="146.27749324515065"/>
      <point x="786.9090615800299" y="108.35145380489578"/>
      <point x="691.1326370125417" y="108.35145380489578" type="curve" smooth="yes"/>
      <point x="479.7480743638343" y="108.35145380489578"/>
      <point x="373.11485260313754" y="262.3917006089446"/>
      <point x="366.86518530467384" y="515.1978061862324" type="curve"/>
      <point x="1017.0419405573253" y="515.1978061862324" type="line"/>
      <point x="1027.213856514901" y="548.1510263338306"/>
      <point x="1032.7198451425575" y="602.3366536274549"/>
      <point x="1032.516191474775" y="687.7674315441384" type="curve"/>
      <point x="1028.0215348630884" y="932.6925434528371"/>
      <point x="862.6326975037302" y="1067.1408638141709"/>
      <point x="591.2553937976367" y="1067.1408638141709" type="curve" smooth="yes"/>
      <point x="277.64931241682467" y="1067.1408638141709"/>
      <point x="37.75513166915353" y="862.6659676573779"/>
      <point x="37.56494737266605" y="509.2830181070291" type="curve" smooth="yes"/>
      <point x="37.37476307617857" y="185.3604871557043"/>
      <point x="216.2008307456547" y="-23.06714521917974"/>
    </contour>
    <contour>
      <point x="365.30552082913255" y="582.9551155381699" type="line"/>
      <point x="373.7677138363511" y="881.6695164737671"/>
      <point x="446.48848651046507" y="994.5326854054925"/>
      <point x="567.5930959390248" y="994.5326854054925" type="curve" smooth="yes"/>
      <point x="677.7617050449651" y="994.5326854054925"/>
      <point x="716.5679719320884" y="889.3773037060934"/>
      <point x="716.5679719320884" y="699.964794128322" type="curve" smooth="yes"/>
      <point x="716.5679719320884" y="674.3385490180264"/>
      <point x="714.9752792676533" y="620.8974875993065"/>
      <point x="713.4038795015526" y="593.5573254829212" type="curve"/>
    </contour>
  </outline>
</glyph>
<glyph name="f" format="2">
  <advance width="687.2793079808041"/>
  <unicode hex="0066"/>
  <anchor x="344.40202443844015" y="1616.7226277372263" name="top"/>
  <outline>
    <contour>
      <point x="182.9911279590273" y="88.18397386780659" type="line"/>
      <point x="45.37427914667097" y="58.95430898899061" type="line"/>
      <point x="45.37427914667097" y="0.0" type="line"/>
      <point x="625.9750373028995" y="0.0" type="line"/>
      <point x="625.9750373028995" y="58.95430898899061" type="line"/>
      <point x="473.40968665564384" y="87.4413033834738" type="line"/>
      <point x="473.9432592652337" y="927.3932733798443" type="line"/>
      <point x="673.8150582731781" y="927.3932733798443" type="line"/>
      <point x="673.8150582731781" y="1032.7814251724" type="line"/>
      <point x="473.9432592652337" y="1032.7814251724" type="line"/>
      <point x="475.01040448441347" y="1295.3598015889022" type="line" smooth="yes"/>
      <point x="475.54397709400337" y="1439.1461063838367"/>
      <point x="521.8795822075252" y="1481.8741380005647"/>
      <point x="621.8347784006129" y="1481.8741380005647" type="curve" smooth="yes"/>
      <point x="692.0567407347663" y="1481.8741380005647"/>
      <point x="758.6946808081624" y="1448.722708392144"/>
      <point x="798.6414082348672" y="1422.102391418317" type="curve"/>
      <point x="798.8315925313547" y="1646.2081300157276" type="line"/>
      <point x="781.9209581804251" y="1654.83098761947"/>
      <point x="745.2628140500867" y="1663.1220712182924"/>
      <point x="683.9549945557931" y="1663.1220712182924" type="curve" smooth="yes"/>
      <point x="434.6204379562044" y="1663.1220712182924"/>
      <point x="182.9911279590273" y="1430.8240512965278"/>
      <point x="182.9911279590273" y="1109.2888252611203" type="curve" smooth="yes"/>
      <point x="182.9911279590273" y="1031.1248134855023" type="line"/>
      <point x="48.04157761019478" y="984.4040408113884" type="line"/>
      <point x="48.04157761019478" y="927.3932733798443" type="line"/>
      <point x="182.9911279590273" y="927.3932733798443" type="line"/>
    </contour>
  </outline>
</glyph>
<glyph name="g" format="2">
  <advance width="1165.9847562205107"/>
  <unicode hex="0067"/>
  <anchor x="590.4902205912006" y="0.0" name="bottom"/>
  <anchor x="582.7648909142235" y="1110.1901842964874" name="top"/>
  <outline>
    <contour>
      <point x="534.3122151873212" y="-493.3225793442755" type="curve"/>
      <point x="891.5636165665201" y="-493.3225793442755"/>
      <point x="1152.5230874702586" y="-332.8253014477558"/>
      <point x="1152.5230874702586" y="-89.72778965197402" type="curve" smooth="yes"/>
      <point x="1152.5230874702586" y="72.49534217848934"/>
      <point x="1024.6065249828607" y="176.86651611081984"/>
      <point x="771.6774206557246" y="176.86651611081984" type="curve" smooth="yes"/>
      <point x="541.5285720046779" y="176.86651611081984" type="line" smooth="yes"/>
      <point x="378.6243900471831" y="176.86651611081984"/>
      <point x="315.1498165100617" y="203.98697423075373"/>
      <point x="315.1498165100617" y="273.8507884018228" type="curve" smooth="yes"/>
      <point x="315.1498165100617" y="315.10303665766025"/>
      <point x="336.334193652458" y="340.65899100697663"/>
      <point x="362.7653345162721" y="362.3694801790539" type="curve"/>
      <point x="408.20546840343593" y="353.40424244868336"/>
      <point x="481.9872968504254" y="349.1951445739404"/>
      <point x="542.074081542122" y="349.1951445739404" type="curve" smooth="yes"/>
      <point x="815.2480542001049" y="349.1951445739404"/>
      <point x="1035.7403314917126" y="488.68867201677625"/>
      <point x="1035.550147195225" y="717.9505988627657" type="curve" smooth="yes"/>
      <point x="1035.550147195225" y="775.6126950840828"/>
      <point x="1014.5501875226844" y="846.4539258781303"/>
      <point x="994.9821752631367" y="869.6295519619308" type="curve"/>
      <point x="1167.6129370488366" y="869.8332056297132" type="line"/>
      <point x="1167.8165907166187" y="1060.9570109287415" type="line"/>
      <point x="1113.9720530709362" y="1060.9570109287415" type="line" smooth="yes"/>
      <point x="1024.6315280074202" y="1060.9570109287415"/>
      <point x="966.7392023228616" y="1002.4724361817963"/>
      <point x="939.8344154534822" y="953.3711739323305" type="curve"/>
      <point x="862.7275476872203" y="1025.8865588579265"/>
      <point x="748.4513852482155" y="1059.670847279913"/>
      <point x="581.3250393192725" y="1059.670847279913" type="curve" smooth="yes"/>
      <point x="316.65983788361495" y="1059.670847279913"/>
      <point x="82.55228455055047" y="933.1703835141348"/>
      <point x="82.55228455055047" y="703.3020929951203" type="curve" smooth="yes"/>
      <point x="82.55228455055047" y="553.2486187845303"/>
      <point x="149.11703028592166" y="440.2885026414486"/>
      <point x="302.9856837520668" y="380.6088236480219" type="curve"/>
      <point x="198.8166713715369" y="337.325684558616"/>
      <point x="127.19736258418358" y="262.4451344920757"/>
      <point x="127.19736258418358" y="164.42896318102996" type="curve" smooth="yes"/>
      <point x="127.19736258418354" y="80.45993466951647"/>
      <point x="166.35992257127876" y="20.418921643747236"/>
      <point x="241.76997217405332" y="-21.4210186716135" type="curve"/>
      <point x="111.51663507682382" y="-46.19349114812276"/>
      <point x="25.16594749364842" y="-128.76989151913537"/>
      <point x="25.16594749364842" y="-234.91765132878976" type="curve" smooth="yes"/>
      <point x="25.16594749364842" y="-426.9779005524862"/>
      <point x="285.8526434649353" y="-493.3225793442755"/>
    </contour>
    <contour>
      <point x="564.6678630479493" y="-414.6736702020405" type="curve"/>
      <point x="409.62559987095216" y="-414.1400975924507"/>
      <point x="262.65459531394924" y="-340.88849457595677"/>
      <point x="262.65459531394924" y="-178.55373633907328" type="curve" smooth="yes"/>
      <point x="262.65459531394924" y="-109.92906399967738"/>
      <point x="285.6228172762834" y="-69.23716578618381"/>
      <point x="313.0414566278179" y="-43.18300600879139" type="curve"/>
      <point x="360.6100334717909" y="-53.17139170060894"/>
      <point x="415.8473202403517" y="-60.38085252248256"/>
      <point x="485.4530790014921" y="-60.38085252248256" type="curve" smooth="yes"/>
      <point x="713.111868371174" y="-60.91442513207244" type="line" smooth="yes"/>
      <point x="828.5593015284106" y="-60.91442513207244"/>
      <point x="885.3687946122515" y="-110.36431826430616"/>
      <point x="885.3687946122515" y="-197.06488688147758" type="curve" smooth="yes"/>
      <point x="885.3687946122515" y="-343.46372545065935"/>
      <point x="764.1998225591806" y="-415.74081542122025"/>
    </contour>
    <contour>
      <point x="553.8689357583578" y="420.9793926684679" type="curve" smooth="yes"/>
      <point x="425.9505182078477" y="421.99766100737986"/>
      <point x="383.2741863935154" y="558.9071258619994"/>
      <point x="383.2741863935154" y="712.4800177440819" type="curve" smooth="yes"/>
      <point x="383.2741863935154" y="904.1427188772836"/>
      <point x="452.65245795862404" y="989.0277049643103"/>
      <point x="572.4017824736864" y="989.0277049643103" type="curve" smooth="yes"/>
      <point x="691.249143041497" y="989.0277049643103"/>
      <point x="734.939186191878" y="858.8032826551599"/>
      <point x="734.939186191878" y="707.0105657942494" type="curve" smooth="yes"/>
      <point x="734.939186191878" y="512.0360527483164"/>
      <point x="675.7045207081501" y="419.7574706617736"/>
    </contour>
  </outline>
</glyph>
<glyph name="h" format="2">
  <advance width="1269.2485381296124"/>
  <unicode hex="0068"/>
  <anchor x="654.033996047909" y="0.0" name="bottom"/>
  <anchor x="252.02209944751385" y="1287.2872928176796" name="center"/>
  <anchor x="250.2313183046337" y="1579.8622010727104" name="top"/>
  <outline>
    <contour>
      <point x="139.19566883090695" y="87.9937895713191" type="line"/>
      <point x="21.2335363148768" y="58.95430898899061" type="line"/>
      <point x="21.2335363148768" y="0.0" type="line"/>
      <point x="553.9869339032948" y="0.0" type="line"/>
      <point x="553.9869339032948" y="58.95430898899061" type="line"/>
      <point x="436.58861959107963" y="88.18397386780659" type="line"/>
      <point x="436.58861959107963" y="825.7119409606" type="line"/>
      <point x="501.9455982578539" y="872.7312981409042"/>
      <point x="596.4750977940879" y="907.9991934508207"/>
      <point x="699.1440093559704" y="907.9991934508207" type="curve" smooth="yes"/>
      <point x="837.3892809614066" y="907.9991934508207"/>
      <point x="848.0041940557326" y="796.8069524539259"/>
      <point x="848.0041940557326" y="635.3242327700932" type="curve" smooth="yes"/>
      <point x="848.0041940557326" y="88.38762753558898" type="line"/>
      <point x="741.2362785820866" y="58.95430898899061" type="line"/>
      <point x="741.2362785820866" y="0.0" type="line"/>
      <point x="1257.6683469774568" y="-0.19018429648747837" type="line"/>
      <point x="1257.6683469774568" y="59.144493285478084" type="line"/>
      <point x="1145.7775134088802" y="87.9937895713191" type="line"/>
      <point x="1145.7775134088802" y="643.7162156712506" type="line" smooth="yes"/>
      <point x="1145.7775134088802" y="904.6439891922411"/>
      <point x="1087.6136226156393" y="1062.6696374561438"/>
      <point x="823.2275678509498" y="1062.6696374561438" type="curve" smooth="yes"/>
      <point x="647.9633020123403" y="1062.6696374561438"/>
      <point x="502.3614550147195" y="956.9760858168326"/>
      <point x="423.19732225672465" y="880.4063798040085" type="curve"/>
      <point x="435.06714521917974" y="1120.127434770335" type="line"/>
      <point x="434.8769609226922" y="1600.2013146751622" type="line"/>
      <point x="387.9789490664193" y="1636.2010727104084" type="line"/>
      <point x="353.3554865507924" y="1636.2010727104084" type="line"/>
      <point x="7.6906883897245635" y="1556.9166028148566" type="line"/>
      <point x="7.6906883897245635" y="1502.2247046013633" type="line"/>
      <point x="139.19566883090695" y="1467.3693591966767" type="line"/>
    </contour>
  </outline>
</glyph>
<glyph name="k" format="2">
  <advance width="1173.494616284228"/>
  <unicode hex="006B"/>
  <anchor x="649.3764971569142" y="0.0" name="bottom"/>
  <anchor x="652.8590555309111" y="1601.0802919708028" name="top"/>
  <outline>
    <contour>
      <point x="132.56059200709763" y="87.65040125821672" type="line"/>
      <point x="17.12271645763601" y="58.420736379400736" type="line"/>
      <point x="17.12271645763601" y="0.0" type="line"/>
      <point x="538.5411138444167" y="0.0" type="line"/>
      <point x="538.5411138444167" y="57.88716376981086" type="line"/>
      <point x="422.45360325845866" y="87.65040125821672" type="line"/>
      <point x="422.45360325845866" y="247.78904706214462" type="line"/>
      <point x="416.1140863814171" y="362.6902447876759" type="line"/>
      <point x="570.0671048917208" y="525.8703472194218" type="line"/>
      <point x="801.7125458724845" y="87.65040125821672" type="line"/>
      <point x="690.2102270435939" y="58.954308988990604" type="line"/>
      <point x="693.945235310723" y="0.0" type="line"/>
      <point x="1237.8549824575553" y="0.0" type="line"/>
      <point x="1237.8549824575553" y="59.3616163245554" type="line"/>
      <point x="1135.7738839375731" y="87.31503810944872" type="line"/>
      <point x="773.1763923055208" y="723.4055732548292" type="line"/>
      <point x="993.8332862846312" y="944.2377303706094" type="line"/>
      <point x="1129.6913336290681" y="974.0690406097511" type="line"/>
      <point x="1129.6913336290681" y="1032.5912408759125" type="line"/>
      <point x="702.8688954308991" y="1032.5912408759125" type="line"/>
      <point x="702.8688954308991" y="974.0690406097511" type="line"/>
      <point x="853.6681856676212" y="944.2612412791871" type="line"/>
      <point x="416.90176230995684" y="468.5120780739606" type="line"/>
      <point x="422.64378755494613" y="644.9961688913982" type="line"/>
      <point x="422.64378755494613" y="1599.522563213292" type="line"/>
      <point x="373.45561963140705" y="1636.055893858128" type="line"/>
      <point x="344.0638786950035" y="1636.055893858128" type="line"/>
      <point x="7.6906883897245635" y="1556.7714239625761" type="line"/>
      <point x="7.6906883897245635" y="1502.0795257490827" type="line"/>
      <point x="132.56059200709763" y="1466.6906077348065" type="line"/>
    </contour>
  </outline>
</glyph>
<glyph name="l" format="2">
  <advance width="579.8111868371174"/>
  <unicode hex="006C"/>
  <anchor x="299.42468847037946" y="0.0" name="bottom"/>
  <anchor x="282.07621889744723" y="1634.0" name="top"/>
  <anchor x="610.8794208976892" y="1110.7237569060774" name="topright"/>
  <outline>
    <contour>
      <point x="146.03633504052908" y="88.71754647739645" type="line"/>
      <point x="29.447997741662302" y="58.42073637940074" type="line"/>
      <point x="29.447997741662302" y="0.0" type="line"/>
      <point x="558.7104891720774" y="0.0" type="line"/>
      <point x="558.7104891720774" y="58.42073637940074" type="line"/>
      <point x="442.8587329112393" y="87.9937895713191" type="line"/>
      <point x="442.8587329112393" y="1600.056135822882" type="line"/>
      <point x="396.2315199419286" y="1636.055893858128" type="line"/>
      <point x="362.89297092390217" y="1636.055893858128" type="line"/>
      <point x="14.911723192321654" y="1556.7714239625761" type="line"/>
      <point x="14.911723192321654" y="1502.2247046013633" type="line"/>
      <point x="146.22651933701658" y="1466.835786587087" type="line"/>
    </contour>
  </outline>
</glyph>
<glyph name="m" format="2">
  <advance width="1957.8731701415495"/>
  <unicode hex="006D"/>
  <anchor x="984.3188692180505" y="0.0" name="bottom"/>
  <anchor x="984.464048070331" y="1110.7237569060774" name="top"/>
  <outline>
    <contour>
      <point x="26.258499011977257" y="0.0" type="line"/>
      <point x="557.7630358511111" y="0.0" type="line"/>
      <point x="557.7630358511111" y="58.95430898899059" type="line"/>
      <point x="442.4651772391822" y="88.1839738678066" type="line"/>
      <point x="442.99874984877204" y="825.0331894987297" type="line"/>
      <point x="499.61426785498236" y="866.4562648707505"/>
      <point x="588.2943097955398" y="904.2641851836916"/>
      <point x="687.7274267048433" y="904.2641851836916" type="curve" smooth="yes"/>
      <point x="806.6504819131345" y="904.2641851836916"/>
      <point x="845.5620437956204" y="825.0825503085051"/>
      <point x="845.5620437956204" y="661.7706980683147" type="curve" smooth="yes"/>
      <point x="845.5620437956204" y="88.1839738678066" type="line"/>
      <point x="741.2868492156309" y="58.95430898899059" type="line"/>
      <point x="741.2868492156309" y="0.0" type="line"/>
      <point x="1257.7963060047584" y="0.0" type="line"/>
      <point x="1257.7963060047584" y="58.95430898899059" type="line"/>
      <point x="1143.6164052103074" y="88.18397386780659" type="line"/>
      <point x="1143.8200588780899" y="681.9163205226439" type="line" smooth="yes"/>
      <point x="1143.8200588780899" y="732.0030648868816"/>
      <point x="1137.8168326813727" y="791.530951324757"/>
      <point x="1130.5242569665686" y="825.052385369198" type="curve"/>
      <point x="1189.9535024398112" y="867.2170020567005"/>
      <point x="1277.3699237811027" y="904.2641851836914"/>
      <point x="1376.999959672541" y="904.2641851836914" type="curve" smooth="yes"/>
      <point x="1496.8680485542607" y="904.2641851836914"/>
      <point x="1536.866314473525" y="824.7021817155301"/>
      <point x="1536.866314473525" y="661.9819332983828" type="curve" smooth="yes"/>
      <point x="1536.866314473525" y="87.65040125821672" type="line"/>
      <point x="1432.2753155623666" y="58.954308988990604" type="line"/>
      <point x="1432.2753155623666" y="0.0" type="line"/>
      <point x="1946.2929789893938" y="0.0" type="line"/>
      <point x="1946.2929789893938" y="58.954308988990604" type="line"/>
      <point x="1835.3145138524822" y="87.65040125821672" type="line"/>
      <point x="1835.3145138524822" y="664.1291285236118" type="line" smooth="yes"/>
      <point x="1835.3145138524822" y="943.8813969431785"/>
      <point x="1735.2786224140016" y="1062.669637456144"/>
      <point x="1519.1463080211315" y="1062.669637456144" type="curve" smooth="yes"/>
      <point x="1344.469048675243" y="1062.669637456144"/>
      <point x="1202.1153768601043" y="968.0266161229181"/>
      <point x="1114.8253417752148" y="878.1925636165664" type="curve"/>
      <point x="1071.2971327176674" y="999.238052990281"/>
      <point x="979.1768762350283" y="1062.6696374561438"/>
      <point x="830.3154010565795" y="1062.6696374561438" type="curve" smooth="yes"/>
      <point x="658.0906561277574" y="1062.6696374561438"/>
      <point x="511.22926160422634" y="963.6599991934509"/>
      <point x="427.1430414969553" y="877.0493204823164" type="curve"/>
      <point x="430.72484574746943" y="1023.1202161551802" type="line"/>
      <point x="387.5551074726781" y="1056.683994031536" type="line"/>
      <point x="343.2323264911078" y="1056.683994031536" type="line"/>
      <point x="22.650562568052592" y="974.2323668185668" type="line"/>
      <point x="22.650562568052592" y="911.5324031132798" type="line"/>
      <point x="143.81332419244265" y="869.8217526313667" type="line"/>
      <point x="143.81332419244265" y="88.1839738678066" type="line"/>
      <point x="26.258499011977257" y="58.95430898899059" type="line"/>
    </contour>
  </outline>
</glyph>
<glyph name="n" format="2">
  <advance width="1275.6070089123682"/>
  <unicode hex="006E"/>
  <anchor x="662.5190950518208" y="0.0" name="bottom"/>
  <anchor x="631.5308706698391" y="1110.7237569060774" name="top"/>
  <outline>
    <contour>
      <point x="143.79920958180426" y="88.18397386780659" type="line"/>
      <point x="26.258499011977257" y="58.95430898899061" type="line"/>
      <point x="26.258499011977257" y="0.0" type="line"/>
      <point x="559.364681211437" y="0.0" type="line"/>
      <point x="559.364681211437" y="58.95430898899061" type="line"/>
      <point x="442.7809815703513" y="88.18397386780659" type="line"/>
      <point x="442.7809815703513" y="825.7649715691414" type="line"/>
      <point x="507.8980521837318" y="872.9214824373917"/>
      <point x="610.8653869419687" y="907.9991934508207"/>
      <point x="702.9236197927167" y="907.9991934508207" type="curve" smooth="yes"/>
      <point x="838.7008509093841" y="907.9991934508207"/>
      <point x="852.2912852361173" y="800.8393354034764"/>
      <point x="852.2912852361173" y="640.4961890551276" type="curve" smooth="yes"/>
      <point x="852.0876315683348" y="87.84861071903862" type="line"/>
      <point x="746.5281687300885" y="58.95430898899061" type="line"/>
      <point x="746.5281687300885" y="0.0" type="line"/>
      <point x="1264.026817760213" y="0.0" type="line"/>
      <point x="1264.026817760213" y="59.144493285478084" type="line"/>
      <point x="1151.069403556882" y="87.84861071903862" type="line"/>
      <point x="1151.2730572246646" y="648.3545993466952" type="line" smooth="yes"/>
      <point x="1151.2730572246646" y="907.8995846271728"/>
      <point x="1089.0032261967174" y="1062.6696374561438"/>
      <point x="826.9850385127233" y="1062.6696374561438" type="curve" smooth="yes"/>
      <point x="653.2572085332903" y="1062.6696374561438"/>
      <point x="507.5290156067267" y="956.2388595394603"/>
      <point x="426.78009436625393" y="877.0493204823165" type="curve"/>
      <point x="430.5070774690487" y="949.5364358591765" type="line"/>
      <point x="430.5070774690487" y="1023.1202161551802" type="line"/>
      <point x="387.13368552647506" y="1056.683994031536" type="line"/>
      <point x="346.4134774367868" y="1056.683994031536" type="line"/>
      <point x="22.650562568052592" y="974.2323668185669" type="line"/>
      <point x="22.650562568052592" y="911.5324031132798" type="line"/>
      <point x="143.79920958180426" y="869.8217526313666" type="line"/>
    </contour>
  </outline>
</glyph>
<glyph name="o" format="2">
  <advance width="1188.0489172077268"/>
  <unicode hex="006F"/>
  <anchor x="596.9098278017501" y="0.0" name="bottom"/>
  <anchor x="594.3208049360809" y="517.8142113965399" name="center"/>
  <anchor x="681.7769488244545" y="13.484292454732426" name="ogonek"/>
  <anchor x="594.5970480300036" y="1110.380368592975" name="top"/>
  <anchor x="889.9996773803282" y="1032.9716094688874" name="topright"/>
  <outline>
    <contour>
      <point x="34.29092228898657" y="509.0198007823527" type="curve" smooth="yes"/>
      <point x="34.29092228898657" y="178.20312941081585"/>
      <point x="212.15364761866354" y="-23.06714521917974"/>
      <point x="581.8009033350809" y="-23.06714521917974" type="curve" smooth="yes"/>
      <point x="879.5262733395168" y="-23.06714521917974"/>
      <point x="1153.7579949187402" y="158.6606444327943"/>
      <point x="1153.7579949187402" y="533.326934709844" type="curve" smooth="yes"/>
      <point x="1153.7579949187402" y="858.807879985482"/>
      <point x="975.3434286405615" y="1065.5401459854015"/>
      <point x="611.6290680324231" y="1065.5401459854015" type="curve" smooth="yes"/>
      <point x="308.5178449005928" y="1065.5401459854015"/>
      <point x="34.29092228898657" y="871.4427148445377"/>
    </contour>
    <contour>
      <point x="598.380207283139" y="50.44694922772916" type="curve" smooth="yes"/>
      <point x="430.5411944993346" y="50.44694922772916"/>
      <point x="366.52841069484214" y="242.12791869984272"/>
      <point x="366.52841069484214" y="534.2386579021656" type="curve" smooth="yes"/>
      <point x="366.52841069484214" y="838.2132112755576"/>
      <point x="449.7486792757189" y="991.4924789289026"/>
      <point x="599.0039117635198" y="991.4924789289026" type="curve" smooth="yes"/>
      <point x="761.1808283260071" y="991.4924789289026"/>
      <point x="820.7565431302174" y="792.2775739000685"/>
      <point x="820.7565431302174" y="507.04093237085135" type="curve" smooth="yes"/>
      <point x="820.7565431302174" y="200.2863652861233"/>
      <point x="741.2306730652903" y="50.44694922772916"/>
    </contour>
  </outline>
</glyph>
<glyph name="p" format="2">
  <advance width="1211.6424567488002"/>
  <unicode hex="0070"/>
  <anchor x="620.5858773238698" y="1111.4475138121547" name="top"/>
  <outline>
    <contour>
      <point x="1170.9741097713436" y="574.918699842723" type="curve" smooth="yes"/>
      <point x="1170.9741097713434" y="904.488365528088"/>
      <point x="989.3137879582207" y="1067.3933943622212"/>
      <point x="741.1201355002621" y="1067.3933943622212" type="curve" smooth="yes"/>
      <point x="579.5824091623987" y="1067.3933943622212"/>
      <point x="455.3588740573457" y="971.0334717909424"/>
      <point x="412.01774408194535" y="911.4768318748235" type="curve"/>
      <point x="412.01774408194535" y="1020.2486994394483" type="line"/>
      <point x="368.9938298987781" y="1056.683994031536" type="line"/>
      <point x="333.9733032221639" y="1056.683994031536" type="line"/>
      <point x="17.327337984433605" y="974.0421825220793" type="line"/>
      <point x="17.327337984433605" y="911.5324031132798" type="line"/>
      <point x="135.78549824575555" y="870.0119369278542" type="line"/>
      <point x="136.31907085534542" y="-377.41291285236116" type="line"/>
      <point x="19.25652296648789" y="-408.2642255111506" type="line"/>
      <point x="19.25652296648789" y="-465.84223898052187" type="line"/>
      <point x="558.3351615114732" y="-465.84223898052187" type="line"/>
      <point x="558.3351615114732" y="-408.2642255111506" type="line"/>
      <point x="419.7052062749526" y="-377.41291285236116" type="line"/>
      <point x="419.7052062749526" y="-162.8950276243094" type="line"/>
      <point x="418.2737427914667" y="6.900270193975075" type="line"/>
      <point x="448.54643706900026" y="-6.880429084163406"/>
      <point x="514.8957535185708" y="-21.80981570351252"/>
      <point x="596.227043593983" y="-21.80981570351252" type="curve" smooth="yes"/>
      <point x="928.7280316167279" y="-21.80981570351252"/>
      <point x="1170.9741097713434" y="200.32677340000805"/>
    </contour>
    <contour>
      <point x="618.3260475057466" y="934.6198733717787" type="curve" smooth="yes"/>
      <point x="738.2793079808041" y="934.6198733717787"/>
      <point x="847.6723797233537" y="848.9762471266686"/>
      <point x="847.2920111303786" y="523.6234221881681" type="curve" smooth="yes"/>
      <point x="846.7584385207888" y="203.61733274186398"/>
      <point x="757.8242126063637" y="50.9582207525104"/>
      <point x="584.5843852078881" y="50.9582207525104" type="curve" smooth="yes"/>
      <point x="513.8927692866073" y="50.9582207525104"/>
      <point x="443.5878130419003" y="81.79566076541516"/>
      <point x="420.5063515747872" y="122.35508327620276" type="curve"/>
      <point x="420.5063515747873" y="845.5351453804896" type="line"/>
      <point x="447.15997902972134" y="875.8802274468686"/>
      <point x="519.5703512521677" y="934.6198733717787"/>
    </contour>
  </outline>
</glyph>
<glyph name="q" format="2">
  <advance width="1166.9870548856718"/>
  <unicode hex="0071"/>
  <outline>
    <contour>
      <point x="622.7390410130259" y="-465.84223898052187" type="line"/>
      <point x="1177.1115860789614" y="-465.84223898052187" type="line"/>
      <point x="1177.1115860789614" y="-408.1527200871073" type="line"/>
      <point x="1068.34153324999" y="-378.22881800217766" type="line"/>
      <point x="1068.34153324999" y="1027.674638061056" type="line"/>
      <point x="1022.3502439811267" y="1058.0002016372948" type="line"/>
      <point x="996.1750211719159" y="1058.0002016372948" type="line"/>
      <point x="866.8177198854698" y="1011.2184941726823" type="line"/>
      <point x="811.2425293382264" y="1031.1202968100981"/>
      <point x="733.2961245311932" y="1066.1951849013994"/>
      <point x="617.0121385651491" y="1066.1951849013994" type="curve" smooth="yes"/>
      <point x="273.14126708876074" y="1066.1951849013994"/>
      <point x="41.999637052869296" y="840.9330160906561"/>
      <point x="41.999637052869296" y="472.33302415614787" type="curve" smooth="yes"/>
      <point x="41.999637052869296" y="145.37210146388676"/>
      <point x="243.5192160341977" y="-22.99455579303948"/>
      <point x="464.58172359559626" y="-22.99455579303948" type="curve" smooth="yes"/>
      <point x="620.9320885590997" y="-22.99455579303948"/>
      <point x="740.3323789168045" y="66.93285478082026"/>
      <point x="787.0381497761824" y="130.23252812840263" type="curve"/>
      <point x="784.3943622212364" y="-46.0" type="line"/>
      <point x="785.4615074404162" y="-378.0386337056902" type="line"/>
      <point x="622.7390410130259" y="-408.1527200871073" type="line"/>
    </contour>
    <contour>
      <point x="586.1888534903416" y="105.59491067467839" type="curve" smooth="yes"/>
      <point x="460.14941323547197" y="105.59491067467839"/>
      <point x="361.1173125781345" y="214.04940113723436"/>
      <point x="361.49768117110943" y="522.9434609025285" type="curve" smooth="yes"/>
      <point x="361.6878654675969" y="838.1026737105296"/>
      <point x="448.09823769004316" y="991.4527160543614"/>
      <point x="622.9061580029843" y="991.4527160543614" type="curve" smooth="yes"/>
      <point x="691.9003105214339" y="991.4527160543614"/>
      <point x="760.6656853651651" y="961.6583457676331"/>
      <point x="784.0644432794289" y="922.0686776626205" type="curve"/>
      <point x="784.0644432794288" y="197.5035689801186" type="line"/>
      <point x="751.6054361414687" y="157.17848933338712"/>
      <point x="680.8359882243819" y="105.59491067467839"/>
    </contour>
  </outline>
</glyph>
<glyph name="r" format="2">
  <advance width="801.2980602492237"/>
  <unicode hex="0072"/>
  <anchor x="293.45771665927333" y="0.0" name="bottom"/>
  <anchor x="432.8205428075977" y="1110.0" name="top"/>
  <outline>
    <contour>
      <point x="21.17481953462113" y="0.0" type="line"/>
      <point x="605.5061902649514" y="0.0" type="line"/>
      <point x="605.5061902649514" y="58.4737669879421" type="line"/>
      <point x="433.0025809573739" y="88.23700447634795" type="line"/>
      <point x="432.469008347784" y="712.6012824131952" type="line"/>
      <point x="479.8451828850264" y="771.5199822559181"/>
      <point x="558.1936524579586" y="805.4816711698995"/>
      <point x="650.7938057023027" y="805.4816711698995" type="curve" smooth="yes"/>
      <point x="711.725329676977" y="805.4816711698995"/>
      <point x="756.2348671210227" y="793.5236520546838"/>
      <point x="774.212404726378" y="778.9682622897931" type="curve"/>
      <point x="774.212404726378" y="1045.7307738839377" type="line"/>
      <point x="761.5101423559302" y="1051.9020446021696"/>
      <point x="737.9252328910754" y="1055.7353712142597"/>
      <point x="703.6543533491955" y="1055.7353712142597" type="curve" smooth="yes"/>
      <point x="548.13622615639" y="1055.7353712142597"/>
      <point x="436.21482437391626" y="888.3587530749687"/>
      <point x="419.6981892970924" y="817.5911602209945" type="curve"/>
      <point x="412.663427027463" y="813.5180868653466" type="line"/>
      <point x="417.9712061942976" y="967.7567044400532" type="line"/>
      <point x="418.17485986208" y="1021.5194983264106" type="line"/>
      <point x="371.1075130056055" y="1056.683994031536" type="line"/>
      <point x="327.3731096503609" y="1056.683994031536" type="line"/>
      <point x="22.152397467435577" y="974.2323668185668" type="line"/>
      <point x="22.152397467435577" y="910.99883050369" type="line"/>
      <point x="140.3164495705126" y="869.8217526313667" type="line"/>
      <point x="140.3164495705126" y="87.36806871799007" type="line"/>
      <point x="21.17481953462113" y="58.61894584022261" type="line"/>
    </contour>
  </outline>
</glyph>
<glyph name="s" format="2">
  <advance width="968.6360043553656"/>
  <unicode hex="0073"/>
  <anchor x="466.57942493043504" y="-5.980239545106263" name="bottom"/>
  <anchor x="488.7888454248498" y="1110.7237569060774" name="top"/>
  <outline>
    <contour>
      <point x="192.65241763116504" y="307.4054119449933" type="line"/>
      <point x="64.95858369964108" y="307.4054119449933" type="line"/>
      <point x="60.15643021333225" y="48.60866233818608" type="line"/>
      <point x="122.04496511674797" y="40.94834052506351"/>
      <point x="290.4648142920514" y="-23.60071782876961"/>
      <point x="454.67621083195553" y="-23.60071782876961" type="curve" smooth="yes"/>
      <point x="773.7418639351534" y="-23.60071782876961"/>
      <point x="918.3274186393515" y="114.61721175948706"/>
      <point x="918.3274186393515" y="299.52240190345606" type="curve" smooth="yes"/>
      <point x="918.3274186393515" y="486.0333911360244"/>
      <point x="727.4229140621849" y="569.2496672984636"/>
      <point x="567.1749001895391" y="641.3261281606646" type="curve" smooth="yes"/>
      <point x="447.41573577448884" y="695.8453441948623"/>
      <point x="320.4295277654554" y="739.0175424446506"/>
      <point x="320.23934346896795" y="851.8434084768319" type="curve" smooth="yes"/>
      <point x="320.0491591724805" y="938.942735008267"/>
      <point x="386.1378392547486" y="996.2271242489011"/>
      <point x="499.6880671048917" y="996.0819453966207" type="curve" smooth="yes"/>
      <point x="605.713312094205" y="996.0093559704804"/>
      <point x="678.037504536839" y="948.3101181594548"/>
      <point x="692.2291809493083" y="891.39617695689" type="curve"/>
      <point x="736.086300762189" y="749.2458361898617" type="line"/>
      <point x="851.1424365850708" y="749.2458361898617" type="line"/>
      <point x="857.0117352905593" y="1005.3162882606766" type="line"/>
      <point x="799.395047788039" y="1013.3769004315037"/>
      <point x="707.2939468484091" y="1064.1267492035324"/>
      <point x="505.55123603661735" y="1064.1267492035324" type="curve" smooth="yes"/>
      <point x="233.63007621889744" y="1064.1267492035324"/>
      <point x="62.64088397790054" y="930.8757914263823"/>
      <point x="62.64088397790054" y="753.670766624995" type="curve" smooth="yes"/>
      <point x="62.64088397790054" y="558.6740331491714"/>
      <point x="212.7206920191959" y="475.594144452958"/>
      <point x="378.91406218494177" y="402.5757148042102" type="curve" smooth="yes"/>
      <point x="545.136105174013" y="329.29418881316286"/>
      <point x="662.326773400008" y="283.62559987095216"/>
      <point x="662.326773400008" y="191.419244263419" type="curve" smooth="yes"/>
      <point x="662.326773400008" y="111.46090252853165"/>
      <point x="587.4593700850911" y="47.79227325886196"/>
      <point x="458.02548695406705" y="47.79227325886196" type="curve" smooth="yes"/>
      <point x="349.45586159616084" y="47.79227325886196"/>
      <point x="251.99782231721576" y="103.17897326289471"/>
      <point x="230.41158204621522" y="174.15884986087028" type="curve"/>
    </contour>
  </outline>
</glyph>
<glyph name="t" format="2">
  <advance width="711.6238254627575"/>
  <unicode hex="0074"/>
  <anchor x="369.23244747348474" y="0.0" name="bottom"/>
  <anchor x="292.47808202605154" y="557.4517885228051" name="center"/>
  <anchor x="345.36488284873167" y="1375.872484574747" name="top"/>
  <anchor x="640.5023591563496" y="1110.7237569060774" name="topright"/>
  <outline>
    <contour>
      <point x="368.1426382223657" y="-21.744323910150424" type="curve" smooth="yes"/>
      <point x="538.8040085494214" y="-21.744323910150424"/>
      <point x="651.833487921926" y="35.1600193571803"/>
      <point x="711.3230229463242" y="87.23414122676131" type="curve"/>
      <point x="681.2549098681292" y="157.54796951244103" type="line"/>
      <point x="644.473968625237" y="137.94640480703313"/>
      <point x="583.8707101665524" y="115.55631729644715"/>
      <point x="531.3933540347622" y="115.55631729644715" type="curve" smooth="yes"/>
      <point x="467.1597370649675" y="115.55631729644715"/>
      <point x="439.8049764084365" y="132.77823930314153"/>
      <point x="439.8049764084365" y="282.3793200790418" type="curve" smooth="yes"/>
      <point x="439.8049764084365" y="931.5070774690487" type="line"/>
      <point x="667.3367746098318" y="931.5070774690487" type="line"/>
      <point x="667.3367746098318" y="1032.7814251724" type="line"/>
      <point x="437.8373593579869" y="1032.7814251724" type="line"/>
      <point x="436.08872040972705" y="1348.098398999879" type="line"/>
      <point x="290.4489252732185" y="1348.098398999879" type="line"/>
      <point x="268.9062386579022" y="1285.7138766786306"/>
      <point x="237.8224785256281" y="1189.4725571641732"/>
      <point x="216.53038674033152" y="1147.3822639835462" type="curve" smooth="yes"/>
      <point x="194.58934548534094" y="1105.515021978465"/>
      <point x="173.14368673629878" y="1058.0180263741581"/>
      <point x="139.17635197806186" y="1037.1507843690767" type="curve" smooth="yes"/>
      <point x="110.14529983465742" y="1019.1794168649433"/>
      <point x="47.261362261563896" y="1007.261402589023"/>
      <point x="7.869701980078238" y="990.6537081098519" type="curve"/>
      <point x="7.869701980078238" y="931.5070774690487" type="line"/>
      <point x="139.0978747429124" y="931.5070774690487" type="line"/>
      <point x="139.0978747429124" y="203.54692099850786" type="line" smooth="yes"/>
      <point x="139.0978747429124" y="40.75936605234503"/>
      <point x="214.27636407629956" y="-21.744323910150424"/>
    </contour>
  </outline>
</glyph>
<glyph name="u" format="2">
  <advance width="1195.2762834213818"/>
  <unicode hex="0075"/>
  <anchor x="604.482316409243" y="0.0" name="bottom"/>
  <anchor x="991.675444610235" y="20.0" name="ogonek"/>
  <anchor x="588.8220349235795" y="1110.380368592975" name="top"/>
  <anchor x="994.3169335000201" y="1050.7577932814454" name="topright"/>
  <outline>
    <contour>
      <point x="923.792232931403" y="-18.50663386700004" type="curve" smooth="yes"/>
      <point x="1027.8000564584424" y="-18.50663386700004"/>
      <point x="1104.7045610356088" y="0.0"/>
      <point x="1153.997298060249" y="10.95979352341009" type="curve"/>
      <point x="1154.1424769125294" y="68.88365528088076" type="line"/>
      <point x="1062.9438641771183" y="80.3898052183732" type="line"/>
      <point x="1062.9438641771183" y="1023.8488526837924" type="line"/>
      <point x="1013.845586159616" y="1056.303625438561" type="line"/>
      <point x="983.6812114368672" y="1056.303625438561" type="line"/>
      <point x="651.4814292051459" y="978.0542404323104" type="line"/>
      <point x="651.4814292051459" y="921.7246441101746" type="line"/>
      <point x="776.7701738113483" y="881.3452837036738" type="line"/>
      <point x="776.7701738113483" y="209.58785336935918" type="line"/>
      <point x="732.2080090333508" y="175.31632858813566"/>
      <point x="661.0500463765778" y="132.76618139291043"/>
      <point x="563.2074847763843" y="132.76618139291043" type="curve" smooth="yes"/>
      <point x="454.8775658345767" y="132.76618139291043"/>
      <point x="404.7976771383635" y="188.66395128442957"/>
      <point x="404.7976771383635" y="333.2099044239222" type="curve" smooth="yes"/>
      <point x="404.7976771383635" y="1023.8488526837924" type="line"/>
      <point x="360.9936282614833" y="1056.303625438561" type="line"/>
      <point x="332.7834012178894" y="1056.303625438561" type="line"/>
      <point x="8.540549259991131" y="978.0542404323104" type="line"/>
      <point x="8.540549259991131" y="920.9639069242247" type="line"/>
      <point x="116.34177521474372" y="881.3452837036738" type="line"/>
      <point x="116.54542888252611" y="338.7037544864298" type="line" smooth="yes"/>
      <point x="116.54542888252611" y="95.85280477477114"/>
      <point x="221.22409968947858" y="-20.525547445255473"/>
      <point x="438.35863209259185" y="-20.525547445255473" type="curve" smooth="yes"/>
      <point x="591.8677662620478" y="-20.525547445255473"/>
      <point x="735.2720087107311" y="72.1521151752228"/>
      <point x="792.2987054885672" y="159.50368996249549" type="curve"/>
      <point x="792.2987054885672" y="75.51449772149857" type="line" smooth="yes"/>
      <point x="792.2987054885672" y="-0.3543977094003292"/>
      <point x="842.6245513570191" y="-18.50663386700004"/>
    </contour>
  </outline>
</glyph>
<glyph name="v" format="2">
  <advance width="1059.455942251079"/>
  <unicode hex="0076"/>
  <outline>
    <contour>
      <point x="-40.36911723192321" y="975.2720490381902" type="line"/>
      <point x="49.577852159535425" y="938.5871274750979" type="line"/>
      <point x="405.63648828487317" y="-4.204379562043796" type="line"/>
      <point x="671.6835504294875" y="-4.204379562043796" type="line"/>
      <point x="1016.7169818929709" y="938.5871274750979" type="line"/>
      <point x="1124.3372182118806" y="975.2720490381902" type="line"/>
      <point x="1124.3372182118806" y="1032.7814251724" type="line"/>
      <point x="764.2880187119409" y="1032.7814251724" type="line"/>
      <point x="764.2880187119409" y="974.7384764286003" type="line"/>
      <point x="887.182320441989" y="938.5871274750979" type="line"/>
      <point x="688.1844981247731" y="327.2323264911078" type="line"/>
      <point x="631.0318183651249" y="137.11255393797643" type="line"/>
      <point x="579.0639593499214" y="328.32511997419044" type="line"/>
      <point x="379.18417550510145" y="938.5871274750979" type="line"/>
      <point x="501.05315159091816" y="975.2720490381902" type="line"/>
      <point x="501.05315159091816" y="1032.7814251724" type="line"/>
      <point x="-40.36911723192321" y="1032.7814251724" type="line"/>
    </contour>
  </outline>
</glyph>
<glyph name="w" format="2">
  <advance width="1671.1866354800986"/>
  <unicode hex="0077"/>
  <anchor x="863.5506311247327" y="0.0" name="bottom"/>
  <anchor x="892.6946001532444" y="1110.7237569060774" name="top"/>
  <outline>
    <contour>
      <point x="-20.330483526233014" y="975.2720490381901" type="line"/>
      <point x="69.6036617332742" y="939.4930435133283" type="line"/>
      <point x="363.21409847965487" y="-4.204379562043796" type="line"/>
      <point x="622.6652014356575" y="-4.204379562043796" type="line"/>
      <point x="782.6294713070129" y="624.9614872766867" type="line"/>
      <point x="830.4303746420937" y="837.3347179094244" type="line"/>
      <point x="881.9395088115497" y="625.4950598862766" type="line"/>
      <point x="1043.7429931040044" y="-4.204379562043796" type="line"/>
      <point x="1319.8782514013794" y="-4.204379562043796" type="line"/>
      <point x="1623.181917167399" y="939.1576803645603" type="line"/>
      <point x="1737.620558938581" y="975.2720490381901" type="line"/>
      <point x="1737.620558938581" y="1032.9716094688874" type="line"/>
      <point x="1363.9793120135498" y="1032.9716094688874" type="line"/>
      <point x="1363.9793120135498" y="975.80562164778" type="line"/>
      <point x="1494.834859055531" y="938.5871274750978" type="line"/>
      <point x="1341.487478323991" y="346.11678832116786" type="line"/>
      <point x="1292.3670202040569" y="143.47348469572933" type="line"/>
      <point x="1247.1798604669918" y="339.9352341008993" type="line"/>
      <point x="1079.5130862604349" y="1032.5912408759125" type="line"/>
      <point x="787.6874621930071" y="1032.5912408759125" type="line"/>
      <point x="631.9488647820301" y="345.918578860346" type="line"/>
      <point x="586.9748759930637" y="143.61866354800986" type="line"/>
      <point x="542.7002863249587" y="339.5998709521313" type="line"/>
      <point x="388.1390490785176" y="939.1126749203532" type="line"/>
      <point x="497.60781546154783" y="975.80562164778" type="line"/>
      <point x="497.60781546154783" y="1032.9716094688874" type="line"/>
      <point x="-20.330483526233014" y="1032.9716094688874" type="line"/>
    </contour>
  </outline>
</glyph>
<glyph name="x" format="2">
  <advance width="1130.3787554946164"/>
  <unicode hex="0078"/>
  <outline>
    <contour>
      <point x="103.2193007218615" y="88.4650159293463" type="line"/>
      <point x="-10.859378150582732" y="58.632415211517525" type="line"/>
      <point x="-10.859378150582732" y="0.0" type="line"/>
      <point x="397.6984312618463" y="0.0" type="line"/>
      <point x="397.6984312618463" y="58.632415211517525" type="line"/>
      <point x="260.16227769488245" y="88.4650159293463" type="line"/>
      <point x="403.62269629390653" y="312.15098600637174" type="line"/>
      <point x="468.23688349397116" y="415.7631568334879" type="line"/>
      <point x="533.4591281203373" y="317.39488647820303" type="line"/>
      <point x="682.416824615881" y="88.4650159293463" type="line"/>
      <point x="562.6247126668549" y="58.632415211517525" type="line"/>
      <point x="562.6247126668549" y="0.0" type="line"/>
      <point x="1146.7775134088802" y="0.0" type="line"/>
      <point x="1146.7775134088802" y="58.632415211517525" type="line"/>
      <point x="1042.7090373835545" y="88.12965278057828" type="line"/>
      <point x="707.1440496834294" y="564.1553010444812" type="line"/>
      <point x="1016.6642335766423" y="945.1571157801346" type="line"/>
      <point x="1126.8632092591845" y="974.7384764286003" type="line"/>
      <point x="1126.8632092591845" y="1032.7814251724" type="line"/>
      <point x="737.5293785538574" y="1032.7814251724" type="line"/>
      <point x="737.5293785538574" y="974.7384764286003" type="line"/>
      <point x="861.8083235875306" y="944.6235431705447" type="line"/>
      <point x="715.3137073033029" y="723.2397064160987" type="line"/>
      <point x="656.1159817719886" y="626.0387143606082" type="line"/>
      <point x="594.7786425777311" y="720.3049562447071" type="line"/>
      <point x="446.39174093640366" y="945.1571157801346" type="line"/>
      <point x="571.3924668306648" y="974.7384764286003" type="line"/>
      <point x="571.3924668306648" y="1032.7814251724" type="line"/>
      <point x="-13.262128483284275" y="1032.7814251724" type="line"/>
      <point x="-13.262128483284275" y="974.7384764286003" type="line"/>
      <point x="84.41138040892044" y="945.1571157801346" type="line"/>
      <point x="414.51348953502435" y="481.46791950639187" type="line"/>
    </contour>
  </outline>
</glyph>
<glyph name="y" format="2">
  <advance width="1065.3064886881477"/>
  <unicode hex="0079"/>
  <anchor x="881.5533330644836" y="0.0" name="bottom"/>
  <anchor x="560.0396822196233" y="1110.7237569060774" name="top"/>
  <outline>
    <contour>
      <point x="258.0310924708634" y="-504.7412590232689" type="curve" smooth="yes"/>
      <point x="457.0885994273501" y="-504.7412590232689"/>
      <point x="546.3584707827561" y="-342.1743759325725"/>
      <point x="667.3976287454128" y="-27.951969996370526" type="curve"/>
      <point x="689.1846191071502" y="22.410533532282134"/>
      <point x="882.5143767391216" y="540.3238698229625"/>
      <point x="1021.5361132395047" y="939.1126749203532" type="curve"/>
      <point x="1128.7359761261446" y="975.2720490381902" type="line"/>
      <point x="1128.7359761261446" y="1032.7814251724" type="line"/>
      <point x="762.7543654474331" y="1032.7814251724" type="line"/>
      <point x="762.7543654474331" y="974.7384764286003" type="line"/>
      <point x="886.8759124087591" y="939.1126749203532" type="line"/>
      <point x="691.8496189055129" y="317.0350042343832" type="line"/>
      <point x="637.5438561116264" y="127.36298745816026" type="line"/>
      <point x="581.529862483365" y="327.8509900391176" type="line"/>
      <point x="377.189579384603" y="938.9224906238658" type="line"/>
      <point x="488.30330281888934" y="975.0683953704076" type="line"/>
      <point x="488.30330281888934" y="1032.7814251724" type="line"/>
      <point x="-45.26930677098036" y="1032.7814251724" type="line"/>
      <point x="-45.26930677098036" y="975.2720490381902" type="line"/>
      <point x="48.22897931201356" y="938.5871274750978" type="line"/>
      <point x="401.5853530669033" y="0.0" type="line"/>
      <point x="583.3612130499657" y="0.0" type="line"/>
      <point x="521.226237044804" y="-171.98398999879018"/>
      <point x="409.211396539904" y="-291.44041617937654"/>
      <point x="257.70540791224744" y="-291.44041617937654" type="curve" smooth="yes"/>
      <point x="220.39258781304187" y="-291.44041617937654"/>
      <point x="176.71250554502558" y="-284.1280396822196"/>
      <point x="154.6025728918821" y="-274.7967496068073" type="curve"/>
      <point x="154.6025728918821" y="-487.809251119087" type="line"/>
      <point x="173.6220107271041" y="-498.55107472678145"/>
      <point x="213.91148122756783" y="-504.7412590232689"/>
    </contour>
  </outline>
</glyph>
<glyph name="z" format="2">
  <advance width="1048.2325281284025"/>
  <unicode hex="007A"/>
  <anchor x="529.0507319433801" y="0.0" name="bottom"/>
  <anchor x="547.3770214138808" y="1110.7237569060774" name="top"/>
  <outline>
    <contour>
      <point x="702.2799532201477" y="959.9422107513005" type="line"/>
      <point x="591.2398677259346" y="849.6747590434327" type="line"/>
      <point x="27.924910271403796" y="73.86522563213293" type="line"/>
      <point x="73.20470218171555" y="0.0" type="line"/>
      <point x="977.9359196677017" y="0.0" type="line"/>
      <point x="1024.386579021656" y="358.816590716619" type="line"/>
      <point x="885.9731822397871" y="379.96128563939186" type="line"/>
      <point x="766.8485300641205" y="96.97221438077187" type="line"/>
      <point x="352.64689276928664" y="71.4501754244465" type="line"/>
      <point x="481.53333064483604" y="207.44888494575957" type="line"/>
      <point x="1015.1901036415694" y="959.0823083437514" type="line"/>
      <point x="972.9439851594952" y="1032.7814251724" type="line"/>
      <point x="103.59043432673309" y="1031.1807073436305" type="line"/>
      <point x="93.98612735411542" y="692.6116465701496" type="line"/>
      <point x="240.78884542484977" y="694.2123643989191" type="line"/>
      <point x="307.05932169214026" y="939.98048150986" type="line"/>
    </contour>
  </outline>
</glyph>
<glyph name="braceleft" format="2">
  <advance width="1068.6886720167763"/>
  <unicode hex="007B"/>
  <outline>
    <contour>
      <point x="640.8096140662176" y="-279.23756906077347" type="curve" smooth="yes"/>
      <point x="744.9962898737751" y="-279.23756906077347"/>
      <point x="837.1794975198613" y="-259.60071782876963"/>
      <point x="921.1942976973022" y="-238.0" type="curve"/>
      <point x="921.1942976973022" y="-176.6551598983748" type="line"/>
      <point x="885.1112634592895" y="-178.48388918014277"/>
      <point x="828.6388272774932" y="-180.31261846191072"/>
      <point x="792.3277815864823" y="-180.31261846191072" type="curve" smooth="yes"/>
      <point x="682.9084163406865" y="-180.31261846191072"/>
      <point x="583.2093398394967" y="-133.87579142638225"/>
      <point x="583.2093398394967" y="4.046900834778402" type="curve" smooth="yes"/>
      <point x="583.2093398394967" y="120.29551961930879"/>
      <point x="653.0075815622856" y="283.3341129975401"/>
      <point x="653.0075815622856" y="419.37278703068927" type="curve" smooth="yes"/>
      <point x="653.0075815622856" y="583.5730531919183"/>
      <point x="499.25273218534494" y="650.4940113723434"/>
      <point x="316.14727588014676" y="672.0" type="curve"/>
      <point x="499.25273218534494" y="694.7822317215793"/>
      <point x="653.0075815622856" y="748.9444690890027"/>
      <point x="653.0075815622856" y="913.9593499213614" type="curve" smooth="yes"/>
      <point x="653.0075815622856" y="1051.4455377666654"/>
      <point x="583.2093398394967" y="1221.323264911078"/>
      <point x="583.2093398394967" y="1336.848126789531" type="curve" smooth="yes"/>
      <point x="583.2093398394967" y="1472.2183328628464"/>
      <point x="679.1923216518128" y="1520.6551598983747"/>
      <point x="788.0592007097633" y="1520.6551598983747" type="curve" smooth="yes"/>
      <point x="824.1422349477759" y="1520.6551598983747"/>
      <point x="885.1112634592895" y="1519.5691011009394"/>
      <point x="921.1942976973022" y="1517.7403718191715" type="curve"/>
      <point x="921.1942976973022" y="1576.0" type="line"/>
      <point x="829.477315804331" y="1599.2014356575392"/>
      <point x="750.9226116062426" y="1616.6850828729282"/>
      <point x="645.7176674597735" y="1616.6850828729282" type="curve" smooth="yes"/>
      <point x="391.0279469290641" y="1616.6850828729282"/>
      <point x="288.7191192482962" y="1512.203935959995"/>
      <point x="288.7191192482962" y="1345.861394523531" type="curve" smooth="yes"/>
      <point x="288.7191192482962" y="1162.0326652417632"/>
      <point x="408.80158890188324" y="1027.0577085937814"/>
      <point x="408.80158890188324" y="880.6712908819617" type="curve" smooth="yes"/>
      <point x="408.80158890188324" y="781.7847723514943"/>
      <point x="351.4156551195709" y="718.2965681332419"/>
      <point x="125.11844174698554" y="718.8490543210872" type="curve"/>
      <point x="125.11844174698554" y="636.743638343348" type="line"/>
      <point x="351.4156551195709" y="637.2961245311934"/>
      <point x="408.80158890188324" y="553.4110577892486"/>
      <point x="408.80158890188324" y="452.45259507198455" type="curve" smooth="yes"/>
      <point x="408.80158890188324" y="306.59974996975444"/>
      <point x="288.7191192482962" y="174.51982094608218"/>
      <point x="288.7191192482962" y="-9.137637617453723" type="curve" smooth="yes"/>
      <point x="288.7191192482962" y="-174.20393595999516"/>
      <point x="389.7082711618341" y="-279.23756906077347"/>
    </contour>
  </outline>
</glyph>
<glyph name="bar" format="2">
  <advance width="788.4008146146713"/>
  <unicode hex="007C"/>
  <outline>
    <contour>
      <point x="458.37992499092627" y="1738.0" type="line"/>
      <point x="330.2110739202323" y="1738.0" type="line"/>
      <point x="330.2110739202323" y="-182.0" type="line"/>
      <point x="458.37992499092627" y="-182.0" type="line"/>
    </contour>
  </outline>
</glyph>
<glyph name="braceright" format="2">
  <advance width="1068.6886720167763"/>
  <unicode hex="007D"/>
  <outline>
    <contour>
      <point x="427.8790579505585" y="-279.23756906077347" type="curve" smooth="yes"/>
      <point x="678.9804008549422" y="-279.23756906077347"/>
      <point x="779.9695527684801" y="-174.20393595999516"/>
      <point x="779.9695527684801" y="-9.137637617453723" type="curve" smooth="yes"/>
      <point x="779.9695527684801" y="174.51982094608218"/>
      <point x="659.887083114893" y="306.59974996975444"/>
      <point x="659.887083114893" y="452.45259507198455" type="curve" smooth="yes"/>
      <point x="659.887083114893" y="553.4110577892486"/>
      <point x="717.2730168972053" y="637.2961245311934"/>
      <point x="943.5702302697907" y="636.743638343348" type="curve"/>
      <point x="943.5702302697907" y="718.8490543210872" type="line"/>
      <point x="717.2730168972053" y="718.2965681332419"/>
      <point x="659.887083114893" y="781.7847723514943"/>
      <point x="659.887083114893" y="880.6712908819617" type="curve" smooth="yes"/>
      <point x="659.887083114893" y="1027.0577085937814"/>
      <point x="779.9695527684801" y="1162.0326652417632"/>
      <point x="779.9695527684801" y="1345.861394523531" type="curve" smooth="yes"/>
      <point x="779.9695527684801" y="1512.203935959995"/>
      <point x="677.6607250877123" y="1616.6850828729282"/>
      <point x="422.9710045570028" y="1616.6850828729282" type="curve" smooth="yes"/>
      <point x="317.76606041053356" y="1616.6850828729282"/>
      <point x="239.21135621244505" y="1599.2014356575392"/>
      <point x="147.49437431947413" y="1576.0" type="curve"/>
      <point x="147.49437431947413" y="1517.7403718191715" type="line"/>
      <point x="183.5774085574868" y="1519.5691011009394"/>
      <point x="244.54643706900023" y="1520.6551598983747"/>
      <point x="280.6294713070129" y="1520.6551598983747" type="curve" smooth="yes"/>
      <point x="389.4963503649635" y="1520.6551598983747"/>
      <point x="485.47933217727956" y="1472.2183328628464"/>
      <point x="485.47933217727956" y="1336.848126789531" type="curve" smooth="yes"/>
      <point x="485.47933217727956" y="1221.323264911078"/>
      <point x="415.6810904544905" y="1051.4455377666654"/>
      <point x="415.6810904544905" y="913.9593499213614" type="curve" smooth="yes"/>
      <point x="415.6810904544905" y="748.9444690890027"/>
      <point x="569.4359398314311" y="694.7822317215793"/>
      <point x="752.5413961366295" y="672.0" type="curve"/>
      <point x="569.4359398314311" y="650.4940113723434"/>
      <point x="415.6810904544905" y="583.5730531919183"/>
      <point x="415.6810904544905" y="419.37278703068927" type="curve" smooth="yes"/>
      <point x="415.6810904544905" y="283.3341129975401"/>
      <point x="485.47933217727956" y="120.29551961930879"/>
      <point x="485.47933217727956" y="4.046900834778402" type="curve" smooth="yes"/>
      <point x="485.47933217727956" y="-133.87579142638225"/>
      <point x="385.7802556760899" y="-180.31261846191072"/>
      <point x="276.360890430294" y="-180.31261846191072" type="curve" smooth="yes"/>
      <point x="240.04984473928292" y="-180.31261846191072"/>
      <point x="183.5774085574868" y="-178.48388918014277"/>
      <point x="147.49437431947413" y="-176.6551598983748" type="curve"/>
      <point x="147.49437431947413" y="-238.0" type="line"/>
      <point x="231.50917449691494" y="-259.60071782876963"/>
      <point x="323.6923821430011" y="-279.23756906077347"/>
    </contour>
  </outline>
</glyph>
<glyph name="asciitilde" format="2">
  <advance width="1289.5703915796264"/>
  <unicode hex="007E"/>
  <outline>
    <contour>
      <point x="159.3375811590112" y="546.7270637577126" type="curve"/>
      <point x="211.4242851957898" y="477.69754405774887" type="line"/>
      <point x="262.4336008388112" y="542.4185586966165"/>
      <point x="341.44174698552246" y="595.8171956285034"/>
      <point x="429.8853893616164" y="595.8171956285034" type="curve" smooth="yes"/>
      <point x="599.9397104488447" y="595.8171956285034"/>
      <point x="638.9498326410453" y="414.79045852320843"/>
      <point x="840.7729967334759" y="414.79045852320843" type="curve" smooth="yes"/>
      <point x="970.7104891720772" y="414.79045852320843"/>
      <point x="1073.9035367181514" y="492.08480864620714"/>
      <point x="1130.2328104206154" y="582.4355365568416" type="curve"/>
      <point x="1072.058111868371" y="656.670645642618" type="line"/>
      <point x="1021.591765132879" y="590.8985361132395"/>
      <point x="940.4639674154132" y="532.9650360930758"/>
      <point x="851.004919949994" y="532.9650360930758" type="curve" smooth="yes"/>
      <point x="686.0681937331128" y="532.9650360930758"/>
      <point x="637.3525023188289" y="713.4212203089083"/>
      <point x="445.4701375166352" y="713.4212203089083" type="curve" smooth="yes"/>
      <point x="317.45194983264105" y="713.4212203089083"/>
      <point x="210.73944428761544" y="631.7189176110012"/>
    </contour>
  </outline>
</glyph>
<glyph name="exclamdown" format="2">
  <advance width="498.76533451627216"/>
  <unicode hex="00A1"/>
  <outline>
    <contour>
      <point x="81.22087349276123" y="-392.2580554099286" type="line"/>
      <point x="421.9491874017018" y="-392.2580554099286" type="line"/>
      <point x="293.2588619591079" y="900.6029761664716" type="line"/>
      <point x="206.77384361011414" y="900.6029761664716" type="line"/>
    </contour>
    <contour>
      <point x="264.2674517078679" y="1385.8803887567044" type="curve" smooth="yes"/>
      <point x="157.79166834697747" y="1385.8803887567044"/>
      <point x="83.23325402266403" y="1328.7686413679073"/>
      <point x="83.23325402266403" y="1232.3801669556801" type="curve" smooth="yes"/>
      <point x="83.23325402266403" y="1160.813929104327"/>
      <point x="135.12009517280313" y="1093.1892164374722"/>
      <point x="236.90361737306935" y="1093.1892164374722" type="curve" smooth="yes"/>
      <point x="334.9825382102673" y="1093.1892164374722"/>
      <point x="413.6672178086058" y="1156.255111505424"/>
      <point x="413.6672178086058" y="1246.879622534984" type="curve" smooth="yes"/>
      <point x="413.6672178086058" y="1329.1426785498245"/>
      <point x="344.5895471226358" y="1385.8803887567044"/>
    </contour>
  </outline>
</glyph>
<glyph name="cent" format="2">
  <advance width="1153.3766987942092"/>
  <unicode hex="00A2"/>
  <outline>
    <contour>
      <point x="133.1463080211316" y="513.146993587934" type="curve" smooth="yes"/>
      <point x="132.76593942815666" y="221.49796346332215"/>
      <point x="270.563818203815" y="23.217889260797676"/>
      <point x="558.3239504778804" y="-15.008872040972697" type="curve"/>
      <point x="533.2446263660928" y="-252.0" type="line"/>
      <point x="641.8926886316893" y="-252.0" type="line"/>
      <point x="665.972012743477" y="-21.737226277372265" type="line"/>
      <point x="822.1413074162197" y="-18.163810138323182"/>
      <point x="956.9565269992338" y="40.922651933701644"/>
      <point x="1037.2965681332416" y="123.08896237448079" type="curve"/>
      <point x="1002.4379158769204" y="189.28870427874338" type="line"/>
      <point x="936.6934709843933" y="149.7779973383877"/>
      <point x="855.78727265395" y="112.23164092430535"/>
      <point x="764.0716618945839" y="112.23164092430535" type="curve" smooth="yes"/>
      <point x="574.4613864580392" y="112.23164092430535"/>
      <point x="456.8910352058717" y="270.8913578255435"/>
      <point x="457.1088034842924" y="573.1641327579948" type="curve" smooth="yes"/>
      <point x="457.253982336573" y="838.9724563455255"/>
      <point x="534.2930596443118" y="987.6620155663991"/>
      <point x="686.4667903375408" y="987.6620155663991" type="curve" smooth="yes"/>
      <point x="750.9560027422671" y="987.6620155663991"/>
      <point x="794.2153889583417" y="961.7412993507279"/>
      <point x="807.2305117554544" y="894.3684316651209" type="curve" smooth="yes"/>
      <point x="847.7564221478405" y="698.529741500988" type="line"/>
      <point x="1031.3943218937775" y="698.529741500988" type="line"/>
      <point x="1042.7423075372021" y="1002.2124450538372" type="line"/>
      <point x="991.5050207686413" y="1011.3543170544823"/>
      <point x="881.4982860829938" y="1057.477436786708"/>
      <point x="746.4674759043432" y="1065.6374561438884" type="curve"/>
      <point x="769.8995039722548" y="1320.9075291365891" type="line"/>
      <point x="665.6189055127637" y="1320.9075291365891" type="line"/>
      <point x="641.7534782433358" y="1065.4977214985684" type="line"/>
      <point x="339.01568738153804" y="1042.9219260394402"/>
      <point x="133.52667661410655" y="831.8621204177925"/>
    </contour>
  </outline>
</glyph>
<glyph name="sterling" format="2">
  <advance width="1612.1696576198733"/>
  <unicode hex="00A3"/>
  <outline>
    <contour>
      <point x="1020.5470016534258" y="-14.0" type="curve" smooth="yes"/>
      <point x="1295.766705649877" y="-14.0"/>
      <point x="1514.7448078396578" y="140.3849659232972"/>
      <point x="1514.7448078396578" y="359.2801548574425" type="curve" smooth="yes"/>
      <point x="1514.7448078396578" y="436.8303020526676"/>
      <point x="1486.5448642981007" y="495.74625962818084"/>
      <point x="1458.7940073395973" y="522.7790055248619" type="curve"/>
      <point x="1155.2357946525788" y="522.7790055248619" type="line"/>
      <point x="1192.8414727588017" y="481.79017623099566"/>
      <point x="1215.3968221962336" y="399.4444489252732"/>
      <point x="1215.3968221962336" y="329.4245674880026" type="curve" smooth="yes"/>
      <point x="1215.3968221962336" y="159.97790055248618"/>
      <point x="1150.7189982659195" y="74.76339879824172"/>
      <point x="999.2387385570836" y="74.76339879824172" type="curve" smooth="yes"/>
      <point x="831.9474533209661" y="74.76339879824172"/>
      <point x="723.2155502681775" y="148.46582247852564"/>
      <point x="554.8311892567649" y="189.6995201032383" type="curve"/>
      <point x="642.3211275557527" y="267.9619308787353"/>
      <point x="690.0255272815259" y="388.6927047626729"/>
      <point x="690.025527281526" y="590.3944025486954" type="curve" smooth="yes"/>
      <point x="690.025527281526" y="766.4021050933579" type="line"/>
      <point x="995.123845626487" y="766.4021050933579" type="line"/>
      <point x="995.123845626487" y="856.7948945436949" type="line"/>
      <point x="690.025527281526" y="856.7948945436949" type="line"/>
      <point x="690.025527281526" y="1117.1505827317822" type="line" smooth="yes"/>
      <point x="690.025527281526" y="1330.7134330765816"/>
      <point x="758.6954873573417" y="1424.9624148082428"/>
      <point x="893.6929870548855" y="1424.9624148082428" type="curve" smooth="yes"/>
      <point x="1017.5061096100335" y="1424.9624148082428"/>
      <point x="1140.233254022664" y="1321.3528652659595"/>
      <point x="1190.754728394564" y="1215.8997862644674" type="curve"/>
      <point x="1332.5249425333707" y="1389.172762834214" type="line"/>
      <point x="1240.5257087550915" y="1457.3481066258014"/>
      <point x="1094.9727386377385" y="1504.171270718232"/>
      <point x="933.4618703875469" y="1504.171270718232" type="curve" smooth="yes"/>
      <point x="623.2006694358189" y="1504.171270718232"/>
      <point x="371.80009678590153" y="1302.3333467758196"/>
      <point x="371.80009678590153" y="998.7237569060774" type="curve" smooth="yes"/>
      <point x="371.80009678590153" y="856.7948945436949" type="line"/>
      <point x="168.31390894059766" y="856.7948945436949" type="line"/>
      <point x="168.31390894059766" y="766.4021050933579" type="line"/>
      <point x="371.80009678590153" y="766.4021050933579" type="line"/>
      <point x="371.80009678590153" y="417.4967939670122" type="line" smooth="yes"/>
      <point x="371.80009678590153" y="328.53675847884824"/>
      <point x="360.5819252328911" y="254.25402266403194"/>
      <point x="345.1173125781344" y="223.27378311892568" type="curve"/>
      <point x="233.62241400169376" y="218.9845545832157"/>
      <point x="100.96705246602411" y="165.2289389845546"/>
      <point x="100.96705246602411" y="85.47509779408799" type="curve" smooth="yes"/>
      <point x="100.96705246602411" y="33.80884784449732"/>
      <point x="148.9212808000968" y="0.0"/>
      <point x="217.67854982457555" y="0.0" type="curve" smooth="yes"/>
      <point x="308.86264467475905" y="0.0"/>
      <point x="375.7099245876518" y="33.53591160220994"/>
      <point x="450.02863249586636" y="103.5609952816873" type="curve"/>
      <point x="595.3039480582329" y="102.24777190789209"/>
      <point x="757.3761342097836" y="-14.0"/>
    </contour>
  </outline>
</glyph>
<glyph name="currency" format="2">
  <advance width="1430.5590998911157"/>
  <unicode hex="00A4"/>
  <outline>
    <contour>
      <point x="380.60640400048396" y="465.2792676533452" type="curve"/>
      <point x="166.70984393273378" y="252.1064644916724" type="line"/>
      <point x="237.4746541920394" y="178.93434689680203" type="line"/>
      <point x="454.76025325644235" y="398.1332419244264" type="line"/>
      <point x="527.920837198048" y="341.32637012541835"/>
      <point x="618.9018429648747" y="311.1436464088398"/>
      <point x="713.3466951647375" y="311.1436464088398" type="curve" smooth="yes"/>
      <point x="802.7352905593418" y="311.1436464088398"/>
      <point x="889.6283018107029" y="339.3607694479171"/>
      <point x="961.9119248296165" y="393.3558898253821" type="curve"/>
      <point x="1180.4413840383916" y="172.56430213332257" type="line"/>
      <point x="1270.1704238415937" y="263.8860346009598" type="line"/>
      <point x="1053.0300036294714" y="478.85518409485024" type="line"/>
      <point x="1119.0820260515384" y="561.2391418316731"/>
      <point x="1156.3743194741298" y="660.3981530023792"/>
      <point x="1156.3743194741298" y="763.7054885671654" type="curve" smooth="yes"/>
      <point x="1156.3743194741298" y="866.8441343710932"/>
      <point x="1119.937492438601" y="964.173972657983"/>
      <point x="1052.3175787393636" y="1043.0426261241278" type="curve"/>
      <point x="1267.6616526192686" y="1256.2154292858006" type="line"/>
      <point x="1194.2778561922812" y="1329.7444045650684" type="line"/>
      <point x="974.1557043190709" y="1112.255151832883" type="line"/>
      <point x="897.6808888171956" y="1168.5962414808243"/>
      <point x="807.0828326007179" y="1198.8563535911603"/>
      <point x="713.3466951647375" y="1198.8563535911603" type="curve" smooth="yes"/>
      <point x="622.7142396257611" y="1198.8563535911603"/>
      <point x="537.5536556841553" y="1171.2232528128402"/>
      <point x="467.1302980199217" y="1117.88797031899" type="curve"/>
      <point x="246.80449247892898" y="1339.2320441988948" type="line"/>
      <point x="159.3375811590112" y="1248.3176190668225" type="line"/>
      <point x="376.6231802234142" y="1030.479533814574" type="line"/>
      <point x="312.72980602492237" y="950.2163971448158"/>
      <point x="277.9765294188814" y="849.251441706658"/>
      <point x="277.9765294188814" y="745.0725894261402" type="curve" smooth="yes"/>
      <point x="277.9765294188814" y="642.6072508771222"/>
      <point x="313.34879219260404" y="544.9609630197202"/>
    </contour>
    <contour>
      <point x="715.7281929265637" y="496.3079404766706" type="curve" smooth="yes"/>
      <point x="587.6977860225028" y="496.3079404766706"/>
      <point x="477.87946122514825" y="612.8970036697988"/>
      <point x="477.87946122514825" y="751.9822155905957" type="curve" smooth="yes"/>
      <point x="477.87946122514825" y="888.2423680283906"/>
      <point x="563.6695568012259" y="1012.4701375166351"/>
      <point x="707.0441585675686" y="1012.4701375166351" type="curve" smooth="yes"/>
      <point x="835.256281001734" y="1012.4701375166351"/>
      <point x="950.6672984635238" y="896.5013912973344"/>
      <point x="950.6672984635238" y="747.6104770738395" type="curve" smooth="yes"/>
      <point x="950.6672984635238" y="611.3179416864944"/>
      <point x="864.6004758640158" y="496.3079404766706"/>
    </contour>
  </outline>
</glyph>
